<?xml version="1.0" standalone="no"?>
<!DOCTYPE svg PUBLIC "-//W3C//DTD SVG 20010904//EN"
 "http://www.w3.org/TR/2001/REC-SVG-20010904/DTD/svg10.dtd">
<svg version="1.0" xmlns="http://www.w3.org/2000/svg"
 width="315.000000pt" height="331.000000pt" viewBox="0 0 315.000000 331.000000"
 preserveAspectRatio="xMidYMid meet">

<g transform="translate(0.000000,331.000000) scale(0.100000,-0.100000)"
fill="#000000" stroke="none">
<path d="M885 2875 c-352 -206 -651 -380 -664 -388 l-24 -15 41 -25 40 -26
631 365 631 366 0 49 c0 27 -3 49 -7 48 -5 -1 -296 -169 -648 -374z"/>
<path d="M1592 3199 l3 -53 147 -90 148 -89 36 19 c19 10 40 24 44 30 6 7 -45
42 -153 104 -89 52 -177 103 -195 113 l-33 20 3 -54z"/>
<path d="M1390 3014 c-80 -46 -146 -87 -147 -91 -2 -5 22 -18 52 -29 l54 -22
86 53 c48 29 91 57 96 62 6 6 9 33 7 61 l-3 50 -145 -84z"/>
<path d="M1590 3041 l0 -59 80 -51 80 -51 45 28 c25 15 45 30 45 33 0 3 -56
40 -125 82 l-125 77 0 -59z"/>
<path d="M1978 2967 c-21 -12 -38 -24 -38 -27 0 -3 22 -17 48 -32 l48 -27 42
25 c23 14 42 28 42 32 0 10 -76 52 -92 52 -7 -1 -30 -11 -50 -23z"/>
<path d="M1458 2887 l-87 -52 -1 -87 c0 -49 3 -88 8 -88 4 0 80 44 168 97
l162 98 -67 42 c-36 23 -73 43 -81 43 -8 0 -54 -24 -102 -53z"/>
<path d="M1847 2887 c-22 -13 -39 -27 -39 -32 0 -4 20 -20 43 -36 l43 -28 36
21 c65 39 66 42 16 72 -24 14 -48 26 -53 26 -4 0 -25 -11 -46 -23z"/>
<path d="M2122 2886 c-18 -13 -35 -26 -37 -28 -3 -3 116 -78 264 -167 l269
-163 51 28 c28 16 51 31 51 34 0 8 -540 320 -553 320 -7 -1 -27 -11 -45 -24z"/>
<path d="M926 2745 c-137 -79 -253 -148 -258 -153 -5 -5 21 -20 56 -34 l65
-26 257 156 256 156 -52 23 c-29 13 -58 23 -64 23 -6 0 -123 -65 -260 -145z"/>
<path d="M1675 2784 c-38 -24 -71 -48 -72 -52 -2 -7 82 -62 96 -62 8 0 129 75
144 90 7 6 -85 72 -96 69 -1 0 -33 -20 -72 -45z"/>
<path d="M1982 2796 c-18 -13 -34 -27 -35 -30 -1 -4 17 -18 41 -32 l42 -25 0
55 c0 31 -3 56 -7 56 -5 -1 -23 -12 -41 -24z"/>
<path d="M1145 2696 l-170 -104 -3 -92 -3 -93 28 18 c15 10 94 58 175 107
l148 89 0 90 c0 49 -1 89 -2 89 -2 0 -79 -47 -173 -104z"/>
<path d="M2080 2738 l1 -63 192 -118 192 -119 52 29 c29 15 53 31 53 34 0 5
-224 143 -442 272 l-48 29 0 -64z"/>
<path d="M1825 2694 c-39 -24 -70 -48 -70 -53 0 -6 62 -48 138 -95 l137 -85 0
98 0 98 -62 38 c-35 21 -65 39 -68 41 -3 1 -37 -17 -75 -42z"/>
<path d="M1348 2587 c-92 -56 -165 -104 -162 -107 3 -3 38 -14 77 -25 l72 -21
97 61 97 60 1 68 c0 37 -3 67 -7 66 -5 0 -83 -46 -175 -102z"/>
<path d="M1580 2635 l0 -44 35 20 c19 12 35 24 35 28 0 7 -53 41 -64 41 -3 0
-6 -20 -6 -45z"/>
<path d="M2080 2501 c0 -99 -3 -122 -17 -139 -10 -11 -71 -52 -136 -92 l-119
-73 54 -33 c29 -19 59 -34 66 -34 12 0 467 262 485 279 6 6 -312 211 -328 211
-3 0 -5 -54 -5 -119z"/>
<path d="M1633 2573 l-53 -36 0 -64 c0 -49 3 -62 13 -57 6 4 40 27 75 52 60
42 62 45 62 87 0 30 -5 45 -16 49 -23 9 -24 8 -81 -31z"/>
<path d="M485 2490 c-132 -77 -130 -66 -19 -105 l50 -18 107 64 c59 35 107 67
107 70 0 4 -6 9 -12 12 -7 3 -36 14 -64 25 l-50 20 -119 -68z"/>
<path d="M868 2528 l-48 -30 0 -217 0 -217 55 -27 55 -27 0 275 c0 151 -3 275
-7 274 -5 0 -29 -14 -55 -31z"/>
<path d="M1780 2401 c0 -89 3 -161 6 -161 17 0 243 146 244 157 0 9 -140 102
-237 157 -10 6 -13 -28 -13 -153z"/>
<path d="M2718 2533 c-27 -14 -48 -29 -48 -32 0 -3 28 -23 63 -43 l62 -36 47
26 c25 15 47 32 48 37 3 10 -97 74 -115 74 -5 0 -31 -11 -57 -26z"/>
<path d="M1433 2447 l-83 -52 0 -76 c0 -60 4 -79 18 -91 20 -17 149 -98 157
-98 3 0 5 83 5 185 0 102 -3 185 -7 184 -5 0 -45 -24 -90 -52z"/>
<path d="M2301 2290 c-167 -98 -308 -183 -313 -188 -6 -6 12 -22 50 -46 33
-20 62 -36 65 -36 4 0 638 368 645 375 5 4 -119 75 -131 74 -7 0 -149 -81
-316 -179z"/>
<path d="M660 2402 l-95 -58 -3 -50 -2 -49 76 -45 76 -45 -4 -482 c-2 -266 -2
-483 0 -483 2 0 17 9 33 21 l29 20 0 615 c0 338 -3 614 -7 614 -5 0 -51 -27
-103 -58z"/>
<path d="M1047 2405 l-68 -43 80 -27 80 -26 73 47 73 47 -80 23 c-44 13 -82
23 -85 23 -3 0 -36 -20 -73 -44z"/>
<path d="M1648 2403 l-68 -46 0 -125 0 -124 23 14 c12 9 46 30 75 47 l52 33 0
124 c0 68 -3 124 -7 123 -5 0 -38 -21 -75 -46z"/>
<path d="M2873 2417 l-53 -31 0 -727 0 -728 54 -30 c29 -17 56 -31 60 -31 3 0
6 356 6 790 0 435 -3 790 -7 789 -5 0 -32 -15 -60 -32z m27 -762 c0 -602 -2
-685 -15 -685 -13 0 -15 83 -15 685 0 602 2 685 15 685 13 0 15 -83 15 -685z"/>
<path d="M180 1654 l0 -776 23 14 c12 7 57 36 99 63 l78 50 0 652 0 652 -87
54 c-49 29 -94 57 -100 61 -10 6 -13 -151 -13 -770z m115 6 l0 -655 -22 -3
-23 -3 0 654 c0 359 3 657 7 661 4 4 14 5 23 4 13 -3 15 -75 15 -658z"/>
<path d="M435 2325 c39 -25 73 -45 78 -45 4 0 7 8 7 19 0 14 -17 25 -71 45
-38 14 -73 26 -77 26 -4 0 25 -21 63 -45z"/>
<path d="M1233 2319 l-63 -42 0 -69 0 -70 23 14 c12 8 43 27 69 44 l48 29 0
68 c0 37 -3 67 -7 67 -5 0 -36 -19 -70 -41z"/>
<path d="M2720 2327 l-55 -33 0 -638 0 -639 53 -30 c29 -16 55 -27 58 -25 2 3
3 318 2 701 l-3 697 -55 -33z"/>
<path d="M970 2164 c0 -122 3 -154 13 -148 6 5 42 28 80 51 l67 44 0 79 0 79
-39 11 c-22 6 -58 17 -80 25 l-41 14 0 -155z"/>
<path d="M430 1635 c0 -349 3 -635 6 -635 3 0 23 12 45 28 l39 27 0 582 0 582
-37 26 c-21 14 -41 25 -45 25 -5 0 -8 -286 -8 -635z"/>
<path d="M2483 2189 l-123 -71 0 -221 c0 -122 3 -333 7 -470 l6 -247 116 -65
116 -64 3 305 c1 168 1 440 0 604 l-3 299 -122 -70z"/>
<path d="M560 1946 l0 -246 48 0 49 0 6 158 c12 280 13 268 -34 297 -74 48
-69 64 -69 -209z"/>
<path d="M1251 2137 l-81 -52 0 -100 0 -101 75 -37 c42 -20 78 -37 81 -37 3 0
4 32 3 70 l-2 70 89 56 c49 31 93 59 97 63 5 5 -25 28 -65 53 -122 75 -105 74
-197 15z"/>
<path d="M1780 2101 c0 -34 2 -61 5 -61 3 0 26 13 52 29 l46 29 -39 24 c-21
13 -45 28 -51 32 -10 5 -13 -8 -13 -53z"/>
<path d="M1653 2103 l-73 -46 0 -69 0 -68 53 30 c28 17 62 36 75 42 20 10 22
18 22 85 0 40 -1 73 -2 72 -2 0 -36 -21 -75 -46z"/>
<path d="M2220 2037 l-85 -52 3 -380 2 -381 56 -32 c63 -36 64 -36 99 -20 l25
11 0 454 c0 249 -3 453 -7 452 -5 0 -46 -24 -93 -52z"/>
<path d="M1853 2028 l-73 -42 0 -78 0 -78 48 27 c26 16 87 51 135 78 48 28 87
53 87 57 0 6 -113 78 -121 78 -2 0 -37 -19 -76 -42z"/>
<path d="M1058 2012 l-56 -37 58 -33 c32 -17 61 -32 64 -32 3 0 6 32 6 70 0
39 -3 70 -7 70 -5 0 -33 -17 -65 -38z"/>
<path d="M1443 1972 l-73 -47 0 -70 0 -70 80 -43 80 -43 0 160 c0 89 -3 161
-7 160 -5 0 -41 -22 -80 -47z"/>
<path d="M820 1938 l0 -73 50 -27 c28 -16 52 -28 55 -28 3 0 5 34 5 75 l0 75
-50 25 c-27 14 -52 25 -55 25 -3 0 -5 -33 -5 -72z"/>
<path d="M1955 1882 c-72 -42 -143 -85 -158 -95 l-27 -17 0 -169 0 -169 160
-90 160 -90 0 354 c0 195 -1 354 -2 354 -2 -1 -62 -35 -133 -78z"/>
<path d="M1648 1908 l-68 -40 0 -79 0 -78 73 43 72 43 3 76 c2 42 -1 77 -5 77
-4 -1 -38 -19 -75 -42z"/>
<path d="M970 1775 c0 -91 2 -165 5 -165 3 0 39 25 80 56 l75 56 0 69 0 69
-80 40 -80 40 0 -165z"/>
<path d="M1170 1574 l0 -255 58 41 c31 23 64 47 73 54 14 10 17 37 20 176 l4
165 -70 37 c-38 21 -73 38 -77 38 -5 0 -8 -115 -8 -256z"/>
<path d="M820 1528 l0 -283 50 -27 c28 -16 52 -28 55 -28 3 0 5 127 5 283 l0
282 -49 28 c-27 15 -52 27 -55 27 -3 0 -6 -127 -6 -282z"/>
<path d="M1653 1706 l-73 -41 0 -175 0 -175 220 -123 c120 -68 228 -126 238
-129 11 -2 52 12 95 34 l76 38 -240 134 -239 135 -2 172 -3 172 -72 -42z"/>
<path d="M1370 1568 l-1 -163 -183 -130 c-154 -108 -181 -131 -167 -140 9 -6
37 -23 62 -38 l47 -27 201 126 201 125 0 167 0 168 -75 37 c-42 20 -78 37 -80
37 -3 0 -5 -73 -5 -162z"/>
<path d="M563 1508 c4 -83 7 -211 7 -284 l0 -134 45 32 45 32 0 253 0 253 -52
0 -51 0 6 -152z"/>
<path d="M1043 1603 l-73 -55 0 -185 0 -185 28 18 c15 9 51 35 80 56 l52 39 0
184 c0 102 -3 185 -7 184 -5 0 -41 -25 -80 -56z"/>
<path d="M1380 1176 c-80 -50 -160 -100 -177 -111 l-32 -20 175 -100 c96 -55
179 -101 185 -103 10 -4 10 251 0 359 l-6 66 -145 -91z"/>
<path d="M1580 1045 c0 -119 3 -215 8 -213 257 123 401 194 402 198 0 4 -378
220 -401 228 -5 2 -9 -87 -9 -213z"/>
<path d="M640 1089 c-85 -61 -155 -115 -155 -120 0 -6 23 -23 51 -39 l51 -30
161 116 c89 64 162 120 162 124 0 10 -88 60 -104 59 -6 0 -81 -50 -166 -110z"/>
<path d="M2183 1072 l-133 -64 0 -90 0 -90 128 68 c70 36 131 70 135 74 4 4 7
43 5 87 l-3 79 -132 -64z"/>
<path d="M2360 1060 l0 -70 65 32 c36 18 65 35 65 38 0 6 -113 70 -124 70 -3
0 -6 -31 -6 -70z"/>
<path d="M889 1065 c-35 -25 -65 -49 -67 -54 -2 -7 269 -171 283 -171 3 0 4
44 3 97 l-3 97 -65 38 c-36 21 -70 38 -76 38 -5 0 -39 -20 -75 -45z"/>
<path d="M2452 989 c-29 -17 -52 -33 -50 -34 7 -6 109 -65 113 -65 3 0 5 29 5
65 0 36 -3 65 -7 65 -5 0 -32 -14 -61 -31z"/>
<path d="M2560 950 c0 -38 2 -70 4 -70 3 0 33 16 67 36 l61 36 -58 34 c-33 18
-62 34 -66 34 -5 0 -8 -31 -8 -70z"/>
<path d="M1150 910 l0 -99 59 -35 c32 -20 61 -36 65 -36 3 0 6 44 6 98 l-1 97
-64 37 -65 36 0 -98z"/>
<path d="M702 929 c-40 -28 -72 -52 -72 -54 0 -12 131 -75 142 -69 7 4 39 27
71 52 65 49 67 43 -24 95 l-45 27 -72 -51z"/>
<path d="M1933 952 l-53 -26 0 -88 c0 -48 2 -88 5 -88 3 0 32 14 65 30 l60 30
0 85 c0 62 -3 85 -12 84 -7 0 -37 -12 -65 -27z"/>
<path d="M297 900 c-88 -58 -89 -58 -65 -73 48 -31 1299 -757 1303 -757 3 0 5
48 5 108 l0 107 -567 335 c-311 184 -571 336 -577 337 -6 1 -51 -25 -99 -57z"/>
<path d="M2108 812 l-228 -117 0 -103 0 -104 33 20 c17 10 157 90 310 177 152
87 276 159 275 161 -11 10 -145 84 -153 84 -5 -1 -112 -53 -237 -118z"/>
<path d="M2160 599 l-575 -327 -3 -93 c-1 -51 1 -96 6 -101 6 -6 1131 638
1290 739 28 17 28 17 -78 75 l-65 35 -575 -328z"/>
<path d="M1330 803 l0 -99 105 -61 105 -62 0 102 0 102 -97 55 c-53 30 -100
57 -105 58 -4 2 -8 -41 -8 -95z"/>
<path d="M1703 840 l-123 -59 0 -95 0 -96 125 62 125 63 0 92 c0 51 -1 93 -2
92 -2 0 -58 -26 -125 -59z"/>
<path d="M877 828 c-37 -28 -67 -54 -67 -57 0 -5 59 -41 252 -154 l48 -29 0
96 0 96 -37 23 c-21 13 -59 36 -84 50 l-45 27 -67 -52z"/>
<path d="M1150 661 l0 -97 189 -112 c103 -62 191 -112 195 -112 4 0 5 44 4 97
l-3 97 -192 112 -193 113 0 -98z"/>
<path d="M1703 603 l-123 -64 0 -110 0 -111 33 20 c17 10 74 43 125 71 l92 53
0 104 c0 57 -1 104 -2 103 -2 -1 -58 -30 -125 -66z"/>
</g>
</svg>
