<svg width="87" height="100" viewBox="0 0 87 100" fill="none" xmlns="http://www.w3.org/2000/svg">
<mask id="path-1-inside-1_479_959" fill="white">
<path d="M73.21 4.51186L71.6795 6.43816L71.0609 7.41798L69.3083 11.6867L68.9311 13.1543L68.7306 13.6419L68.2865 14.2204L67.1833 15.2674L66.8061 15.8411L66.627 16.9789L67.1404 17.4761L68.0382 17.4858L69.0124 17.1654L70.6696 16.41L71.7298 16.018L71.4313 16.8928L68.7737 19.6848L68.4013 20.2921L68.2509 21.0093L68.2343 22.1854L67.2267 23.5482L66.6967 24.5762L66.797 25.3747L67.9528 26.8713L68.6548 27.5312L69.4954 27.7606L69.2852 28.2675L69.5526 28.6356L69.9537 29.0325L70.1483 29.6078L70.1543 29.6254L70.3763 29.5202L71.2907 28.2578L71.84 27.8036L72.4846 27.5645L72.8595 27.6267L75.8609 29.4247L76.4722 29.683L76.6728 29.8169L76.7922 30.0989L76.9211 30.8545L77.0452 31.0554L77.6613 31.1893L78.1437 31.0697L78.6046 30.888L79.1754 30.8497L79.7437 31.0601L80.8015 31.7534L81.4104 31.9351L82.4897 31.8393L84.6482 31.2367L85.7274 31.2464L85.4191 31.7978L85.281 32.0451L83.8506 33.6949L83.545 34.4314L83.7743 35.1104L84.911 36.1817L85.3671 36.8227L85.3743 37.0665L85.1547 37.6836L85.1165 37.9514L85.2813 38.3004L85.8806 38.7404L86.0717 39.0704L86.1195 39.654L86.0384 40.2327L85.6373 41.3375L84.983 42.2703L85.0069 42.6099L85.2123 43.4327L85.2361 43.7006L84.5389 44.9443L83.4261 45.7049L82.1439 45.8484L80.9213 45.2408L80.7804 45.791L80.4843 46.2071L80.033 46.4606L79.4647 46.5323L78.2015 47.0106L77.1819 47.6421L76.3104 48.4553L75.4604 49.479L75.7826 49.6549L77.1772 50.4166L77.1176 51.6508L75.9047 52.8277L73.7365 53.8371L73.1348 54.5547L72.7671 54.8753L72.4495 54.9901L71.2196 55.2723L71.148 55.3871L71.0693 55.789L71.0191 55.8895L70.1356 55.9614L70.1117 55.8753L70.0209 55.8657L69.252 55.9805L69.1326 56.124L68.9607 56.6694L68.8461 56.856L67.5591 57.7795L67.3083 58.3345L67.4182 59.2629L67.4015 60.1097L67.0552 60.971L65.1498 63.9714L64.825 64.8042L64.823 64.8384L64.7724 65.699L64.9682 66.479L65.2307 67.1922L65.3741 67.9147L65.2165 68.7285L63.1557 68.0536L61.9881 68.8003L60.2117 71.8731L57.7857 74.3622L57.2318 75.31L56.4296 78.6466L55.7104 80.3837L55.5891 80.6766L54.505 82.5533L53.1105 84.2529L49.9635 86.8768L49.4859 87.5665L48.3063 90.3918L47.7237 91.1292L46.6968 91.7087L46.2289 92.087L44.6433 92.9874L42.9863 94.5439L40.5316 95.6981L40.1257 95.837L39.352 95.7078L38.8505 95.4539L38.3587 95.3917L37.6088 95.8515L37.5253 96.0143L37.4274 96.7709L37.1887 97.1685L36.4007 97.5374L36.1094 97.8104L35.9375 98.4665L35.9137 99.0652L35.7727 99.5872L35.239 100L35.0288 99.9185L33.1425 99.77L31.6124 99.4089L31.7231 98.0074L31.6142 97.0252L31.0157 96.1111L29.3835 94.5696L28.7033 93.792L26.9623 90.8731L26.5679 89.8229L26.4183 88.8L26.1597 87.8316L25.6022 87.2042L24.9629 86.6996L24.5277 86.0859L24.3509 85.1176L24.3373 84.2448L24.2014 83.4676L23.7253 82.7585L23.3173 82.3222L23.0725 81.9268L22.6101 80.9996L21.5764 79.5542L21.3451 79.1314L21.2771 78.627L21.3996 78.2451L21.5764 77.877L21.6581 77.3861L21.4677 76.9088L20.5971 76.0225L20.2027 74.8909L19.7675 74.5227L19.2507 74.2092L18.8155 73.7729L18.6251 73.3094L18.4755 71.8235L16.9384 67.5431L17.2377 50.9029L16.5847 48.9953L15.0886 48.0006L13.0756 47.6464L10.9271 47.7136L11.0223 46.3645L11.2225 45.748L12.2869 44.7651L12.5071 44.5617L11.7192 43.9303L11.3992 43.0262L11.2703 39.9412L11.4279 39.0038L11.7742 38.2241L12.364 37.8941L12.5742 37.3632L12.5377 37.0588L12.2184 34.3932L11.791 33.7093L11.151 33.2167L10.3631 32.9154L9.50823 32.8151L8.6199 32.4612L8.2236 31.6339L8.04212 30.6775L7.77231 29.941L7.07749 29.4723L6.23212 29.1901L5.52526 28.8171L5.22434 28.076L5.15267 27.33L4.96175 26.871L4.27397 25.8621L3.84897 24.6237L3.6436 24.2556L2.95119 23.9495L1.98415 23.8586L1.14118 23.6147L0.770996 22.8352L0.859331 21.8502L1.1697 21.0613L1.75711 20.5545L2.69785 20.435L2.08655 19.3163L2.88174 14.6885L3.93008 13.6608L6.61879 13.4839L7.37101 13.5939L10.1768 14.8178L11.2082 15.1334L13.1592 15.3773L14.1358 15.6115L14.981 16.0943L15.5445 16.515L15.5781 16.7302L15.5184 17.2752L15.6771 17.9019L15.6879 17.9445L16.6908 18.8863L16.9725 19.46L16.8721 19.986L16.2321 20.77L16.0745 21.253L16.1795 21.7886L16.6094 22.7497L16.6642 23.3282L17.0725 24.208L18.2092 24.1028L20.2031 23.2375L21.0316 23.1419L21.9238 23.3082L23.5962 23.62L24.6707 24.2273L25.5494 23.9308L26.4138 23.381L27.4262 23.2471L27.9038 23.2662L28.2716 23.1228L28.6155 22.9124L29.9909 22.4152L30.3203 22.4343L30.8148 22.5976L32.7368 23.2328L33.6083 23.3667L34.6422 23.2376L35.0911 22.965L35.2916 22.5347L35.4444 21.5641L35.7883 21.1337L36.3183 21.1289L37.3498 21.4397L38.4983 21.4732L39.432 21.2963L40.3013 20.7849L41.2468 19.8239L41.8629 18.9873L42.4264 18.0311L42.8659 17.0224L43.1142 16.0041L43.1353 15.4887L43.3292 10.7456L44.3298 7.25131L43.9979 3.69501L44.2989 1.32908L44.294 0.898891L44.4277 0.640742L44.9005 0.626483L45.2707 0.836854L45.587 1.10908L45.667 1.17778L46.4809 1.87834L46.839 1.93093L47.2283 1.89278L47.6724 1.90704L48.2002 2.09352L48.7637 2.52852L50.1963 4.22538L50.9555 4.88982L51.9202 5.53038L52.9803 5.94149L54.0118 5.90797L54.7998 5.36297L56.8867 2.74371L56.9822 2.41871L57.0061 1.98371L57.1709 1.67297L57.7081 1.72556L59.1504 2.42815L59.7235 2.55723L60.4685 2.52371L61.352 2.34204L62.2213 2.06L62.8852 1.72056L63.4798 1.17093L63.692 0.892039L63.8833 0.640372L64.3346 0.219815L65.0772 0L65.3017 0.11463L66.763 0.46352L66.9206 0.406112L67.1402 0.659446L67.3789 1.30945L67.6439 1.6726L70.1535 3.7326L71.6913 4.45427L73.21 4.51186Z"/>
</mask>
<path d="M73.21 4.51186L71.6795 6.43816L71.0609 7.41798L69.3083 11.6867L68.9311 13.1543L68.7306 13.6419L68.2865 14.2204L67.1833 15.2674L66.8061 15.8411L66.627 16.9789L67.1404 17.4761L68.0382 17.4858L69.0124 17.1654L70.6696 16.41L71.7298 16.018L71.4313 16.8928L68.7737 19.6848L68.4013 20.2921L68.2509 21.0093L68.2343 22.1854L67.2267 23.5482L66.6967 24.5762L66.797 25.3747L67.9528 26.8713L68.6548 27.5312L69.4954 27.7606L69.2852 28.2675L69.5526 28.6356L69.9537 29.0325L70.1483 29.6078L70.1543 29.6254L70.3763 29.5202L71.2907 28.2578L71.84 27.8036L72.4846 27.5645L72.8595 27.6267L75.8609 29.4247L76.4722 29.683L76.6728 29.8169L76.7922 30.0989L76.9211 30.8545L77.0452 31.0554L77.6613 31.1893L78.1437 31.0697L78.6046 30.888L79.1754 30.8497L79.7437 31.0601L80.8015 31.7534L81.4104 31.9351L82.4897 31.8393L84.6482 31.2367L85.7274 31.2464L85.4191 31.7978L85.281 32.0451L83.8506 33.6949L83.545 34.4314L83.7743 35.1104L84.911 36.1817L85.3671 36.8227L85.3743 37.0665L85.1547 37.6836L85.1165 37.9514L85.2813 38.3004L85.8806 38.7404L86.0717 39.0704L86.1195 39.654L86.0384 40.2327L85.6373 41.3375L84.983 42.2703L85.0069 42.6099L85.2123 43.4327L85.2361 43.7006L84.5389 44.9443L83.4261 45.7049L82.1439 45.8484L80.9213 45.2408L80.7804 45.791L80.4843 46.2071L80.033 46.4606L79.4647 46.5323L78.2015 47.0106L77.1819 47.6421L76.3104 48.4553L75.4604 49.479L75.7826 49.6549L77.1772 50.4166L77.1176 51.6508L75.9047 52.8277L73.7365 53.8371L73.1348 54.5547L72.7671 54.8753L72.4495 54.9901L71.2196 55.2723L71.148 55.3871L71.0693 55.789L71.0191 55.8895L70.1356 55.9614L70.1117 55.8753L70.0209 55.8657L69.252 55.9805L69.1326 56.124L68.9607 56.6694L68.8461 56.856L67.5591 57.7795L67.3083 58.3345L67.4182 59.2629L67.4015 60.1097L67.0552 60.971L65.1498 63.9714L64.825 64.8042L64.823 64.8384L64.7724 65.699L64.9682 66.479L65.2307 67.1922L65.3741 67.9147L65.2165 68.7285L63.1557 68.0536L61.9881 68.8003L60.2117 71.8731L57.7857 74.3622L57.2318 75.31L56.4296 78.6466L55.7104 80.3837L55.5891 80.6766L54.505 82.5533L53.1105 84.2529L49.9635 86.8768L49.4859 87.5665L48.3063 90.3918L47.7237 91.1292L46.6968 91.7087L46.2289 92.087L44.6433 92.9874L42.9863 94.5439L40.5316 95.6981L40.1257 95.837L39.352 95.7078L38.8505 95.4539L38.3587 95.3917L37.6088 95.8515L37.5253 96.0143L37.4274 96.7709L37.1887 97.1685L36.4007 97.5374L36.1094 97.8104L35.9375 98.4665L35.9137 99.0652L35.7727 99.5872L35.239 100L35.0288 99.9185L33.1425 99.77L31.6124 99.4089L31.7231 98.0074L31.6142 97.0252L31.0157 96.1111L29.3835 94.5696L28.7033 93.792L26.9623 90.8731L26.5679 89.8229L26.4183 88.8L26.1597 87.8316L25.6022 87.2042L24.9629 86.6996L24.5277 86.0859L24.3509 85.1176L24.3373 84.2448L24.2014 83.4676L23.7253 82.7585L23.3173 82.3222L23.0725 81.9268L22.6101 80.9996L21.5764 79.5542L21.3451 79.1314L21.2771 78.627L21.3996 78.2451L21.5764 77.877L21.6581 77.3861L21.4677 76.9088L20.5971 76.0225L20.2027 74.8909L19.7675 74.5227L19.2507 74.2092L18.8155 73.7729L18.6251 73.3094L18.4755 71.8235L16.9384 67.5431L17.2377 50.9029L16.5847 48.9953L15.0886 48.0006L13.0756 47.6464L10.9271 47.7136L11.0223 46.3645L11.2225 45.748L12.2869 44.7651L12.5071 44.5617L11.7192 43.9303L11.3992 43.0262L11.2703 39.9412L11.4279 39.0038L11.7742 38.2241L12.364 37.8941L12.5742 37.3632L12.5377 37.0588L12.2184 34.3932L11.791 33.7093L11.151 33.2167L10.3631 32.9154L9.50823 32.8151L8.6199 32.4612L8.2236 31.6339L8.04212 30.6775L7.77231 29.941L7.07749 29.4723L6.23212 29.1901L5.52526 28.8171L5.22434 28.076L5.15267 27.33L4.96175 26.871L4.27397 25.8621L3.84897 24.6237L3.6436 24.2556L2.95119 23.9495L1.98415 23.8586L1.14118 23.6147L0.770996 22.8352L0.859331 21.8502L1.1697 21.0613L1.75711 20.5545L2.69785 20.435L2.08655 19.3163L2.88174 14.6885L3.93008 13.6608L6.61879 13.4839L7.37101 13.5939L10.1768 14.8178L11.2082 15.1334L13.1592 15.3773L14.1358 15.6115L14.981 16.0943L15.5445 16.515L15.5781 16.7302L15.5184 17.2752L15.6771 17.9019L15.6879 17.9445L16.6908 18.8863L16.9725 19.46L16.8721 19.986L16.2321 20.77L16.0745 21.253L16.1795 21.7886L16.6094 22.7497L16.6642 23.3282L17.0725 24.208L18.2092 24.1028L20.2031 23.2375L21.0316 23.1419L21.9238 23.3082L23.5962 23.62L24.6707 24.2273L25.5494 23.9308L26.4138 23.381L27.4262 23.2471L27.9038 23.2662L28.2716 23.1228L28.6155 22.9124L29.9909 22.4152L30.3203 22.4343L30.8148 22.5976L32.7368 23.2328L33.6083 23.3667L34.6422 23.2376L35.0911 22.965L35.2916 22.5347L35.4444 21.5641L35.7883 21.1337L36.3183 21.1289L37.3498 21.4397L38.4983 21.4732L39.432 21.2963L40.3013 20.7849L41.2468 19.8239L41.8629 18.9873L42.4264 18.0311L42.8659 17.0224L43.1142 16.0041L43.1353 15.4887L43.3292 10.7456L44.3298 7.25131L43.9979 3.69501L44.2989 1.32908L44.294 0.898891L44.4277 0.640742L44.9005 0.626483L45.2707 0.836854L45.587 1.10908L45.667 1.17778L46.4809 1.87834L46.839 1.93093L47.2283 1.89278L47.6724 1.90704L48.2002 2.09352L48.7637 2.52852L50.1963 4.22538L50.9555 4.88982L51.9202 5.53038L52.9803 5.94149L54.0118 5.90797L54.7998 5.36297L56.8867 2.74371L56.9822 2.41871L57.0061 1.98371L57.1709 1.67297L57.7081 1.72556L59.1504 2.42815L59.7235 2.55723L60.4685 2.52371L61.352 2.34204L62.2213 2.06L62.8852 1.72056L63.4798 1.17093L63.692 0.892039L63.8833 0.640372L64.3346 0.219815L65.0772 0L65.3017 0.11463L66.763 0.46352L66.9206 0.406112L67.1402 0.659446L67.3789 1.30945L67.6439 1.6726L70.1535 3.7326L71.6913 4.45427L73.21 4.51186Z" stroke="white" stroke-width="6" mask="url(#path-1-inside-1_479_959)"/>
</svg>
