<svg width="39" height="39" viewBox="0 0 39 39" fill="none" xmlns="http://www.w3.org/2000/svg">
<path fill-rule="evenodd" clip-rule="evenodd" d="M12.2823 13.0001C10.5927 13.0142 8.90279 13.0111 7.21309 13.0017C6.73566 12.9989 6.49913 13.1637 6.5 13.7071C6.51058 19.7662 6.50647 25.8252 6.50772 31.8842C6.50784 32.1149 6.4725 32.3683 6.75657 32.4734C6.76739 32.5103 12.724 32.508 12.7401 32.4713C13.0536 32.3493 12.9904 32.0649 12.9905 31.8193C12.9933 25.803 12.9884 19.7865 13 13.7702C13.0009 13.2242 12.814 12.9956 12.2823 13.0001Z" fill="white"/>
<path fill-rule="evenodd" clip-rule="evenodd" d="M9.74994 4.875C7.95513 4.875 6.5 6.33013 6.5 8.12494C6.5 9.91998 7.95513 11.375 9.74994 11.375C11.5449 11.375 13 9.91998 13 8.12494C13 6.33013 11.5449 4.875 9.74994 4.875Z" fill="white"/>
<path fill-rule="evenodd" clip-rule="evenodd" d="M34.0407 31.566C34.0446 28.4603 34.0604 25.3545 34.0351 22.249C34.024 20.8887 33.9752 19.5249 33.6894 18.1861C33.2207 15.9911 32.1661 14.2773 30.0712 13.4782C28.6736 12.9451 27.2124 12.9108 25.753 13.1175C24.527 13.2911 23.3976 13.7581 22.3687 14.6261C22.3687 14.3103 22.3676 14.1008 22.3689 13.8916C22.3721 13.4219 22.1535 13.2095 21.7031 13.2117C20.1025 13.2191 18.502 13.2172 16.9014 13.2129C16.4608 13.2117 16.2494 13.3936 16.25 13.8889C16.2585 19.8484 16.2553 25.8079 16.2556 31.7674C16.2556 31.996 16.2255 32.2391 16.49 32.3517C16.5179 32.3885 22.2963 32.4023 22.2961 32.3647C22.6751 32.1945 22.5585 31.8352 22.5592 31.5427C22.5645 28.6034 22.5468 25.6639 22.5627 22.7246C22.5675 21.8055 22.6014 20.8769 22.9984 20.0211C23.4688 19.007 24.4424 18.5676 25.8137 18.7474C26.7571 18.871 27.3593 19.5098 27.5468 20.6227C27.6162 21.0338 27.6681 21.4542 27.6706 21.8707C27.6889 25.1039 27.6915 28.3371 27.7049 31.5703C27.7062 31.8689 27.6166 32.2214 28.0011 32.3714C27.988 32.4139 33.8063 32.3881 33.8078 32.3471C34.1209 32.1645 34.0403 31.8462 34.0407 31.566Z" fill="white"/>
</svg>
