<svg width="10" height="14" viewBox="0 0 10 14" fill="none" xmlns="http://www.w3.org/2000/svg">
<path fill-rule="evenodd" clip-rule="evenodd" d="M5.00065 0.334091C2.77799 0.318396 0.931764 2.04491 0.79864 4.26364C0.665517 6.48236 2.29206 8.41724 4.50065 8.66742V11.5341C4.50065 11.8102 4.72451 12.0341 5.00065 12.0341C5.27679 12.0341 5.50065 11.8102 5.50065 11.5341V8.66742C7.70924 8.41724 9.33579 6.48236 9.20266 4.26364C9.06954 2.04491 7.22331 0.318396 5.00065 0.334091ZM4.56732 2.64742C3.8004 2.64741 3.17765 3.26718 3.17398 4.03409C3.17398 4.31023 2.95013 4.53409 2.67398 4.53409C2.39784 4.53409 2.17398 4.31023 2.17398 4.03409C2.17766 2.71489 3.24812 1.64742 4.56732 1.64742C4.84346 1.64742 5.06732 1.87128 5.06732 2.14742C5.06732 2.42357 4.84346 2.64742 4.56732 2.64742Z" fill="white"/>
<path d="M7.54732 9.52742C7.6745 9.28707 7.96873 9.18998 8.21398 9.30742C9.03257 9.62271 9.59769 10.3797 9.66732 11.2541C9.66732 12.7274 7.66732 13.8408 5.00065 13.8408C2.33398 13.8408 0.333984 12.7274 0.333984 11.2541C0.415812 10.3921 0.97886 9.65083 1.78732 9.34076C2.03401 9.21557 2.33547 9.31407 2.46065 9.56076C2.58584 9.80744 2.48734 10.1089 2.24065 10.2341C1.65398 10.5341 1.32065 10.9074 1.32065 11.2541C1.32065 11.9741 2.90065 12.8008 5.00732 12.8008C7.11398 12.8008 8.68732 11.9674 8.68732 11.2141C8.68732 10.8608 8.35398 10.4941 7.76732 10.1941C7.52408 10.0694 7.42609 9.77242 7.54732 9.52742Z" fill="white"/>
</svg>
