<svg width="101" height="100" viewBox="0 0 101 100" fill="none" xmlns="http://www.w3.org/2000/svg">
<mask id="path-1-inside-1_479_953" fill="white">
<path d="M30.7324 78.1715L30.5902 78.0806L29.9 77.8183L29.4715 77.533L29.4037 77.5194L29.2433 77.5359L29.1756 77.5118L29.122 77.4422L29.0933 77.302L29.0591 77.2304L28.9311 77.092L28.8146 77.0291L28.1531 76.973L27.3591 76.7989L27.012 76.7709L26.8865 76.6869L26.7537 76.4818L26.5743 76.0565L26.4731 75.9268L26.1381 75.7006L25.765 75.6078L24.5619 75.632L24.3652 75.6068L24.1791 75.5411L23.9972 75.4048L23.6574 75.0587L23.572 75.0124L23.4665 74.9552L23.3824 74.9513L23.2048 74.9939L23.118 75.0017L23.022 74.9737L22.7563 74.8191L22.5206 74.7852L22.3735 74.848L22.2404 74.9476L22.048 75.0278L21.6557 74.933L21.4678 74.5657L21.4687 74.1039L21.6424 73.7252L20.2661 73.3474L20.0513 73.3657L19.7363 73.5367L19.5474 73.6043L19.3613 73.6033L19.2048 73.5424L18.3161 72.8565L18.1028 72.5706L18.0335 72.1707L18.0344 71.822L17.9706 71.5844L17.7863 71.43L17.4313 71.3287L17.2843 71.235L17.0857 71.0052L16.9406 70.9298L16.8011 70.9193L16.6756 70.9328L16.5567 70.9213L16.4335 70.8402L16.402 70.7746L16.3715 70.6046L16.337 70.5457L16.255 70.4974L16.2254 70.51L16.2015 70.5467L16.1356 70.5728L16.0287 70.5959L15.5509 70.7668L15.4798 70.8141L15.4015 70.8411L15.2826 70.8218L15.1839 70.7476L15.0093 70.512L14.9015 70.4378H14.6791L14.5311 70.5148L14.5219 70.4941L14.5491 70.2246L14.5246 70.1174L14.4267 70.0761L14.2418 69.9194L14.2337 69.5732L14.3343 68.9931L14.1657 68.6937L13.6139 68.3474L13.4507 68.0946L13.4181 68.1111H13.4072L13.4019 68.1193L13.3856 68.1631L13.2794 68.0422L13.1707 67.7674L13.0674 67.6465L12.9369 67.5833L12.8144 67.5394L12.7248 67.4626L12.6894 67.2978L12.6948 67.2126L12.703 67.1768L12.7057 67.1439L12.6894 67.0752L12.665 67.0422L12.6243 66.9956L12.5835 66.9324L12.5428 66.7511L12.4911 66.6631L12.4639 66.5643L12.4993 66.4296H12.5672L12.5781 66.4681L12.6189 66.5587L12.6652 66.3994L12.6407 66.2209L12.5756 66.0561L12.4994 65.9215L12.35 66.012L12.3093 66.0478L12.2141 65.8913L12.157 65.7046L12.1272 65.312L12.0946 65.1939L11.9043 64.8946L11.8063 64.7683L11.6052 64.6037L11.5237 64.5048L11.4557 64.1781L11.3633 64.0518L11.1404 63.8461L10.6348 62.4083L10.5315 62.3507L10.4643 62.2222L10.4098 62.0713L10.3554 61.9589L10.2602 61.8848L10.0102 61.7668L9.90963 61.6983L9.84166 61.5639L9.79278 61.3939L9.71389 61.2513L9.55889 61.1881L9.51278 61.0757L9.14574 60.4313L9.29519 60.1105L9.34407 59.9324L9.24074 59.853L9.24611 59.7652L9.36852 59.3265L9.39833 59.1537L9.33852 58.7919L8.94981 57.9394L8.84926 57.608L8.80037 57.5587L8.67537 57.5148L8.6563 57.4189L8.68352 57.3202L8.70518 57.2681L8.66982 57.1011L8.57463 56.9367L8.44963 56.8024L8.32185 56.7257L8.38444 56.6161L8.43333 56.627L8.48222 56.6872L8.54481 56.7256H8.80037L8.92815 56.6489L8.93907 56.4681L8.9037 56.2544L8.89278 56.0846L8.93352 56.0217L9.05574 55.9148L9.08296 55.8656V55.4848L8.97148 55.2959L8.50926 55.0002L8.44667 54.8743L8.22926 54.7318L7.62296 54.0474L7.46518 53.6833L7.39722 53.4506L7.41074 53.3493L7.06555 52.9031L6.85889 52.4131L6.77741 52.3337L6.61704 52.2872L6.45667 52.175L5.51333 51.272L5.41537 51.0859L5.36092 50.9081L5.22222 50.7631L5.03741 50.6593L4.84166 50.6072L4.42296 50.6181L4.03148 50.7304L3.32204 51.1217L3.31666 50.9028L3.20518 50.7743L2.87889 50.6074L2.43296 50.2272L1.61463 49.207L1.51685 49.0102L1.45166 48.9281L1.23426 48.8652L1.13907 48.7941L1.09556 48.6983L1.14185 48.6054L1.24796 48.4385L1.28333 48.2252L1.22074 47.6017L1.24241 47.0111L1.305 46.8252L1.46 46.5928L1.64481 46.385L1.80796 46.2783L1.89759 46.2839L2.05537 46.385L2.15593 46.4096L2.22667 46.3741L2.83018 45.8083L3.03944 45.6907L3.25963 45.6443L3.25685 45.4667L3.31666 45.125L3.32204 44.9393L3.23222 44.5157L2.24278 42.322L2.06056 42.0844L1.63648 41.6885L1.44889 41.4291L1.36741 41.1287L1.4 40.9239L1.47889 40.7054L1.59037 40.4978L1.71 40.3367L1.76444 40.1783L1.77796 39.9407L1.76444 39.7169L1.74 39.6022L1.80796 39.5776L1.83518 39.5585L1.865 39.5641L1.93296 39.6022L1.97092 39.482L1.90833 39.2937L1.96537 39.1872L2.03611 39.1026L2.03889 39.0426L2.01444 38.9744L1.99815 38.8707L1.97092 38.838L1.91648 38.8407L1.87018 38.8326V38.7726L1.90278 38.7317L1.94074 38.7235H1.97611L1.99778 38.7098L2.03037 38.658L2.06574 38.6224L2.10111 38.5678L2.12296 38.4613L2.11759 38.2457L2.06056 38.0302L1.96278 37.8337L1.73981 37.5444L1.68278 37.3752L1.72093 37.3015L1.74259 37.2443L1.73981 37.1896L1.69629 37.1406L1.64463 37.1352L1.59296 37.138L1.55759 37.1215L1.40815 36.9222L1.31852 36.8431L1.1363 36.7913L0.891667 36.6876L0.826481 36.6522L0.75574 36.5648L0.714999 36.4911L0.657962 36.423L0.541111 36.3574L0.448702 36.3274L0.165925 36.3002L0 36.243V36.1802L0.255554 35.9509L0.260925 35.8909L0.209257 35.82L0.141296 35.7435L0.0950001 35.667L0.0814819 35.5743L0.0868508 34.9113L0.521851 32.5848L0.564999 32.0387L0.870926 32.1109L1.24796 32.1406L1.29 32.1569L1.39648 32.0744L1.42463 31.97L1.42944 31.8504L1.46389 31.7193L1.52204 31.6646L1.67963 31.5909L1.72741 31.5115L1.74704 31.3602L1.7637 31.3276L1.91352 31.2357L2.01185 31.2481L2.11204 31.2989L2.26666 31.3248L2.34778 31.297L2.83833 31.0663L3.16944 30.7552L3.48629 30.5752L3.57981 30.4996L3.785 30.3839L3.90148 30.2365L4.13722 29.6719L4.23259 29.5341L4.86166 29.0096L5.14037 28.67L5.35704 28.2948L5.38129 28.2363L5.525 27.8891L5.68537 27.2222L5.79611 27.0328L6.28092 26.5354L6.63593 25.9213L6.86926 25.772L7.28111 25.9069L7.31259 25.7443L7.28389 25.5998L7.23148 25.4572L7.19241 25.3013L7.20259 25.1293L7.20296 25.1224L7.26778 24.9559L7.6487 24.3563L7.71796 24.1841L7.72129 24.0148L7.69926 23.8293L7.74944 23.7183L8.00667 23.5337L8.02963 23.4965L8.06407 23.3874L8.08796 23.3587L8.24166 23.3357L8.25981 23.3376L8.26463 23.3548L8.44129 23.3406L8.45129 23.3206L8.46704 23.2402L8.4813 23.2172L8.72704 23.1607L8.79055 23.1378L8.86407 23.0737L8.98444 22.9302L9.41778 22.7285L9.66018 22.4933L9.67203 22.2467L9.39333 22.0944L9.32889 22.0593L9.4987 21.8546L9.67296 21.692L9.87667 21.5659L10.1291 21.4704L10.2426 21.4561L10.3328 21.4054L10.392 21.3222L10.4202 21.2122L10.6646 21.3337L10.9209 21.305L11.1433 21.153L11.2828 20.9044L11.278 20.8509L11.2369 20.6865L11.232 20.6185L11.3628 20.432L11.443 20.2113L11.4593 20.0956L11.4498 19.9789L11.4117 19.913L11.2919 19.825L11.2589 19.7552L11.2665 19.7017L11.3104 19.5783L11.3089 19.5296L11.2178 19.4015L10.9906 19.1874L10.9448 19.0517L11.0059 18.9044L11.2919 18.5746L11.3194 18.5252L11.3811 18.415L11.1654 18.4131L10.7339 18.5335L10.5181 18.5526L10.3965 18.5163L10.185 18.3778L10.0715 18.3357L9.95741 18.3433L9.86537 18.3796L9.76889 18.4035L9.64574 18.3767L9.62093 18.3365L9.59518 18.1854L9.5713 18.1291L9.53111 18.1022L9.40889 18.0506L8.80907 17.6913L8.73407 17.6789L8.60519 17.7267L8.49537 17.8174L8.31259 18.0696L8.26815 18.0907L8.26704 18.0872L8.22815 17.9722L8.14796 17.893L8.09444 17.8194L8.13648 17.7181L7.96852 17.6722L7.82815 17.5404L7.59722 17.2413L7.57722 17.0817L7.68315 16.8763L7.88444 16.6039L7.88778 16.3689L7.91778 16.2256L7.99222 16.1043L8.52333 15.5463L8.58296 15.3715L8.37111 15.4498L8.04 15.6007L7.84537 15.6648L7.66593 15.663L7.56333 15.5635L7.59907 15.3361L7.67444 15.2215L7.895 15.0122L7.9837 14.8967L8.02389 14.7993L8.09926 14.5059L8.44963 13.6528L8.57333 13.4569L8.87926 13.0719L9.05778 12.9669L9.25444 12.9917L9.45481 13.0491L9.64815 13.0385L9.75167 12.9517L9.88333 12.7033L9.98926 12.6202L10.1085 12.6039L10.2078 12.6354L10.6898 12.8733L10.7652 12.8915L10.8493 12.8685L10.9161 12.8304L11.045 12.7989L11.1878 12.7167L11.3428 12.648L11.463 12.5611L11.5583 12.3881L11.5974 12.2L11.5583 11.5676L11.6385 11.1607L11.9563 10.132L11.8791 9.8637L11.7802 9.73L11.6394 9.5887L11.473 9.50556L11.3002 9.54278L11.4219 9.005L11.3941 8.76056L11.1172 8.71667L11.163 8.64222L11.2193 8.58204L11.3691 8.46463L11.2985 8.29944L11.3506 8.15722L11.4446 8.0187L11.4952 7.86204L11.4217 7.49148L11.3893 7.39407L11.4952 7.14L11.4722 7.055L11.3902 6.92889L11.3693 6.88111L11.3722 6.78185L11.4915 6.05333L11.4991 5.81556L11.4319 5.61981L11.2124 5.70389L11.0678 5.59019L10.9791 5.38204L10.8894 5.04981L10.8483 4.97907L10.7339 4.85685L10.5811 4.65259L10.5263 4.53222L10.5756 4.4787L10.6043 4.36981L10.6215 4.12926L10.5691 3.88778L10.3896 3.77889L10.2083 3.75315L9.59833 3.52685L9.51333 3.47537L9.375 3.34352L9.27759 3.27481L9.00555 3.16222L8.88629 3.07241L8.83667 2.92444L8.84611 2.85574L8.86796 2.8013L8.88889 2.76111L8.89796 2.73241L8.87944 2.65704L8.79352 2.54537L8.73907 2.35722L8.57111 2.07852L8.51481 1.94389L8.47852 1.70519L8.43944 1.64796L8.32592 1.56593L8.28778 1.57648L8.22759 1.60889L8.15407 1.62037L8.07296 1.56593L8.05778 1.51056L8.08259 1.45519L8.11741 1.40259L8.13704 1.34815L8.10648 1.22222L7.97185 1.12963L7.9413 1.03037L7.97056 0.925926L8.04167 0.824629L8.11481 0.748148L8.12555 0.736852L8.2 0.676666L8.31444 0.687222L8.38315 0.732963L8.43092 0.784444L8.48296 0.808334L8.59407 0.799815L8.76593 0.759815L9.23167 0.716852L9.43296 0.738889L9.65537 0.808519L9.77278 0.711111L10.103 0.361667L10.2367 0.292037L10.587 0.181296L10.9346 0L11.2611 0.0820372L11.4081 0.154629H12.0046H13.6959H15.3863H15.5833H17.0772H18.7681H20.2217L20.0769 0.404074L20.0904 0.57L20.21 0.640741L20.4085 0.551111L20.5091 0.499444L20.577 0.328148L20.608 0.155H20.7333L20.7346 0.167778L20.7318 0.268333L20.7509 0.35537L20.8054 0.358148L20.8761 0.325555L20.9522 0.303889L21.0637 0.358333L21.0011 0.483333L20.8787 0.611111L20.7944 0.676296L20.8543 0.825741L20.857 0.937222L20.8461 1.0487L20.8515 1.17926L20.9004 1.29352L20.9737 1.41037L21.0281 1.51648L21.0146 1.59796L20.9222 1.81556L20.8515 2.69926L20.77 2.96574L20.5743 3.34093L20.5172 3.73259L20.4302 3.93648L20.4085 4.06148V4.34426L20.3922 4.48019L20.3487 4.60259L19.9681 4.43407L19.9083 4.69241L19.9437 5.09759L19.8431 5.3613L20.0198 5.64148L19.9572 5.8563L19.7913 6.07667L19.6472 6.37593L19.5657 7.11018L19.4433 7.3713L19.3998 7.51815L19.3128 8.1437L19.215 8.39944L18.8181 8.88907L18.7039 9.13111L18.6494 9.40315L18.6359 9.72963L18.7311 9.74592L18.7746 9.69963L18.8044 9.63426L18.8589 9.60426L18.9513 9.61241L19.0057 9.62333L19.0574 9.62611L19.1444 9.60426L19.2206 9.54981L19.2776 9.47907L19.3591 9.42463L19.5222 9.4137L19.4161 9.68019L19.3917 9.80537L19.3454 9.87333L19.3319 9.91963L19.3509 9.95778L19.4433 10.0313L19.465 10.0776L19.4378 10.1809L19.3128 10.3441L19.2774 10.4311L19.2883 10.5128L19.3807 10.6161L19.3998 10.6815L19.2259 11.0569L19.1743 11.1248L19.2015 11.2119L19.0167 11.7613L19.022 12.0333L18.9894 12.1069L18.8943 12.2211L18.848 12.2919L18.8289 12.3598L18.8261 12.542L18.8452 12.6617L18.9185 12.7133L19.0817 12.708L19.3181 12.5965L19.4948 12.4359L19.6906 12.3298L19.9678 12.3869L19.9296 12.4848L19.9052 12.523L20.0439 12.5856L20.1254 12.6726L20.1144 12.7298L19.9676 12.708L19.9757 12.8902L20.0056 13.0017L20.1578 13.2167L20.2856 13.2548L20.3454 13.2956L20.2828 13.4424L20.3018 13.5104L20.3372 13.5783L20.3481 13.6463L20.2993 13.7659L20.2231 13.8776L20.1144 13.9702L19.9676 14.0381L19.8263 14.0491L19.7039 14.0354L19.6224 14.0598L19.5898 14.1904L19.6387 14.3509L19.7474 14.4L19.8561 14.4244L19.905 14.5143V15.0204L19.962 15.0993L20.0952 15.0802L20.378 14.9904L20.6552 14.9876L20.8074 14.9657L20.9189 14.9222L20.8944 15.0746L20.813 15.0909L20.7069 15.0528H20.6035L20.5572 15.08L20.5381 15.0991L20.5354 15.1372V15.208L20.5272 15.2841L20.5028 15.295L20.4648 15.2841L20.3615 15.3194L20.2419 15.3113L20.1902 15.3357L20.1357 15.4146V15.4691L20.1548 15.5126L20.1576 15.5507L20.0433 15.7711L20.0189 15.9426L20.008 15.9861L20.0324 15.9998L20.2037 15.997L20.2554 16.0107L20.2826 16.0761L20.2907 16.2231L20.2174 16.6776L20.2228 16.9007L20.3478 17.0776L20.4728 17.0096L20.6141 16.8954L20.7337 16.762L20.7935 16.6369L20.7691 16.517L20.6467 16.1904L20.6331 16.125L20.663 16.0978L20.6494 16.0324L20.6031 15.9072L20.6248 15.812L20.6765 15.7576L20.7444 15.7169L20.8233 15.6515L20.9157 15.6352L21.0109 15.7222L21.068 15.8611L21.0463 15.9998L21.1931 15.9535L21.3617 15.9372L21.3263 15.8365L21.2965 15.5398L21.2993 15.4309L21.2857 15.363L21.2531 15.3248L21.2422 15.2922L21.2993 15.2378L21.3456 15.235L21.3646 15.2948L21.3618 15.4309L21.5983 15.363L21.6609 15.4854L21.6474 15.6594V15.7465L21.8567 15.7981L21.9083 15.9287L21.9056 16.1137L21.9354 16.3206L22.0496 16.4457L22.2181 16.4702L22.3704 16.3941L22.4383 16.2226L22.403 16.1356L22.2344 15.9967L22.18 15.9369L22.1746 15.8633L22.1881 15.6865L22.18 15.6211L22.1393 15.5748L22.0767 15.5341L22.0168 15.4633L21.968 15.2593L21.9081 15.1641L21.8374 15.0852L21.7722 15.0526L21.6961 15.0335L21.6335 14.9872L21.6009 14.9246L21.62 14.862L21.6826 14.813L21.7506 14.8048L21.8294 14.8076L21.9354 14.7939L21.987 14.7993L22.0224 14.8293H22.0685L22.1528 14.7639L22.1744 14.7231L22.1854 14.6715L22.1826 14.6252L22.1528 14.6033L22.1202 14.557L22.1556 14.3311L22.1528 14.255L22.0957 14.0619L22.1719 13.9041L22.2943 13.8687L22.3757 14.0374H22.4383L22.4356 13.9422L22.4465 13.8661L22.4681 13.7926L22.5007 13.7165L22.5552 13.8335L22.7672 14.073L22.8731 14.2198L22.9004 14.1519L22.9194 14.1328L22.9141 14.1109L22.8733 14.0374L22.9467 14.0156L23.0281 14.0183L23.1096 14.0483L23.1911 14.1L23.1667 14.1844L23.2265 14.2743L23.3298 14.3259L23.4467 14.2906L23.5065 14.4702L23.5037 14.5463L23.675 14.4593L23.7131 14.3206L23.7267 14.1819L23.83 14.1002L23.7674 13.9559L23.6804 13.8824L23.577 13.8252L23.4276 13.7109L23.2889 13.6565L23.2237 13.6183L23.1911 13.5667L23.172 13.4524L23.1313 13.3952L23.047 13.3598L22.9409 13.338L22.8539 13.2917L22.8157 13.1828L22.8211 13.0522L22.8402 12.9326L22.8781 12.8346L22.9433 12.7639L22.9841 12.783L23.3267 12.7965L23.362 12.8972L23.4544 12.9598L23.5769 12.9817L23.6993 12.9572L23.8652 12.7913L24.1017 12.3396L24.273 12.3343L24.3056 12.0404L24.2946 11.888L24.2376 11.8226L24.2022 11.7926L24.205 11.7354L24.2485 11.6865L24.33 11.6974L24.3598 11.7381L24.4168 11.8959L24.4604 11.9476L24.6154 11.9911L24.7241 11.9611L24.8193 11.9067L24.9335 11.8794L25.0504 11.8741L25.0885 11.8794L25.2624 12.2848L25.3494 12.3556L25.5044 12.3856L25.5615 12.4074L25.5207 12.4509L25.4065 12.5217L25.4146 12.4891L25.3576 12.4619L25.2761 12.4456L25.2191 12.4537L25.1837 12.6387L25.3496 12.87L25.5617 13.0985L25.5344 13.2156L25.6569 13.3624L25.877 13.4031L26.3011 13.395L26.2848 13.4385L26.255 13.5446L26.2333 13.5881L26.3367 13.5828L26.4344 13.5856L26.5296 13.6074L26.6167 13.6456L26.69 13.5776L26.7715 13.5804L26.8504 13.6376L26.9319 13.7165L27.008 13.6185L27.1956 13.4961L27.2472 13.3954H27.3124L27.3396 13.5315L27.3343 13.6811L27.2935 13.8254L27.2174 13.9424L27.057 14.0785L26.9944 14.1574L26.8639 14.4159L27.0731 14.4785L27.3015 14.3452L27.9974 13.6867L28.0491 13.5587L28.0681 13.3656L28.0926 13.2704L28.1552 13.1152L28.2367 12.9628L28.3181 12.8839L28.3752 13.0798L28.3806 13.2322L28.4104 13.3791L28.5435 13.5613L28.6441 13.7437L28.6006 13.8933L28.5054 14.0294L28.4456 14.1574L28.5733 14.092L28.9539 13.847L29.0109 13.9096L28.9893 13.9776L29.0137 14.1681L29.0109 14.2906L29.1224 14.2007L29.2665 13.9857L29.397 13.9096L29.5031 13.945L29.6635 13.8524L29.745 13.8796L29.8076 13.9641L29.8402 14.0294L29.8783 14.0757L29.9626 14.1002V14.1574L29.9 14.2691L29.8048 14.3533L29.7287 14.4513L29.7124 14.6037L29.813 14.5793L29.8837 14.6119L29.93 14.688L29.9626 14.7941L29.7641 14.8185L29.7613 14.9491L29.813 15.1287L29.7748 15.3056L29.7231 15.2756L29.5844 15.2374L29.6333 15.4007L29.6687 15.4769L29.7122 15.5504L29.7774 15.5096L29.8507 15.5206L30.0274 15.6213L29.8643 15.7683L29.8263 15.8881L29.9296 15.9698L30.188 15.9998L30.2885 16.1059L30.2233 16.3428L30.0276 16.6993L30.0248 16.8163L30.0574 16.917L30.052 16.9878L29.6687 17.0694L29.5518 17.0776L29.4457 17.102L29.1439 17.2681L28.9265 17.3417L28.8802 17.407L28.9535 17.5268L29.1113 17.4778L29.2907 17.5594L29.5843 17.78V17.8426L29.3341 17.8561L29.2661 17.9487L29.2689 18.0739L29.2363 18.1856L29.1411 18.327L29.1113 18.4741L29.133 18.613L29.2037 18.7246H29.2717L29.345 18.6076L29.6494 18.3407L29.7011 18.2509L29.8452 17.8998L29.818 17.78L29.8478 17.5813L29.913 17.3772L29.9944 17.2383L30.1739 17.1241L30.3315 17.0587L30.4539 16.9661L30.53 16.762H30.6007L30.6117 16.9907L30.7013 17.1378L30.8507 17.2413L31.3835 17.4863L31.5657 17.538L31.6772 17.527L31.7207 17.4672L31.7317 17.3993L31.7181 17.3285L31.6774 17.2687L31.555 17.1843L31.4654 17.1896L31.3865 17.2222L31.2994 17.2113L31.1717 17.1433L31.1663 17.108L31.1798 16.9856L31.1717 16.953L31.0928 16.9367L30.7883 16.953L30.8672 16.7843L30.9815 16.7054L31.0441 16.6374L30.9789 16.5094L30.93 16.4822L30.7778 16.4169L30.7261 16.3843L30.6907 16.3326L30.6391 16.1965L30.6009 16.1257L30.5411 16.0631L30.3833 15.9189L30.348 15.8807L30.3615 15.7556L30.4294 15.7202L30.4974 15.7311L30.53 15.7474L30.5952 15.6685L30.625 15.6467L30.6087 15.6113L30.5298 15.4943L30.4917 15.4589L30.3176 15.3365L30.2578 15.233L30.2143 15.0752L30.2196 14.9281L30.3176 14.8628L30.3257 14.792L30.5431 14.49L30.6002 14.4493L30.5513 14.2915L30.3339 14.0602L30.285 13.9431L30.3041 13.7798L30.3667 13.6872L30.4672 13.6681L30.6004 13.717L30.565 13.4204L30.7824 13.1509L31.1169 12.9578L31.4539 12.8843L32.2043 12.9631L32.5631 13.0665L32.5604 13.2161L32.6337 13.3331L32.7398 13.5507L32.8187 13.6459L32.8568 13.6513L33.0309 13.703L33.0363 13.7165L33.0689 13.7465L33.0607 13.8798L33.0989 13.9098L33.175 13.9452L33.3789 14.1085L33.5067 14.1574L33.6207 14.1546L34.1046 14.092L34.3302 14.0376L34.3765 14.0676L34.4444 14.122L34.507 14.1439L34.5478 14.0106L34.5859 13.967L34.643 13.948L34.7109 13.9752L34.7244 14.0296L34.7028 14.1167L34.6702 14.1956L34.6457 14.22L34.76 14.2798L34.9069 14.2907L35.0346 14.2744L35.0891 14.2554L35.1026 14.3969L35.1543 14.4704L35.2522 14.4922L35.4098 14.4787L35.3663 14.4107L35.3472 14.3509L35.3581 14.2883L35.4098 14.2204L35.5241 14.2776L35.6246 14.2394L35.698 14.1387L35.7252 14.0054L35.6763 13.9319L35.3474 13.7794L35.225 13.6924V13.687H35.312L35.5485 13.5483L35.7606 13.4748L35.8557 13.3959L36.0189 13.513L36.22 13.5157L36.3559 13.4369L36.3287 13.3063L36.2689 13.26L36.2172 13.2356L36.1846 13.1974L36.1711 13.1157L36.2065 13.0422L36.2854 12.947L36.3778 12.8681L36.4539 12.8328L36.6089 12.8083L36.9785 12.6641L37.1172 12.5796L37.3157 12.3157L37.4517 12.2178L37.6283 12.2641L37.9437 12.0193L38.0687 11.9485L38.4793 11.8615L38.5744 11.7772L38.6696 11.7609L39.2052 11.4072L39.1861 11.3146L39.1426 11.2602L39.0991 11.222L39.0774 11.192L39.0856 11.105L39.1372 10.9581L39.14 10.8711L38.9959 10.5067L38.7241 10.2456L38.3815 10.1613L38.0389 10.3354L37.6176 10.64L37.5306 10.6807L37.3918 10.7243L37.2696 10.8304L37.0548 11.0589L36.6906 10.8767L36.1659 10.7843L35.6113 10.7652L35.1572 10.8087L34.9017 10.9039L34.7685 10.9176L34.7115 10.8387L34.6707 10.7191L34.5702 10.6239L34.3309 10.4933L34.07 10.3954H33.858L33.6731 10.4933L33.5074 10.6811L33.4341 10.5722L33.4015 10.5069L33.3798 10.4307L33.3907 10.3328L33.4722 10.205L33.5076 10.107L33.5048 10.0391L33.4857 9.94111L33.4667 9.86222H33.445L33.4831 9.76426L33.5022 9.75333L33.5239 9.78056L33.5702 9.79148L33.8285 9.80518V9.79148L34.0568 9.85407L34.103 9.88944L34.1656 9.78889L34.1628 9.66111L34.092 9.54407L33.9533 9.47611L34.062 9.37278L34.2033 9.47352L34.3283 9.65574L34.3963 9.79167H34.4589L34.4561 9.52241L34.6056 9.54407L34.967 9.86241L34.9943 9.79444L35.0268 9.76444L35.1574 9.72907L34.8991 9.35093L35.1546 9.11148L35.4456 9.19574L36.0463 9.6037L36.4731 9.60648L36.5465 9.63648L36.6063 9.50593L36.7178 9.38352L36.7559 9.25018L36.6146 9.09241L36.5413 9.13315L36.5141 9.1413L36.4896 9.12222L36.4189 9.09222L36.4543 9.07593H36.4652L36.4706 9.06778L36.4869 9.02963L36.1198 8.93981L35.7256 8.90444L35.973 8.74389L35.9893 8.69222L35.9159 8.58889L35.7174 8.45833L35.6657 8.385L35.7256 8.27352L35.6087 8.25722L35.5054 8.26259L35.4346 8.30611L35.4102 8.39852L35.0867 8.41759L34.7196 8.67333L34.3635 8.85556L34.0754 8.65148L34.2983 8.51278L34.3309 8.49648L34.3281 8.36056L34.3363 8.29259L34.4287 8.12944L34.5211 7.86556L34.5837 7.76222L34.8337 7.56093L35.0485 7.50926L35.5976 7.51741L35.5296 7.75667L35.6248 7.86537L35.8096 7.89259L36.0107 7.88722L36.1276 7.84907L36.22 7.76481L36.288 7.68055L36.3287 7.64241L36.4565 7.63704L36.5407 7.60982L36.6059 7.55278L36.6767 7.45222L36.7148 7.33519L36.6985 7.25907L36.7013 7.20204L36.8019 7.13667L36.8235 7.16111L37.117 7.23185L37.1659 7.29444L37.2746 7.32167L37.3833 7.29167L37.4322 7.16926L37.3833 7.12296L37.1387 6.95426L37.0544 6.87815L36.9918 6.94889L36.9076 6.81019L36.8559 6.74481L36.8015 6.69037L36.603 6.56259L36.5459 6.50555L36.478 6.36963L36.5324 6.33981L36.8668 6.37519L37.813 6.36982L37.8837 6.35352L37.9435 6.31815L38.0061 6.22833L38.0306 6.11944L38.0115 6.01333L37.9435 5.93167L37.8593 5.97796L37.7804 5.98611L37.707 5.96981L37.6281 5.93167L37.7341 5.85278L37.7911 5.83648L37.8128 5.81463L37.8181 5.7113L37.8046 5.65148L37.6904 5.49093L37.5817 5.53167L37.5002 5.5263L37.4485 5.46926L37.4322 5.36056L37.3426 5.40407L37.2556 5.42037L37.1794 5.40685L37.1169 5.36056L37.2474 5.26259L37.3887 5.25167L37.53 5.25704L37.6606 5.20259L37.753 5.07204L37.7965 4.92519L37.7639 4.83L37.628 4.85444L37.5735 4.75648L37.4893 4.675L37.4404 4.58518L37.5002 4.47648L37.6252 4.41944L37.7502 4.43852L37.9431 4.5337L37.9785 4.56352L38.022 4.60704L38.0791 4.64778L38.1633 4.66685L38.2448 4.64778L38.3672 4.55796L38.4406 4.53352L38.5874 4.54704L38.7043 4.58241L38.7857 4.57963L38.8265 4.4763L38.9433 4.585L39.0031 4.73185L39.0765 4.86241L39.2343 4.91685L39.498 4.9087L39.5822 4.91685L39.6693 4.94407L39.8161 5.02019L39.8976 5.04463L39.9411 5.02556L39.9874 4.98204L40.0228 4.93574L40.0281 4.91667L40.077 4.92204L40.1422 4.9737L40.1857 4.98463L40.2619 4.96556L40.2891 4.91926L40.2619 4.87574L40.1857 4.85389L40.1667 4.81852L40.1422 4.73963L40.1041 4.65537L40.028 4.60093H39.9437L39.8567 4.63352L39.7154 4.72593L39.7207 4.61981L39.6881 4.56537L39.582 4.47556L39.5494 4.46463L39.5059 4.47556L39.4706 4.47833L39.3917 4.28518L39.3265 4.21167L39.3102 4.16815L39.2857 4.13278L39.2043 4.09204L39.1281 4.07852L38.965 4.09759L38.8889 4.09222L38.7665 4.02148L38.6769 3.91278V3.8013L38.8263 3.71148L39.3917 3.90185L39.3372 3.8013L39.253 3.70889L39.1443 3.66815L39.0137 3.71167L39.03 3.65722L39.0328 3.63278L39.0381 3.61648L39.0763 3.58648L38.8398 3.34981L38.78 3.21667L38.8887 3.08074L39.0463 3.14333L39.6144 3.08074L39.8211 3.09167L39.9163 3.12167L40.0848 3.21963L40.2724 3.24148L40.3431 3.2713L40.4709 3.3963L40.4411 3.41259L40.4113 3.47518L40.395 3.54593L40.4085 3.58667L40.5063 3.60296L40.5633 3.54593L40.5906 3.45352L40.5959 3.3637L40.5361 3.20593L40.3893 3.05093L40.2017 2.93407L40.0276 2.88778V2.83074L40.0467 2.80093L40.0657 2.74111L40.0848 2.69759H40.0278L39.8539 2.76833L39.6419 2.695L39.525 2.49389L39.6446 2.19204L39.7778 2.05889L39.9165 1.96648L40.2183 1.82241L40.357 1.72444L40.6289 1.4063L40.6072 1.31648L40.512 1.19963L40.4713 1.10167L40.6289 1.05815L40.8463 1.06907L40.9115 1.05815L40.955 1.01463L40.9767 0.949444L41.0065 0.88963L41.0717 0.865185L41.3598 0.674815L41.38 0.614259L41.8728 0.88963L43.8552 1.99704L45.8385 3.10352L47.3346 3.93944L47.8209 4.21111L49.8033 5.31778L51.7867 6.42537L52.2057 6.65926L53.7691 7.53204L55.7506 8.63981L57.733 9.74759L59.7154 10.8556L61.6968 11.9635L63.6802 13.0707L65.6626 14.178L67.645 15.2863L69.6274 16.3937L71.6107 17.5022L72.318 17.8978L73.5931 18.6109L74.3557 19.0372L74.497 19.2646L74.6602 20.2674L74.6802 20.3893L74.8654 21.5198L74.6974 21.5322L74.6057 21.6115L74.5733 21.7406L74.5867 21.9059L74.412 21.9193L74.1924 22.0368L73.9863 22.2004L73.8517 22.3494L73.8048 22.4317L73.7609 22.535L73.737 22.643L73.7513 22.7406L73.8181 22.8085L73.97 22.8276L74.0169 22.9004L73.9796 23.0533L73.9061 23.2341L73.9328 23.3613L74.3746 23.3356L74.5722 23.3528L74.7668 23.4044L74.9415 23.4885L75.0704 23.607L75.14 23.7496L75.3004 24.3196L75.393 24.5091L75.52 24.6756L76.023 25.037L76.8113 25.6061L77.5987 26.1754L78.3881 26.7446L79.1756 27.313L79.963 27.8822L80.7524 28.4506L81.4787 28.9757L81.5398 29.02L82.3293 29.5885L83.1167 30.157L83.9041 30.7265L84.6935 31.2961L85.4818 31.8648L86.2702 32.4344L87.0585 33.0041L87.8469 33.5728L88.6304 34.1398L88.6935 34.1978L88.8567 34.243L88.9161 34.5031L88.8657 34.8033L88.6937 34.9624L88.442 35.0891L88.6457 35.1713L88.7848 35.1833L88.8652 35.2346L88.8885 35.4398L88.8772 35.6367L88.8426 35.7972L88.7824 35.945L88.4878 36.4467L88.3691 36.5598L88.3157 36.4241L88.3472 36.2407L88.4067 36.0613L88.4367 35.8856L88.3789 35.7226L88.2157 36.2L88.0744 36.3698L87.8737 36.3556L88.0337 36.6044L88.0585 36.6965L88.0907 37.223L88.063 37.3157L87.9998 37.3557L87.8563 37.3106L87.7767 37.3452L87.742 37.392L87.6504 37.5717L87.6346 37.6983L87.7676 37.6907L88.063 37.5693L88.0696 37.7089L88.1711 37.9315L88.1883 38.0176L88.1507 38.0856L87.7991 38.3933L87.7389 38.4726L87.5556 38.8559L87.273 39.2815L87.243 39.348L87.3152 39.4159L87.4159 39.3389L87.5587 39.1578L87.6143 39.2717L87.2144 40.4348L87.1137 40.6387L86.9852 40.8107L86.8881 40.875L86.7815 40.927L86.6972 40.9994L86.6694 41.1263L86.7093 41.2048L86.7822 41.2396L86.8461 41.2963L86.8589 41.4435L86.7348 41.812L86.4687 42.3565L86.1463 42.845L85.8441 43.0383L85.9704 43.0957L85.9094 43.2876L85.9019 43.7196L85.8124 43.8918L85.6952 44.0398L85.5276 44.3843L85.3232 44.6948L85.257 44.895L85.2224 45.1119L85.2194 45.7102L85.1804 45.8009L85.1202 45.8652L85.0683 45.9461L85.0322 46.033L85.0256 46.0639L84.9759 46.3004L84.888 46.4893L84.8196 46.6918L84.8294 46.9163L84.8633 46.9759L84.9783 47.1089L85.0189 47.1702L85.1068 47.5278L85.1452 47.62L85.1993 47.6737L85.403 47.8044L85.5472 47.9268L85.5637 47.9843L85.5998 48.335L85.5772 48.558L85.5126 48.7583L85.4028 48.8937L85.4733 49.125L85.505 49.6459L85.6207 49.8774L85.7215 49.9507L85.835 50.0096L85.9304 50.0731L85.9702 50.1631L85.9844 50.263L86.025 50.3674L86.0852 50.4635L86.1596 50.543L86.213 50.5815L86.2596 50.6004L86.3805 50.6065L86.4437 50.6337L86.4752 50.6943L86.5015 50.7593L86.5435 50.8031L86.66 50.8243L86.9163 50.838L87.0163 50.8954L87.1102 50.9309L87.2102 50.8954L87.2011 50.8213L87.1207 50.7857L86.972 50.7274L86.7902 50.6063L87.0548 50.688L87.2472 50.7743L87.7583 51.2598L88.0628 51.6274L88.3063 51.8022L88.3785 51.8817L88.5176 52.1207L88.5994 52.2063L88.7565 52.3009L88.8346 52.3698L88.8963 52.475L88.9331 52.5961L88.9459 52.7141L89.0031 52.9456L89.1407 53.1998L89.3076 53.3239L89.4565 53.1635L89.497 53.433L89.4543 53.7956L89.4587 54.1248L89.6452 54.3004L89.6391 54.1307L89.6241 54.0589L89.5828 53.9824L89.7518 53.993L89.8856 54.0452L90.1487 54.2048L90.29 54.2426L90.5696 54.2676L90.6854 54.3318L90.8222 54.3811L91.1604 54.3774L91.2265 54.4304L91.2656 54.5583L91.4354 54.7831L91.5128 55.058L91.9546 55.6439L91.9839 55.7083L91.9733 55.7985L91.9283 55.8554L91.8802 55.9039L91.8576 55.963L91.9365 56.5567L91.9267 56.802L91.7883 56.7891L91.6952 56.9072L91.6252 57.1594L91.5711 57.2685L91.4681 57.3504L91.3809 57.3481L91.3148 57.2656L91.2833 57.1072L90.8955 57.3791L90.885 57.3928L90.8113 57.4913L90.7594 57.6572L90.7376 57.8065L90.697 57.9435L90.5904 58.0715L90.4709 58.1661L90.4131 58.1896L90.3357 58.1987L90.2635 58.2276L90.2726 58.2972L90.3139 58.3798L90.3394 58.4526L90.2854 58.558L90.1576 58.5822L90.0111 58.5731L89.8976 58.58L89.9878 58.73L90.0794 58.8339L90.1419 58.9528L90.1426 59.1528L90.102 59.2893L90.0202 59.4802L89.9217 59.6507L89.6774 59.8767L89.57 60.2283L89.4076 61.2548L89.4181 61.4459L89.4565 61.6385L89.5744 61.9372L89.6059 62.1117L89.5511 62.2513L89.5196 62.3833L89.6594 62.7239L89.6144 62.8878L89.2033 63.3694L89.4859 63.3065L89.6874 63.0752L89.8196 62.7657L89.8978 62.4654L90.0406 62.583L90.1511 62.7096L90.1646 62.8431L90.0181 62.9811L90.3654 62.947L90.5231 62.9644L90.6856 63.0789L90.9367 63.3246L90.9667 63.4559L90.9065 63.6867L90.7696 63.9887L90.7576 64.1033L90.8568 64.4289L90.8659 64.7931L90.9065 64.9602L91.0485 64.8722L91.0959 64.8274L91.0667 65.1143L90.9517 65.3776L90.6541 65.852L90.3474 66.6909L90.2122 66.9461L90.1491 66.9157L90.1205 66.918L90.0906 66.9339L90.0183 66.9461L90.083 67.0843L90.0619 67.4183L90.0874 67.5831L89.9552 67.5246L89.9537 67.5991L89.8981 67.7744L89.7478 67.6081L89.6711 67.5511L89.5831 67.5246L89.6561 67.6606L89.6606 67.77L89.5944 67.8513L89.4568 67.9022L89.5741 68.1415L89.65 68.3861L89.6906 68.6459L89.7026 68.93L89.6409 69.4709L89.6694 69.7339L89.9776 70.0515L90.0933 70.2674L90.1737 70.5076L90.212 70.7189L90.1955 71.4989L90.143 71.6813L90.4661 71.7733L90.5209 71.8318L90.5472 71.9063L90.5848 71.9717L90.6856 72.0006L90.8704 72.0143L90.9259 72.0691L90.9304 72.1846L90.9694 72.3824L91.0506 72.5354L91.152 72.6046L91.2624 72.6533L91.3819 72.737L91.4607 72.868L91.5667 73.195L91.6682 73.3456L91.9281 73.5433L91.9837 73.6285L91.8544 73.665L91.7446 73.6581L91.6785 73.6354L91.5431 73.5311L91.5252 73.5113L91.3478 73.3454L91.1607 73.1156L91.0202 73.0333L90.8428 73.0578L90.7391 73.1004L90.685 73.1148L90.6467 73.1415L90.4596 73.4093L90.5994 73.4626L91.157 73.4093L91.0344 73.5615L91.0037 73.6589L91.075 73.713L91.2554 73.7289L91.4124 73.7791L91.4139 73.9093L91.3598 74.0941L91.3478 74.3026L91.3704 74.3376L91.453 74.4015L91.4741 74.4365L91.4763 74.613L91.4741 74.6281L91.4244 74.7224L91.4168 74.7559L91.4363 74.7787L91.4798 74.7954L91.5218 74.8243L91.543 74.8806L91.5159 74.9704L91.4626 75.0313L91.4257 75.0983L91.4444 75.2019L91.512 75.3518V75.4226L91.4737 75.5163L91.6044 75.4881L91.7637 75.412L91.9124 75.3176L92.0146 75.2324L92.1259 75.2248L92.2596 75.3481L92.6572 75.8544L92.815 76.1231L92.8593 76.4117L92.7135 76.7063L92.7067 76.7726L92.7607 76.8494L92.8306 76.927L92.8711 76.997V77.1013L92.82 77.2894L92.808 77.38L92.8372 77.6907L92.8057 77.8028L92.6817 77.9613L92.5576 78.0702L92.4765 78.0885L92.3863 78.0748L92.2398 78.0893L92.1248 78.1433L92.0774 78.2302L92.0796 78.3604L92.1089 78.5417L92.1915 78.5006L92.2967 78.4815L92.4876 78.4724L92.5102 78.3696L92.5568 78.33L92.6478 78.3765L92.7065 78.4381L92.738 78.4633L92.7763 78.4724L92.8785 78.5159L92.8935 78.6135L92.8731 78.7202L92.8709 78.7926L92.9341 78.8787L93.155 79.083L93.2331 79.2674L93.3422 79.778L93.4391 79.9198L93.5639 80.0081L93.5398 80.0683L93.4661 80.127L93.445 80.2048L93.4907 80.3061L93.5357 80.3709L93.6581 80.493L93.7107 80.5952L93.6793 80.7857L93.7635 80.9672L93.6883 81.0281L93.502 81.0998L93.3465 81.2478L93.3052 81.327L93.3804 81.362L93.7472 81.3537L93.8163 81.362L93.8463 81.4291L93.9193 81.6822L93.977 81.7783L94.1289 81.8896L94.2011 81.9598L94.2628 82.0667L94.3244 82.333L94.2576 82.5244L94.0839 82.6159L93.8163 82.5839L93.8944 82.7105L94.1574 82.9143L94.1665 82.9967L94.0672 83.063L93.7485 83.1987L93.4644 83.2689L93.46 83.3765L93.5765 83.6139L93.5585 83.7887L93.4909 83.9207L93.3835 84.0268L93.2483 84.1254L93.4857 84.0818L93.9172 83.5576L94.1067 83.5781L94.2298 83.6476L94.5057 83.6278L94.7018 83.8254L94.8235 83.8413L94.9589 83.8352L95.083 83.8581L95.313 84.0359L95.8728 84.9694L95.89 85.51L95.9667 85.7909L96.0613 85.6794L96.1087 85.5252L96.1102 85.3619L96.0635 85.2176L95.98 85.0291L96.0004 84.9496L96.1102 84.9389L96.2868 84.9648L96.4213 85.0044L96.7069 85.1296L96.8872 85.1724L97.2563 85.3069L97.3015 85.2961L97.3293 85.3098L97.3593 85.412L97.342 85.5335L97.2811 85.6594L97.2519 85.7969L97.3278 85.9541L97.3555 86.0411L97.2872 86.0885L97.1978 86.1283L97.17 86.1863L97.2181 86.2618L97.2663 86.2672L97.3152 86.2457L97.3594 86.2389L97.5135 86.3344L97.5857 86.3489L97.6172 86.2748L97.6241 86.177L97.6526 86.122L97.7096 86.1113L97.8067 86.1518L97.9194 86.2298L98.1337 86.4215L98.2479 86.5009L98.2465 86.4154L98.2622 86.3557L98.287 86.3054L98.3111 86.2389L98.3841 86.2893L98.4389 86.303L98.4944 86.2854L98.5689 86.2387L98.4118 86.193L97.9331 85.9891L98.2479 85.5981L98.3706 85.638L98.4239 85.7441L98.4517 85.8746L98.5005 85.9893L98.5816 86.0557L98.7891 86.1565L98.8844 86.2389L98.9348 86.3222L99.2324 86.9906L99.3256 87.0776L99.3489 87.0615L99.66 87.1241L99.7042 87.1417L100.003 87.0546L100.045 86.8689L99.935 86.7237L99.7726 86.7565L99.7298 86.6457L99.7615 86.5648L99.8456 86.5174L99.962 86.5005L100.048 86.5326L100.088 86.6098L100.12 86.7054L100.174 86.7887L100.254 86.9583L100.169 87.1089L100.017 87.2509L99.8987 87.3983L99.9572 87.393L100.08 87.403L100.138 87.3983L100.038 87.717L100.025 87.8202L100.05 87.8913L100.101 87.9624L100.144 88.0494L100.138 88.1733L99.992 88.4454L99.698 88.7415L99.3667 88.9804L98.7682 89.1902L98.4189 89.4524L97.873 89.9963L97.6993 90.2246L97.5915 90.3306L97.3337 90.4267L96.1789 91.3341L96.0033 91.4263L95.0507 91.8354L94.1259 92.4759L93.892 92.575L92.343 92.9163L91.6309 92.9698L91.4724 93.0224L91.3263 93.1031L89.5157 94.5611L89.3 94.6798L89.0681 94.7498L88.8228 94.7468L88.628 94.6748L88.2518 94.4685L88.0343 94.4248L87.7498 94.5543L87.43 94.6174L86.2226 94.6165L85.9106 94.6885L85.6633 94.9055L85.5011 95.0194L85.3083 95.0681L85.1861 95.1459L84.8187 95.4981L84.6498 95.5878L84.5476 95.5839L84.3481 95.5361L84.2374 95.5244L84.1372 95.5439L83.9502 95.6315L83.6754 95.7065L83.5274 95.833L83.3193 96.0967L82.4096 96.7169L82.1796 97.0032L82.1744 97L81.9039 96.8415L81.1718 96.6565L80.8444 96.488L80.3348 95.9496L80.0035 95.7189L79.5769 95.6517L79.4852 95.677L79.2809 95.7628L79.175 95.7813L79.0652 95.7511L78.8839 95.6178L78.7943 95.5876L78.7646 95.5691L78.7159 95.4824L78.6996 95.4591L78.6485 95.4611L78.6017 95.4835L78.573 95.5107V95.5254L78.5009 95.5239L78.2924 95.5196L77.7646 95.6102L77.6778 95.7026L77.5957 95.7241L77.2196 95.7474L77.0668 95.7844L76.4865 96.1154L76.4235 96.1972L76.3996 96.3354L76.2574 96.7609L76.1706 96.8757L76.1839 97.0452L75.9624 97.4415L75.9137 97.6528L75.9509 97.7785L76.0063 97.8944L76.0235 98.0104L75.9482 98.1361L75.8326 98.2394L75.6407 98.3748L74.9689 98.672L74.5576 99.0033L74.3857 99.1017L74.1881 99.1368L73.8952 99.1398L73.6948 99.1789L73.3607 99.3563L73.168 99.3972L73.0563 99.448L72.9846 99.5648L72.932 99.6954L72.8806 99.7889L72.8031 99.8561L72.7411 99.8893L72.5656 99.9185H72.3546L71.8974 99.7889L71.822 99.7509L71.6578 99.5765L71.5509 99.5257L71.4641 99.5317L71.3924 99.5668L71.3198 99.6137L71.2302 99.6546L70.8989 99.6907L70.4961 99.6469L69.7115 99.4674L69.387 99.3105L69.0644 99.0376L68.8135 98.7219L68.7028 98.4315L68.5576 98.5172L68.4756 98.5796L68.3887 98.6176L67.5344 98.6946L67.398 98.6683L67.1689 98.5193L66.9867 98.5056L66.8989 98.4607L66.7424 98.5133L66.3243 99.0104L66.0674 99.3894L65.9844 99.4674L65.8785 99.5239L65.5378 99.6544L65.4481 99.7285L65.3985 99.7889L65.3307 99.8318L65.0844 99.8591L64.947 99.9069L64.3676 100L64.2081 99.9824L63.9761 99.8665L63.9246 99.847L63.8665 99.7974L63.8111 99.5761L63.7385 99.5254H62.66L62.6161 99.5459L62.5683 99.5898L62.5044 99.6337L62.2143 99.6776L61.8783 99.7741L61.7428 99.7887L61.6472 99.7615L61.5041 99.6737L61.3933 99.6543L61.0126 99.7196L60.9067 99.6456L60.8237 99.475L60.7959 99.2811L60.8552 99.1398L60.7931 98.9517L60.7722 98.7383L60.7207 98.562L60.5718 98.49L60.4878 98.4706L60.4248 98.4219L60.3646 98.3585L60.2872 98.2972L60.1985 98.2593L59.9943 98.2057L59.9035 98.1687L59.5665 97.9602L59.3737 97.8735L59.2411 97.8822L59.0626 97.9348L58.8898 97.8431L58.8069 97.665L58.8946 97.4546L58.7352 97.2607L58.612 97.1994L58.2637 97.2033L58.2044 97.1869L57.943 97.0748L57.565 97.0046L57.4428 97.0883L57.1546 97.4544L56.9915 97.583L56.5276 97.6678L56.3578 97.7691L56.4294 97.9755L56.3178 98.0485L56.2156 98.1743L56.1383 98.3048L56.0733 98.4987L55.9807 98.5581L55.4826 98.6896L55.472 98.6887L55.2554 98.8115L55.1035 98.7726L54.9546 98.7132L54.8535 98.7209L54.842 98.8826L54.737 98.8485L54.695 98.7959L54.6711 98.7307L54.6215 98.6596L54.5394 98.5963L54.4965 98.5915L54.4602 98.613L54.4 98.6305L54.3981 98.6393L54.275 98.6889L54.235 98.6928L54.0078 98.682L53.9219 98.6539L53.8607 98.5935L53.8444 98.5418L53.4589 98.5526L49.6067 98.5135L49.5915 98.4317V97.9437L49.5706 97.8063L49.5248 97.6954L49.4809 97.6105L49.46 97.5541L49.4209 97.485L49.3341 97.41L49.2472 97.3107L49.168 97.0555L48.9952 96.9115L48.9561 96.8404L48.8865 96.6467L48.7137 96.49L48.4904 96.3722L48.0915 96.2369L48.0161 96.227L47.9474 96.2513L47.83 96.3544L47.7689 96.3613L47.7098 96.2893L47.5056 95.9057L47.5609 95.8765L47.6402 95.8143L47.6946 95.7831V95.7248L47.5483 95.6409L47.4283 95.503L47.3463 95.32L47.3167 95.105L47.2937 95.0204L47.2365 94.9474L47.163 94.8959L46.9959 94.8541L46.952 94.7948L46.9233 94.712L46.8746 94.6196L46.4346 94.2393L46.365 94.0739L46.3383 93.8433L46.2152 93.4572L46.1752 93.2646L46.2209 93.0274L46.49 92.6804L46.6598 92.2965L46.6798 92.1992V91.7822L46.7991 91.1943L46.7637 90.9483L46.82 90.8687L46.9326 90.7843L46.9087 90.6628L46.8533 90.5957L46.7931 90.552L46.7541 90.4985L46.7378 90.4568L46.6796 90.3704L46.8019 90.1722L46.7943 89.9672L46.7065 89.7778L46.508 89.5418L46.4831 89.4865L46.4907 89.3059L46.465 89.1961L46.402 89.1776L46.3218 89.1824L46.2435 89.1456L46.1691 89.0387L46.108 88.9154L46.065 88.7852L46.0498 88.6609L46.0689 88.5406L46.1548 88.3298L46.1748 88.2406L46.1357 88.0659L45.9581 87.768L45.917 87.5652L46.1041 86.5406L46.1068 86.4406L46.0868 86.3241L46.0096 86.1194L45.9218 85.6209L45.6154 84.9285L45.5448 84.6085L45.5639 84.5154L45.6459 84.3322L45.665 84.2246L45.6526 84.1228L45.5448 83.8018L45.267 83.4074L45.162 83.2146L44.24 82.0676L44.2294 82.0289L44.0624 81.867L44.0204 81.8437L43.8152 81.6306L43.7617 81.5559L43.7159 81.3787L43.693 81.2111L43.6348 81.0872L43.3589 80.9865L42.4607 80.0337L42.4561 80.0315L42.1935 79.9107L42.0341 79.7355L41.9644 79.695L41.6515 79.3137L41.5235 79.242L41.4357 79.1376L41.4235 79.1294L41.137 78.9402L40.8163 78.8231L40.6665 78.9576L40.5539 79.0863L40.3363 79.2672L40.1989 79.5024L40.3707 79.9206L40.3535 80.0841L40.2887 80.3667L40.282 80.538L40.2496 80.66L40.1733 80.7559L40.0368 80.8459V80.9098L39.8852 81.0754L39.7774 80.9968L39.6772 80.8109L39.4548 80.622L39.1933 80.4652L38.9767 80.3761L38.737 80.2183L38.5013 79.9793L38.2483 79.8215L37.952 79.9037L37.7078 80.042L37.473 80.073L37.4683 80.0722L37.2257 80.0294L36.9441 79.9404L36.6311 79.9074L36.4068 80.0013L36.1893 80.1291L35.902 80.1987L35.5183 80.1717L35.3398 80.1165L35.1976 80.0157L35.0865 79.8406L34.9276 79.4931L34.7567 79.3315L34.2374 78.9607L34.0722 78.9026L33.9902 78.9181L33.8441 79.015L33.7648 79.0402L33.6541 79.0296L33.4622 78.9715L33.3333 78.9724L33.2722 79.0024L33.1452 79.108L33.0613 79.137L33.0269 79.1167L32.7563 79.0093L32.5076 78.9541L32.4237 78.9202L31.8548 78.478L31.3928 78.0165L31.2306 77.9217L31.0511 77.9294L30.8756 78.0194L30.7324 78.1715ZM95.1457 61.6394L95.287 61.7965L95.272 62.0969L95.1248 62.7248L94.8617 63.3302L94.7383 63.4985L94.7204 63.5676L94.7219 63.6267L94.7098 63.6874L94.6467 63.8785L94.6189 63.9285L94.5385 64.0378L94.522 64.1039L94.477 64.2154H94.3672L94.1117 64.1394L93.8433 64.2274L93.7261 64.4293L93.6698 64.6433L93.5818 64.7693L93.2167 64.9135L93.0296 64.9559L92.8763 64.9605L92.69 64.8846L92.4457 64.6228L92.2968 64.5089L92.3833 64.4883L92.5396 64.4822L92.6178 64.4504L92.6193 64.4246L92.6433 64.3578L92.6733 64.297L92.6869 64.2948L92.708 64.2243L92.7606 64.2076L92.8237 64.2122L92.8763 64.1956L93.2746 63.8078L93.4083 63.5946L93.3226 63.49L93.3744 63.3337L93.4804 63.2609L93.6246 63.2411L93.7937 63.2426L93.9478 63.2115L94.2363 63.0772L94.3941 63.0454L94.343 62.9702L94.2557 62.9565L94.0167 62.9815V62.9239L94.128 62.8967L94.2257 62.845L94.3941 62.7267L94.5917 62.6448L94.6767 62.572L94.7405 62.3331L94.815 62.1944L94.9067 62.0731L94.9885 62.0217L95.0335 61.9731L95.1274 61.7328L95.1457 61.6394ZM91.893 49.3913L91.9268 49.4752L92.1756 49.9154L92.1335 50.317L91.9005 50.5961L91.5698 50.7072L91.2302 50.6074L91.0965 50.4872L90.9717 50.3239L90.8815 50.1378L90.6996 49.3461L90.7207 49.207L90.5133 49.2706L90.5148 49.3711L90.6013 49.4935L90.6576 49.6198L90.6463 49.8285L90.6011 49.8793L90.3433 49.7831L90.3839 49.6046L90.3313 49.4617L90.0907 49.2069L89.8006 48.7578L89.7194 48.6898L89.6489 48.6309L89.5233 48.6996V48.7676L89.5774 48.7759L89.5841 48.8031L89.5767 48.8439L89.5865 48.8946L89.4624 48.8083L89.4233 48.9535L89.4557 49.163L89.555 49.2704L89.5324 49.2824L89.5181 49.3028L89.4828 49.3072L89.397 49.2702L89.3135 49.2165L89.282 49.1809L89.2609 49.1431L88.795 48.6041L88.7078 48.4581L88.5898 48.0409L88.5087 47.8739L88.8402 47.468L88.765 46.9313L88.5937 46.3546L88.6343 45.8331L88.6237 45.7198L88.6328 45.6109L88.6583 45.5165L88.6974 45.4478L88.7252 45.4969L88.7965 45.592L88.8235 45.6433L88.9776 45.3924L89.3076 45.1174L89.4602 44.9398L89.5361 44.6474L89.6007 43.9607L89.7691 43.793L89.8772 44.0763L90.1591 44.5854L90.2154 44.9117L90.15 45.3022L90.1463 45.4472L90.1748 45.59L90.2559 45.8544L90.2724 45.9911L90.3144 46.1354L90.4918 46.427L90.5941 46.8526L90.6504 46.8852L90.8465 46.9161L90.8667 47.0407L90.8433 47.1541L90.8035 47.2689L90.7831 47.3944L90.7876 47.5426L90.8056 47.6552L90.8431 47.7587L90.9093 47.8728L90.7987 48.0096L90.7513 48.0852L90.7196 48.1902L90.8533 48.1335L90.9361 48.1902L91.0059 48.2944L91.0983 48.3754L91.105 48.2378L91.1659 48.147L91.2404 48.1402L91.2863 48.2535L91.3283 48.2481L91.3396 48.242V48.2261L91.3509 48.1898L91.4998 48.2283L91.5013 48.0348L91.4578 47.7589L91.4774 47.5556L91.6381 47.768L91.7207 48.0319L91.893 49.3913ZM92.8128 40.9687L92.8172 40.6441L92.8533 40.4961L92.9391 40.3678L92.882 40.2681L92.9978 40.2485L93.3224 40.3044L93.248 40.1731L93.0548 39.9361L93.0022 39.7928L93.1465 39.8298L93.3283 39.8433L93.4915 39.8154L93.5817 39.7293L93.4757 39.7052L93.3856 39.6713L93.3111 39.6193L93.2533 39.5393L93.3976 39.5407L93.6185 39.4833L93.7643 39.4757L93.9311 39.5626L94.0228 39.5361L94.0859 39.3489L93.8994 39.4183L93.6741 39.355L93.2531 39.0893L93.1622 39.1481L93.0494 39.1135L92.945 39.0191L92.8759 38.8991L92.9752 38.9398L93.0406 38.9874L93.103 39.0056L93.1902 38.9626L93.2789 38.9898L93.593 39.0374L93.7643 39.032L93.6952 38.9626L93.7657 38.783L93.7311 38.6298L93.6318 38.5807L93.507 38.7106L93.5552 38.5219L93.5815 38.4622L93.5274 38.3935L93.4552 38.3481L93.3628 38.3444L93.2531 38.4041L93.2743 38.3015L93.2885 38.2593L93.3224 38.2035L93.2848 38.0933L93.2969 37.962L93.345 37.8639L93.4148 37.8556L93.5239 37.9076L93.5735 37.8759L93.5661 37.7959L93.5074 37.7024L93.4278 37.6556L93.1287 37.5409L93.1557 37.4526L93.2835 37.3493L93.3226 37.2535L93.1904 37.3169L93.1152 37.1456L93.1648 37.0113L93.2896 36.9676L93.4506 37.0633L93.4867 36.9146L93.383 36.828L93.2326 36.7472L93.1289 36.6206L93.1244 36.5135L93.1807 36.2541L93.192 36.113L93.2131 36.1606L93.235 36.1991L93.2613 36.2263L93.2891 36.2354L93.3604 36.2761L93.4107 36.3644L93.4415 36.4535L93.4506 36.4943L93.5528 36.48L93.5874 36.4113L93.6068 36.3352L93.6639 36.2989L93.7106 36.3313L93.8594 36.48L93.8909 36.523L94.317 36.7674L94.3944 36.8398L94.4004 36.9461L94.423 37.0389L94.4613 37.0728L94.5222 37.0004L94.5156 36.9257L94.4802 36.8367L94.4817 36.7333L94.5915 36.6209L94.6013 36.6889L94.6335 36.7583L94.647 36.8111L94.723 36.6587L94.777 36.4731L94.7974 36.2981L94.7794 36.1774L94.9043 36.2589V36.4481L94.8802 36.6693L94.9846 37.0163L94.8809 37.1837L94.7163 37.3135L94.5915 37.3754L94.6374 37.5398L94.6081 37.7194L94.5518 37.9013L94.5226 38.077L94.6113 38.3548L94.6196 38.4046L94.7046 38.3654L94.7122 38.277L94.6957 38.1865L94.7107 38.1404L94.828 38.1917L94.843 38.3546L94.7798 38.7107L94.7768 39.2572L94.7107 39.4067L94.7798 39.4761L94.6693 39.6059L94.395 40.4256L94.3242 40.5252L94.2859 40.5644L94.2724 40.6233L94.2687 40.7804L94.2267 40.9026L94.1456 40.9237L94.0922 40.8489L94.1372 40.6835H94.0868L94.0244 40.8344L93.9922 40.8896L93.9487 40.9372L93.9794 41.0354L93.9306 41.1389L93.8269 41.2348L93.6961 41.3178L93.6074 41.3419L93.5826 41.307L93.6141 41.2481L93.6959 41.1968V41.1274L93.5644 41.1606L93.4652 41.2224L93.3893 41.2376L93.3231 41.1274L93.0015 41.138L92.8678 41.0943L92.8128 40.9687ZM93.7268 64.9693L94.0233 64.9363L94.232 64.9472L94.2759 65.0791L94.177 65.2L93.7926 65.6285L93.5182 65.8811L93.3644 65.8702L93.3096 65.7165L93.3646 65.4748L93.4744 65.277L93.7268 64.9693ZM88.962 44.2644L88.9557 44.3915L89.0004 44.5567L89.0767 44.6709L89.0131 44.7661L89.0704 44.8867L89.0705 45.0707L88.9563 45.0961L88.8546 45.0898L88.8356 44.9565L88.8544 44.7913L88.8796 44.5309L88.8541 44.3404L88.962 44.2644ZM92.1883 40.7883L92.2694 40.8315L92.4046 40.9178L92.502 41.0528L92.6104 41.2202L92.7563 41.2741L92.8968 41.3117L92.9889 41.4304L92.9674 41.5439L92.7189 41.5604L92.5567 41.4309L92.4159 41.2637L92.3348 41.145L92.2267 41.0317L92.1293 40.8967L92.1883 40.7883ZM31.5161 7.56944L31.6085 7.52593L31.932 7.51778L32.1306 7.48241L32.2339 7.47963L32.31 7.51778L32.3589 7.59389L32.3643 7.6537L32.3261 7.67555L32.2472 7.64296H32.1902L32.2146 7.7163L32.2935 7.82241L32.3098 7.86056L32.3017 7.97481L32.2772 8.01833L32.2365 8.04018L32.1141 8.16537L31.8068 8.39926L31.777 8.36389L31.7444 8.35296L31.7146 8.34759L31.6793 8.33667L31.508 8.16537L31.4346 8.06482L31.4563 8.0213L31.497 7.975L31.4861 7.87444L31.4507 7.76555L31.4209 7.70019H31.5487L31.5161 7.56944ZM33.188 10.5887L33.177 10.6404L33.1335 10.7437L33.093 10.7276L33.0115 10.733L32.9733 10.7928L33.0657 10.9343L32.7722 10.9098L32.5765 10.7765L32.408 10.6106L32.1906 10.4935L32.1524 10.5969L32.0791 10.6567L31.9785 10.6676L31.8617 10.6187L31.4267 10.2841L31.2663 10.2352L30.8041 10.2217L30.5811 10.1591L30.38 10.015L30.2767 9.98241L30.1896 10.0206L30.1081 10.0343L30.0293 9.92L30.032 9.83833L30.0809 9.75407L30.4235 9.39778L30.5131 9.27259L30.5322 9.16111L30.4643 9.13389L30.2059 9.10944L30.1624 9.09315H30.0917L30.0454 8.99518L29.9041 8.84556L29.847 8.715L29.9367 8.72037L29.9993 8.7313L30.0456 8.76667L30.0919 8.84556L30.2441 8.76944L30.3528 8.69593L30.5322 8.53278L30.6056 8.44296L30.6463 8.41296L30.7278 8.39944L30.7685 8.41296L30.937 8.48648L30.9806 8.53278L30.9533 8.68241L30.8719 8.78574L30.8311 8.88907L30.9181 9.03055L31.3939 9.28889L31.6385 9.20185L31.6793 9.19092L31.7146 9.12296H31.7935L31.8668 9.14482L31.8967 9.16111L32.3615 9.04963L32.4348 9.06315L32.4783 9.19648L32.5491 9.33241L32.5735 9.47389L32.3913 9.77037L32.4728 9.84389L32.8207 9.92V9.98796L32.7065 10.0533L32.7907 10.1811L33.0654 10.4315L33.1117 10.4533L33.1524 10.4424L33.1822 10.4478L33.1931 10.5213L33.188 10.5887ZM21.4876 13.2169L21.4224 13.2876L21.0772 13.5624L20.9359 13.625L20.8272 13.5706L20.7565 13.4454L20.732 13.3067L20.7565 13.168L20.8543 12.9611L20.8515 12.8331L20.7944 12.738L20.6096 12.5802L20.5363 12.455L20.6613 12.3517L20.588 12.2972L20.4085 12.2891L20.2209 12.3354L20.1583 12.0117L20.2915 12.0389L20.392 11.9681L20.4546 11.843L20.4791 11.6987L20.2724 11.7694L20.2969 11.5328L20.4791 11.0594H20.5361L20.5443 11.2444L20.6422 11.3098L20.7537 11.3615L20.7944 11.4404L20.9006 11.6989L20.9359 11.99L21.0174 12.2348L21.2676 12.3356L21.3763 12.3437L21.3707 12.387L21.3191 12.4822L21.3 12.6481L21.3463 12.7843L21.4333 12.912L21.4985 13.0481L21.4876 13.2169ZM27.1339 12.387L27.0306 12.5422L26.9572 12.6865L26.9954 12.8333L27.0144 12.8061L27.0198 12.7952L27.0252 12.7843L27.0606 12.7652L27.0252 12.9094L26.9083 13.0346L26.7724 13.1054L26.6772 13.0863L26.5902 13.1761L26.5006 13.2359L26.4028 13.255L26.3022 13.2169L26.2396 13.0617L26.218 12.8739L26.1663 12.7161L26.0141 12.6481L25.9924 12.5311L26.2344 11.8237L26.2752 11.9298L26.3513 11.9924L26.4302 11.987L26.4928 11.8809H26.5498L26.5226 12.2728L26.6122 12.368L26.865 12.3354L26.8352 12.2565L26.808 12.0117H26.865L26.9656 12.0307L27.0661 11.9791L27.1476 11.9926L27.1857 12.2076L27.1339 12.387ZM22.8741 12.0769L22.692 12.5231L22.5752 12.613L22.4202 12.6756L22.2626 12.7081H22.1239L22.1348 12.7191L22.105 12.7381L22.0587 12.7572L22.0233 12.7654L21.9907 12.7491L21.9935 12.7137L22.0017 12.6756L21.9935 12.6483L21.9637 12.6048L21.9502 12.545L21.9148 12.5206L21.8089 12.5804L21.8659 12.4633L21.9965 12.3491L22.0917 12.2239L22.0563 12.077L21.972 12.047L21.7763 12.0715L21.7409 12.0117L21.7763 11.93L21.8606 11.8783L21.9937 11.8239L22.165 11.7259L22.3172 11.6144L22.4667 11.5274L22.6352 11.5083L22.6406 11.6117L22.6541 11.6524L22.6922 11.6987L22.7548 11.6333L22.7087 11.7041L22.6761 11.7802L22.6489 11.8619L22.6354 11.9489H22.6924L22.782 11.8209L22.8528 11.8372L22.8881 11.938L22.8741 12.0769ZM20.1474 10.6622L20.0957 10.6187L20.0494 10.4881L20.0522 10.3604L20.093 10.2352L20.1581 10.1074L20.2207 10.1781L20.2098 10.3115L20.2424 10.4311L20.3185 10.5181L20.4435 10.5481L20.6093 10.5754L20.5767 10.6298L20.4081 10.7141L20.362 10.7685L20.2559 10.7331L20.1474 10.6622ZM20.528 7.5287L20.6285 7.41444L20.7181 7.28667L20.7317 7.07444H20.7724L20.7996 7.08796L20.8513 7.13685L20.835 7.33537L20.7561 7.47685L20.4789 7.69981L20.528 7.5287ZM21.3 5.99741L21.2837 6.25315L21.1994 6.51704L20.9194 7.01204L20.9846 6.59315V6.43815L20.99 6.47074V6.49518L21.0009 6.51148L21.0472 6.50611L21.0444 6.16352L21.0091 6.00852L20.9194 5.86981L21.1967 5.76926L21.2346 5.77463L21.27 5.81278L21.4874 5.93241L21.6124 6.07926L21.6504 6.14722L21.6748 6.24778L21.3 5.99741Z"/>
</mask>
<path d="M30.7324 78.1715L30.5902 78.0806L29.9 77.8183L29.4715 77.533L29.4037 77.5194L29.2433 77.5359L29.1756 77.5118L29.122 77.4422L29.0933 77.302L29.0591 77.2304L28.9311 77.092L28.8146 77.0291L28.1531 76.973L27.3591 76.7989L27.012 76.7709L26.8865 76.6869L26.7537 76.4818L26.5743 76.0565L26.4731 75.9268L26.1381 75.7006L25.765 75.6078L24.5619 75.632L24.3652 75.6068L24.1791 75.5411L23.9972 75.4048L23.6574 75.0587L23.572 75.0124L23.4665 74.9552L23.3824 74.9513L23.2048 74.9939L23.118 75.0017L23.022 74.9737L22.7563 74.8191L22.5206 74.7852L22.3735 74.848L22.2404 74.9476L22.048 75.0278L21.6557 74.933L21.4678 74.5657L21.4687 74.1039L21.6424 73.7252L20.2661 73.3474L20.0513 73.3657L19.7363 73.5367L19.5474 73.6043L19.3613 73.6033L19.2048 73.5424L18.3161 72.8565L18.1028 72.5706L18.0335 72.1707L18.0344 71.822L17.9706 71.5844L17.7863 71.43L17.4313 71.3287L17.2843 71.235L17.0857 71.0052L16.9406 70.9298L16.8011 70.9193L16.6756 70.9328L16.5567 70.9213L16.4335 70.8402L16.402 70.7746L16.3715 70.6046L16.337 70.5457L16.255 70.4974L16.2254 70.51L16.2015 70.5467L16.1356 70.5728L16.0287 70.5959L15.5509 70.7668L15.4798 70.8141L15.4015 70.8411L15.2826 70.8218L15.1839 70.7476L15.0093 70.512L14.9015 70.4378H14.6791L14.5311 70.5148L14.5219 70.4941L14.5491 70.2246L14.5246 70.1174L14.4267 70.0761L14.2418 69.9194L14.2337 69.5732L14.3343 68.9931L14.1657 68.6937L13.6139 68.3474L13.4507 68.0946L13.4181 68.1111H13.4072L13.4019 68.1193L13.3856 68.1631L13.2794 68.0422L13.1707 67.7674L13.0674 67.6465L12.9369 67.5833L12.8144 67.5394L12.7248 67.4626L12.6894 67.2978L12.6948 67.2126L12.703 67.1768L12.7057 67.1439L12.6894 67.0752L12.665 67.0422L12.6243 66.9956L12.5835 66.9324L12.5428 66.7511L12.4911 66.6631L12.4639 66.5643L12.4993 66.4296H12.5672L12.5781 66.4681L12.6189 66.5587L12.6652 66.3994L12.6407 66.2209L12.5756 66.0561L12.4994 65.9215L12.35 66.012L12.3093 66.0478L12.2141 65.8913L12.157 65.7046L12.1272 65.312L12.0946 65.1939L11.9043 64.8946L11.8063 64.7683L11.6052 64.6037L11.5237 64.5048L11.4557 64.1781L11.3633 64.0518L11.1404 63.8461L10.6348 62.4083L10.5315 62.3507L10.4643 62.2222L10.4098 62.0713L10.3554 61.9589L10.2602 61.8848L10.0102 61.7668L9.90963 61.6983L9.84166 61.5639L9.79278 61.3939L9.71389 61.2513L9.55889 61.1881L9.51278 61.0757L9.14574 60.4313L9.29519 60.1105L9.34407 59.9324L9.24074 59.853L9.24611 59.7652L9.36852 59.3265L9.39833 59.1537L9.33852 58.7919L8.94981 57.9394L8.84926 57.608L8.80037 57.5587L8.67537 57.5148L8.6563 57.4189L8.68352 57.3202L8.70518 57.2681L8.66982 57.1011L8.57463 56.9367L8.44963 56.8024L8.32185 56.7257L8.38444 56.6161L8.43333 56.627L8.48222 56.6872L8.54481 56.7256H8.80037L8.92815 56.6489L8.93907 56.4681L8.9037 56.2544L8.89278 56.0846L8.93352 56.0217L9.05574 55.9148L9.08296 55.8656V55.4848L8.97148 55.2959L8.50926 55.0002L8.44667 54.8743L8.22926 54.7318L7.62296 54.0474L7.46518 53.6833L7.39722 53.4506L7.41074 53.3493L7.06555 52.9031L6.85889 52.4131L6.77741 52.3337L6.61704 52.2872L6.45667 52.175L5.51333 51.272L5.41537 51.0859L5.36092 50.9081L5.22222 50.7631L5.03741 50.6593L4.84166 50.6072L4.42296 50.6181L4.03148 50.7304L3.32204 51.1217L3.31666 50.9028L3.20518 50.7743L2.87889 50.6074L2.43296 50.2272L1.61463 49.207L1.51685 49.0102L1.45166 48.9281L1.23426 48.8652L1.13907 48.7941L1.09556 48.6983L1.14185 48.6054L1.24796 48.4385L1.28333 48.2252L1.22074 47.6017L1.24241 47.0111L1.305 46.8252L1.46 46.5928L1.64481 46.385L1.80796 46.2783L1.89759 46.2839L2.05537 46.385L2.15593 46.4096L2.22667 46.3741L2.83018 45.8083L3.03944 45.6907L3.25963 45.6443L3.25685 45.4667L3.31666 45.125L3.32204 44.9393L3.23222 44.5157L2.24278 42.322L2.06056 42.0844L1.63648 41.6885L1.44889 41.4291L1.36741 41.1287L1.4 40.9239L1.47889 40.7054L1.59037 40.4978L1.71 40.3367L1.76444 40.1783L1.77796 39.9407L1.76444 39.7169L1.74 39.6022L1.80796 39.5776L1.83518 39.5585L1.865 39.5641L1.93296 39.6022L1.97092 39.482L1.90833 39.2937L1.96537 39.1872L2.03611 39.1026L2.03889 39.0426L2.01444 38.9744L1.99815 38.8707L1.97092 38.838L1.91648 38.8407L1.87018 38.8326V38.7726L1.90278 38.7317L1.94074 38.7235H1.97611L1.99778 38.7098L2.03037 38.658L2.06574 38.6224L2.10111 38.5678L2.12296 38.4613L2.11759 38.2457L2.06056 38.0302L1.96278 37.8337L1.73981 37.5444L1.68278 37.3752L1.72093 37.3015L1.74259 37.2443L1.73981 37.1896L1.69629 37.1406L1.64463 37.1352L1.59296 37.138L1.55759 37.1215L1.40815 36.9222L1.31852 36.8431L1.1363 36.7913L0.891667 36.6876L0.826481 36.6522L0.75574 36.5648L0.714999 36.4911L0.657962 36.423L0.541111 36.3574L0.448702 36.3274L0.165925 36.3002L0 36.243V36.1802L0.255554 35.9509L0.260925 35.8909L0.209257 35.82L0.141296 35.7435L0.0950001 35.667L0.0814819 35.5743L0.0868508 34.9113L0.521851 32.5848L0.564999 32.0387L0.870926 32.1109L1.24796 32.1406L1.29 32.1569L1.39648 32.0744L1.42463 31.97L1.42944 31.8504L1.46389 31.7193L1.52204 31.6646L1.67963 31.5909L1.72741 31.5115L1.74704 31.3602L1.7637 31.3276L1.91352 31.2357L2.01185 31.2481L2.11204 31.2989L2.26666 31.3248L2.34778 31.297L2.83833 31.0663L3.16944 30.7552L3.48629 30.5752L3.57981 30.4996L3.785 30.3839L3.90148 30.2365L4.13722 29.6719L4.23259 29.5341L4.86166 29.0096L5.14037 28.67L5.35704 28.2948L5.38129 28.2363L5.525 27.8891L5.68537 27.2222L5.79611 27.0328L6.28092 26.5354L6.63593 25.9213L6.86926 25.772L7.28111 25.9069L7.31259 25.7443L7.28389 25.5998L7.23148 25.4572L7.19241 25.3013L7.20259 25.1293L7.20296 25.1224L7.26778 24.9559L7.6487 24.3563L7.71796 24.1841L7.72129 24.0148L7.69926 23.8293L7.74944 23.7183L8.00667 23.5337L8.02963 23.4965L8.06407 23.3874L8.08796 23.3587L8.24166 23.3357L8.25981 23.3376L8.26463 23.3548L8.44129 23.3406L8.45129 23.3206L8.46704 23.2402L8.4813 23.2172L8.72704 23.1607L8.79055 23.1378L8.86407 23.0737L8.98444 22.9302L9.41778 22.7285L9.66018 22.4933L9.67203 22.2467L9.39333 22.0944L9.32889 22.0593L9.4987 21.8546L9.67296 21.692L9.87667 21.5659L10.1291 21.4704L10.2426 21.4561L10.3328 21.4054L10.392 21.3222L10.4202 21.2122L10.6646 21.3337L10.9209 21.305L11.1433 21.153L11.2828 20.9044L11.278 20.8509L11.2369 20.6865L11.232 20.6185L11.3628 20.432L11.443 20.2113L11.4593 20.0956L11.4498 19.9789L11.4117 19.913L11.2919 19.825L11.2589 19.7552L11.2665 19.7017L11.3104 19.5783L11.3089 19.5296L11.2178 19.4015L10.9906 19.1874L10.9448 19.0517L11.0059 18.9044L11.2919 18.5746L11.3194 18.5252L11.3811 18.415L11.1654 18.4131L10.7339 18.5335L10.5181 18.5526L10.3965 18.5163L10.185 18.3778L10.0715 18.3357L9.95741 18.3433L9.86537 18.3796L9.76889 18.4035L9.64574 18.3767L9.62093 18.3365L9.59518 18.1854L9.5713 18.1291L9.53111 18.1022L9.40889 18.0506L8.80907 17.6913L8.73407 17.6789L8.60519 17.7267L8.49537 17.8174L8.31259 18.0696L8.26815 18.0907L8.26704 18.0872L8.22815 17.9722L8.14796 17.893L8.09444 17.8194L8.13648 17.7181L7.96852 17.6722L7.82815 17.5404L7.59722 17.2413L7.57722 17.0817L7.68315 16.8763L7.88444 16.6039L7.88778 16.3689L7.91778 16.2256L7.99222 16.1043L8.52333 15.5463L8.58296 15.3715L8.37111 15.4498L8.04 15.6007L7.84537 15.6648L7.66593 15.663L7.56333 15.5635L7.59907 15.3361L7.67444 15.2215L7.895 15.0122L7.9837 14.8967L8.02389 14.7993L8.09926 14.5059L8.44963 13.6528L8.57333 13.4569L8.87926 13.0719L9.05778 12.9669L9.25444 12.9917L9.45481 13.0491L9.64815 13.0385L9.75167 12.9517L9.88333 12.7033L9.98926 12.6202L10.1085 12.6039L10.2078 12.6354L10.6898 12.8733L10.7652 12.8915L10.8493 12.8685L10.9161 12.8304L11.045 12.7989L11.1878 12.7167L11.3428 12.648L11.463 12.5611L11.5583 12.3881L11.5974 12.2L11.5583 11.5676L11.6385 11.1607L11.9563 10.132L11.8791 9.8637L11.7802 9.73L11.6394 9.5887L11.473 9.50556L11.3002 9.54278L11.4219 9.005L11.3941 8.76056L11.1172 8.71667L11.163 8.64222L11.2193 8.58204L11.3691 8.46463L11.2985 8.29944L11.3506 8.15722L11.4446 8.0187L11.4952 7.86204L11.4217 7.49148L11.3893 7.39407L11.4952 7.14L11.4722 7.055L11.3902 6.92889L11.3693 6.88111L11.3722 6.78185L11.4915 6.05333L11.4991 5.81556L11.4319 5.61981L11.2124 5.70389L11.0678 5.59019L10.9791 5.38204L10.8894 5.04981L10.8483 4.97907L10.7339 4.85685L10.5811 4.65259L10.5263 4.53222L10.5756 4.4787L10.6043 4.36981L10.6215 4.12926L10.5691 3.88778L10.3896 3.77889L10.2083 3.75315L9.59833 3.52685L9.51333 3.47537L9.375 3.34352L9.27759 3.27481L9.00555 3.16222L8.88629 3.07241L8.83667 2.92444L8.84611 2.85574L8.86796 2.8013L8.88889 2.76111L8.89796 2.73241L8.87944 2.65704L8.79352 2.54537L8.73907 2.35722L8.57111 2.07852L8.51481 1.94389L8.47852 1.70519L8.43944 1.64796L8.32592 1.56593L8.28778 1.57648L8.22759 1.60889L8.15407 1.62037L8.07296 1.56593L8.05778 1.51056L8.08259 1.45519L8.11741 1.40259L8.13704 1.34815L8.10648 1.22222L7.97185 1.12963L7.9413 1.03037L7.97056 0.925926L8.04167 0.824629L8.11481 0.748148L8.12555 0.736852L8.2 0.676666L8.31444 0.687222L8.38315 0.732963L8.43092 0.784444L8.48296 0.808334L8.59407 0.799815L8.76593 0.759815L9.23167 0.716852L9.43296 0.738889L9.65537 0.808519L9.77278 0.711111L10.103 0.361667L10.2367 0.292037L10.587 0.181296L10.9346 0L11.2611 0.0820372L11.4081 0.154629H12.0046H13.6959H15.3863H15.5833H17.0772H18.7681H20.2217L20.0769 0.404074L20.0904 0.57L20.21 0.640741L20.4085 0.551111L20.5091 0.499444L20.577 0.328148L20.608 0.155H20.7333L20.7346 0.167778L20.7318 0.268333L20.7509 0.35537L20.8054 0.358148L20.8761 0.325555L20.9522 0.303889L21.0637 0.358333L21.0011 0.483333L20.8787 0.611111L20.7944 0.676296L20.8543 0.825741L20.857 0.937222L20.8461 1.0487L20.8515 1.17926L20.9004 1.29352L20.9737 1.41037L21.0281 1.51648L21.0146 1.59796L20.9222 1.81556L20.8515 2.69926L20.77 2.96574L20.5743 3.34093L20.5172 3.73259L20.4302 3.93648L20.4085 4.06148V4.34426L20.3922 4.48019L20.3487 4.60259L19.9681 4.43407L19.9083 4.69241L19.9437 5.09759L19.8431 5.3613L20.0198 5.64148L19.9572 5.8563L19.7913 6.07667L19.6472 6.37593L19.5657 7.11018L19.4433 7.3713L19.3998 7.51815L19.3128 8.1437L19.215 8.39944L18.8181 8.88907L18.7039 9.13111L18.6494 9.40315L18.6359 9.72963L18.7311 9.74592L18.7746 9.69963L18.8044 9.63426L18.8589 9.60426L18.9513 9.61241L19.0057 9.62333L19.0574 9.62611L19.1444 9.60426L19.2206 9.54981L19.2776 9.47907L19.3591 9.42463L19.5222 9.4137L19.4161 9.68019L19.3917 9.80537L19.3454 9.87333L19.3319 9.91963L19.3509 9.95778L19.4433 10.0313L19.465 10.0776L19.4378 10.1809L19.3128 10.3441L19.2774 10.4311L19.2883 10.5128L19.3807 10.6161L19.3998 10.6815L19.2259 11.0569L19.1743 11.1248L19.2015 11.2119L19.0167 11.7613L19.022 12.0333L18.9894 12.1069L18.8943 12.2211L18.848 12.2919L18.8289 12.3598L18.8261 12.542L18.8452 12.6617L18.9185 12.7133L19.0817 12.708L19.3181 12.5965L19.4948 12.4359L19.6906 12.3298L19.9678 12.3869L19.9296 12.4848L19.9052 12.523L20.0439 12.5856L20.1254 12.6726L20.1144 12.7298L19.9676 12.708L19.9757 12.8902L20.0056 13.0017L20.1578 13.2167L20.2856 13.2548L20.3454 13.2956L20.2828 13.4424L20.3018 13.5104L20.3372 13.5783L20.3481 13.6463L20.2993 13.7659L20.2231 13.8776L20.1144 13.9702L19.9676 14.0381L19.8263 14.0491L19.7039 14.0354L19.6224 14.0598L19.5898 14.1904L19.6387 14.3509L19.7474 14.4L19.8561 14.4244L19.905 14.5143V15.0204L19.962 15.0993L20.0952 15.0802L20.378 14.9904L20.6552 14.9876L20.8074 14.9657L20.9189 14.9222L20.8944 15.0746L20.813 15.0909L20.7069 15.0528H20.6035L20.5572 15.08L20.5381 15.0991L20.5354 15.1372V15.208L20.5272 15.2841L20.5028 15.295L20.4648 15.2841L20.3615 15.3194L20.2419 15.3113L20.1902 15.3357L20.1357 15.4146V15.4691L20.1548 15.5126L20.1576 15.5507L20.0433 15.7711L20.0189 15.9426L20.008 15.9861L20.0324 15.9998L20.2037 15.997L20.2554 16.0107L20.2826 16.0761L20.2907 16.2231L20.2174 16.6776L20.2228 16.9007L20.3478 17.0776L20.4728 17.0096L20.6141 16.8954L20.7337 16.762L20.7935 16.6369L20.7691 16.517L20.6467 16.1904L20.6331 16.125L20.663 16.0978L20.6494 16.0324L20.6031 15.9072L20.6248 15.812L20.6765 15.7576L20.7444 15.7169L20.8233 15.6515L20.9157 15.6352L21.0109 15.7222L21.068 15.8611L21.0463 15.9998L21.1931 15.9535L21.3617 15.9372L21.3263 15.8365L21.2965 15.5398L21.2993 15.4309L21.2857 15.363L21.2531 15.3248L21.2422 15.2922L21.2993 15.2378L21.3456 15.235L21.3646 15.2948L21.3618 15.4309L21.5983 15.363L21.6609 15.4854L21.6474 15.6594V15.7465L21.8567 15.7981L21.9083 15.9287L21.9056 16.1137L21.9354 16.3206L22.0496 16.4457L22.2181 16.4702L22.3704 16.3941L22.4383 16.2226L22.403 16.1356L22.2344 15.9967L22.18 15.9369L22.1746 15.8633L22.1881 15.6865L22.18 15.6211L22.1393 15.5748L22.0767 15.5341L22.0168 15.4633L21.968 15.2593L21.9081 15.1641L21.8374 15.0852L21.7722 15.0526L21.6961 15.0335L21.6335 14.9872L21.6009 14.9246L21.62 14.862L21.6826 14.813L21.7506 14.8048L21.8294 14.8076L21.9354 14.7939L21.987 14.7993L22.0224 14.8293H22.0685L22.1528 14.7639L22.1744 14.7231L22.1854 14.6715L22.1826 14.6252L22.1528 14.6033L22.1202 14.557L22.1556 14.3311L22.1528 14.255L22.0957 14.0619L22.1719 13.9041L22.2943 13.8687L22.3757 14.0374H22.4383L22.4356 13.9422L22.4465 13.8661L22.4681 13.7926L22.5007 13.7165L22.5552 13.8335L22.7672 14.073L22.8731 14.2198L22.9004 14.1519L22.9194 14.1328L22.9141 14.1109L22.8733 14.0374L22.9467 14.0156L23.0281 14.0183L23.1096 14.0483L23.1911 14.1L23.1667 14.1844L23.2265 14.2743L23.3298 14.3259L23.4467 14.2906L23.5065 14.4702L23.5037 14.5463L23.675 14.4593L23.7131 14.3206L23.7267 14.1819L23.83 14.1002L23.7674 13.9559L23.6804 13.8824L23.577 13.8252L23.4276 13.7109L23.2889 13.6565L23.2237 13.6183L23.1911 13.5667L23.172 13.4524L23.1313 13.3952L23.047 13.3598L22.9409 13.338L22.8539 13.2917L22.8157 13.1828L22.8211 13.0522L22.8402 12.9326L22.8781 12.8346L22.9433 12.7639L22.9841 12.783L23.3267 12.7965L23.362 12.8972L23.4544 12.9598L23.5769 12.9817L23.6993 12.9572L23.8652 12.7913L24.1017 12.3396L24.273 12.3343L24.3056 12.0404L24.2946 11.888L24.2376 11.8226L24.2022 11.7926L24.205 11.7354L24.2485 11.6865L24.33 11.6974L24.3598 11.7381L24.4168 11.8959L24.4604 11.9476L24.6154 11.9911L24.7241 11.9611L24.8193 11.9067L24.9335 11.8794L25.0504 11.8741L25.0885 11.8794L25.2624 12.2848L25.3494 12.3556L25.5044 12.3856L25.5615 12.4074L25.5207 12.4509L25.4065 12.5217L25.4146 12.4891L25.3576 12.4619L25.2761 12.4456L25.2191 12.4537L25.1837 12.6387L25.3496 12.87L25.5617 13.0985L25.5344 13.2156L25.6569 13.3624L25.877 13.4031L26.3011 13.395L26.2848 13.4385L26.255 13.5446L26.2333 13.5881L26.3367 13.5828L26.4344 13.5856L26.5296 13.6074L26.6167 13.6456L26.69 13.5776L26.7715 13.5804L26.8504 13.6376L26.9319 13.7165L27.008 13.6185L27.1956 13.4961L27.2472 13.3954H27.3124L27.3396 13.5315L27.3343 13.6811L27.2935 13.8254L27.2174 13.9424L27.057 14.0785L26.9944 14.1574L26.8639 14.4159L27.0731 14.4785L27.3015 14.3452L27.9974 13.6867L28.0491 13.5587L28.0681 13.3656L28.0926 13.2704L28.1552 13.1152L28.2367 12.9628L28.3181 12.8839L28.3752 13.0798L28.3806 13.2322L28.4104 13.3791L28.5435 13.5613L28.6441 13.7437L28.6006 13.8933L28.5054 14.0294L28.4456 14.1574L28.5733 14.092L28.9539 13.847L29.0109 13.9096L28.9893 13.9776L29.0137 14.1681L29.0109 14.2906L29.1224 14.2007L29.2665 13.9857L29.397 13.9096L29.5031 13.945L29.6635 13.8524L29.745 13.8796L29.8076 13.9641L29.8402 14.0294L29.8783 14.0757L29.9626 14.1002V14.1574L29.9 14.2691L29.8048 14.3533L29.7287 14.4513L29.7124 14.6037L29.813 14.5793L29.8837 14.6119L29.93 14.688L29.9626 14.7941L29.7641 14.8185L29.7613 14.9491L29.813 15.1287L29.7748 15.3056L29.7231 15.2756L29.5844 15.2374L29.6333 15.4007L29.6687 15.4769L29.7122 15.5504L29.7774 15.5096L29.8507 15.5206L30.0274 15.6213L29.8643 15.7683L29.8263 15.8881L29.9296 15.9698L30.188 15.9998L30.2885 16.1059L30.2233 16.3428L30.0276 16.6993L30.0248 16.8163L30.0574 16.917L30.052 16.9878L29.6687 17.0694L29.5518 17.0776L29.4457 17.102L29.1439 17.2681L28.9265 17.3417L28.8802 17.407L28.9535 17.5268L29.1113 17.4778L29.2907 17.5594L29.5843 17.78V17.8426L29.3341 17.8561L29.2661 17.9487L29.2689 18.0739L29.2363 18.1856L29.1411 18.327L29.1113 18.4741L29.133 18.613L29.2037 18.7246H29.2717L29.345 18.6076L29.6494 18.3407L29.7011 18.2509L29.8452 17.8998L29.818 17.78L29.8478 17.5813L29.913 17.3772L29.9944 17.2383L30.1739 17.1241L30.3315 17.0587L30.4539 16.9661L30.53 16.762H30.6007L30.6117 16.9907L30.7013 17.1378L30.8507 17.2413L31.3835 17.4863L31.5657 17.538L31.6772 17.527L31.7207 17.4672L31.7317 17.3993L31.7181 17.3285L31.6774 17.2687L31.555 17.1843L31.4654 17.1896L31.3865 17.2222L31.2994 17.2113L31.1717 17.1433L31.1663 17.108L31.1798 16.9856L31.1717 16.953L31.0928 16.9367L30.7883 16.953L30.8672 16.7843L30.9815 16.7054L31.0441 16.6374L30.9789 16.5094L30.93 16.4822L30.7778 16.4169L30.7261 16.3843L30.6907 16.3326L30.6391 16.1965L30.6009 16.1257L30.5411 16.0631L30.3833 15.9189L30.348 15.8807L30.3615 15.7556L30.4294 15.7202L30.4974 15.7311L30.53 15.7474L30.5952 15.6685L30.625 15.6467L30.6087 15.6113L30.5298 15.4943L30.4917 15.4589L30.3176 15.3365L30.2578 15.233L30.2143 15.0752L30.2196 14.9281L30.3176 14.8628L30.3257 14.792L30.5431 14.49L30.6002 14.4493L30.5513 14.2915L30.3339 14.0602L30.285 13.9431L30.3041 13.7798L30.3667 13.6872L30.4672 13.6681L30.6004 13.717L30.565 13.4204L30.7824 13.1509L31.1169 12.9578L31.4539 12.8843L32.2043 12.9631L32.5631 13.0665L32.5604 13.2161L32.6337 13.3331L32.7398 13.5507L32.8187 13.6459L32.8568 13.6513L33.0309 13.703L33.0363 13.7165L33.0689 13.7465L33.0607 13.8798L33.0989 13.9098L33.175 13.9452L33.3789 14.1085L33.5067 14.1574L33.6207 14.1546L34.1046 14.092L34.3302 14.0376L34.3765 14.0676L34.4444 14.122L34.507 14.1439L34.5478 14.0106L34.5859 13.967L34.643 13.948L34.7109 13.9752L34.7244 14.0296L34.7028 14.1167L34.6702 14.1956L34.6457 14.22L34.76 14.2798L34.9069 14.2907L35.0346 14.2744L35.0891 14.2554L35.1026 14.3969L35.1543 14.4704L35.2522 14.4922L35.4098 14.4787L35.3663 14.4107L35.3472 14.3509L35.3581 14.2883L35.4098 14.2204L35.5241 14.2776L35.6246 14.2394L35.698 14.1387L35.7252 14.0054L35.6763 13.9319L35.3474 13.7794L35.225 13.6924V13.687H35.312L35.5485 13.5483L35.7606 13.4748L35.8557 13.3959L36.0189 13.513L36.22 13.5157L36.3559 13.4369L36.3287 13.3063L36.2689 13.26L36.2172 13.2356L36.1846 13.1974L36.1711 13.1157L36.2065 13.0422L36.2854 12.947L36.3778 12.8681L36.4539 12.8328L36.6089 12.8083L36.9785 12.6641L37.1172 12.5796L37.3157 12.3157L37.4517 12.2178L37.6283 12.2641L37.9437 12.0193L38.0687 11.9485L38.4793 11.8615L38.5744 11.7772L38.6696 11.7609L39.2052 11.4072L39.1861 11.3146L39.1426 11.2602L39.0991 11.222L39.0774 11.192L39.0856 11.105L39.1372 10.9581L39.14 10.8711L38.9959 10.5067L38.7241 10.2456L38.3815 10.1613L38.0389 10.3354L37.6176 10.64L37.5306 10.6807L37.3918 10.7243L37.2696 10.8304L37.0548 11.0589L36.6906 10.8767L36.1659 10.7843L35.6113 10.7652L35.1572 10.8087L34.9017 10.9039L34.7685 10.9176L34.7115 10.8387L34.6707 10.7191L34.5702 10.6239L34.3309 10.4933L34.07 10.3954H33.858L33.6731 10.4933L33.5074 10.6811L33.4341 10.5722L33.4015 10.5069L33.3798 10.4307L33.3907 10.3328L33.4722 10.205L33.5076 10.107L33.5048 10.0391L33.4857 9.94111L33.4667 9.86222H33.445L33.4831 9.76426L33.5022 9.75333L33.5239 9.78056L33.5702 9.79148L33.8285 9.80518V9.79148L34.0568 9.85407L34.103 9.88944L34.1656 9.78889L34.1628 9.66111L34.092 9.54407L33.9533 9.47611L34.062 9.37278L34.2033 9.47352L34.3283 9.65574L34.3963 9.79167H34.4589L34.4561 9.52241L34.6056 9.54407L34.967 9.86241L34.9943 9.79444L35.0268 9.76444L35.1574 9.72907L34.8991 9.35093L35.1546 9.11148L35.4456 9.19574L36.0463 9.6037L36.4731 9.60648L36.5465 9.63648L36.6063 9.50593L36.7178 9.38352L36.7559 9.25018L36.6146 9.09241L36.5413 9.13315L36.5141 9.1413L36.4896 9.12222L36.4189 9.09222L36.4543 9.07593H36.4652L36.4706 9.06778L36.4869 9.02963L36.1198 8.93981L35.7256 8.90444L35.973 8.74389L35.9893 8.69222L35.9159 8.58889L35.7174 8.45833L35.6657 8.385L35.7256 8.27352L35.6087 8.25722L35.5054 8.26259L35.4346 8.30611L35.4102 8.39852L35.0867 8.41759L34.7196 8.67333L34.3635 8.85556L34.0754 8.65148L34.2983 8.51278L34.3309 8.49648L34.3281 8.36056L34.3363 8.29259L34.4287 8.12944L34.5211 7.86556L34.5837 7.76222L34.8337 7.56093L35.0485 7.50926L35.5976 7.51741L35.5296 7.75667L35.6248 7.86537L35.8096 7.89259L36.0107 7.88722L36.1276 7.84907L36.22 7.76481L36.288 7.68055L36.3287 7.64241L36.4565 7.63704L36.5407 7.60982L36.6059 7.55278L36.6767 7.45222L36.7148 7.33519L36.6985 7.25907L36.7013 7.20204L36.8019 7.13667L36.8235 7.16111L37.117 7.23185L37.1659 7.29444L37.2746 7.32167L37.3833 7.29167L37.4322 7.16926L37.3833 7.12296L37.1387 6.95426L37.0544 6.87815L36.9918 6.94889L36.9076 6.81019L36.8559 6.74481L36.8015 6.69037L36.603 6.56259L36.5459 6.50555L36.478 6.36963L36.5324 6.33981L36.8668 6.37519L37.813 6.36982L37.8837 6.35352L37.9435 6.31815L38.0061 6.22833L38.0306 6.11944L38.0115 6.01333L37.9435 5.93167L37.8593 5.97796L37.7804 5.98611L37.707 5.96981L37.6281 5.93167L37.7341 5.85278L37.7911 5.83648L37.8128 5.81463L37.8181 5.7113L37.8046 5.65148L37.6904 5.49093L37.5817 5.53167L37.5002 5.5263L37.4485 5.46926L37.4322 5.36056L37.3426 5.40407L37.2556 5.42037L37.1794 5.40685L37.1169 5.36056L37.2474 5.26259L37.3887 5.25167L37.53 5.25704L37.6606 5.20259L37.753 5.07204L37.7965 4.92519L37.7639 4.83L37.628 4.85444L37.5735 4.75648L37.4893 4.675L37.4404 4.58518L37.5002 4.47648L37.6252 4.41944L37.7502 4.43852L37.9431 4.5337L37.9785 4.56352L38.022 4.60704L38.0791 4.64778L38.1633 4.66685L38.2448 4.64778L38.3672 4.55796L38.4406 4.53352L38.5874 4.54704L38.7043 4.58241L38.7857 4.57963L38.8265 4.4763L38.9433 4.585L39.0031 4.73185L39.0765 4.86241L39.2343 4.91685L39.498 4.9087L39.5822 4.91685L39.6693 4.94407L39.8161 5.02019L39.8976 5.04463L39.9411 5.02556L39.9874 4.98204L40.0228 4.93574L40.0281 4.91667L40.077 4.92204L40.1422 4.9737L40.1857 4.98463L40.2619 4.96556L40.2891 4.91926L40.2619 4.87574L40.1857 4.85389L40.1667 4.81852L40.1422 4.73963L40.1041 4.65537L40.028 4.60093H39.9437L39.8567 4.63352L39.7154 4.72593L39.7207 4.61981L39.6881 4.56537L39.582 4.47556L39.5494 4.46463L39.5059 4.47556L39.4706 4.47833L39.3917 4.28518L39.3265 4.21167L39.3102 4.16815L39.2857 4.13278L39.2043 4.09204L39.1281 4.07852L38.965 4.09759L38.8889 4.09222L38.7665 4.02148L38.6769 3.91278V3.8013L38.8263 3.71148L39.3917 3.90185L39.3372 3.8013L39.253 3.70889L39.1443 3.66815L39.0137 3.71167L39.03 3.65722L39.0328 3.63278L39.0381 3.61648L39.0763 3.58648L38.8398 3.34981L38.78 3.21667L38.8887 3.08074L39.0463 3.14333L39.6144 3.08074L39.8211 3.09167L39.9163 3.12167L40.0848 3.21963L40.2724 3.24148L40.3431 3.2713L40.4709 3.3963L40.4411 3.41259L40.4113 3.47518L40.395 3.54593L40.4085 3.58667L40.5063 3.60296L40.5633 3.54593L40.5906 3.45352L40.5959 3.3637L40.5361 3.20593L40.3893 3.05093L40.2017 2.93407L40.0276 2.88778V2.83074L40.0467 2.80093L40.0657 2.74111L40.0848 2.69759H40.0278L39.8539 2.76833L39.6419 2.695L39.525 2.49389L39.6446 2.19204L39.7778 2.05889L39.9165 1.96648L40.2183 1.82241L40.357 1.72444L40.6289 1.4063L40.6072 1.31648L40.512 1.19963L40.4713 1.10167L40.6289 1.05815L40.8463 1.06907L40.9115 1.05815L40.955 1.01463L40.9767 0.949444L41.0065 0.88963L41.0717 0.865185L41.3598 0.674815L41.38 0.614259L41.8728 0.88963L43.8552 1.99704L45.8385 3.10352L47.3346 3.93944L47.8209 4.21111L49.8033 5.31778L51.7867 6.42537L52.2057 6.65926L53.7691 7.53204L55.7506 8.63981L57.733 9.74759L59.7154 10.8556L61.6968 11.9635L63.6802 13.0707L65.6626 14.178L67.645 15.2863L69.6274 16.3937L71.6107 17.5022L72.318 17.8978L73.5931 18.6109L74.3557 19.0372L74.497 19.2646L74.6602 20.2674L74.6802 20.3893L74.8654 21.5198L74.6974 21.5322L74.6057 21.6115L74.5733 21.7406L74.5867 21.9059L74.412 21.9193L74.1924 22.0368L73.9863 22.2004L73.8517 22.3494L73.8048 22.4317L73.7609 22.535L73.737 22.643L73.7513 22.7406L73.8181 22.8085L73.97 22.8276L74.0169 22.9004L73.9796 23.0533L73.9061 23.2341L73.9328 23.3613L74.3746 23.3356L74.5722 23.3528L74.7668 23.4044L74.9415 23.4885L75.0704 23.607L75.14 23.7496L75.3004 24.3196L75.393 24.5091L75.52 24.6756L76.023 25.037L76.8113 25.6061L77.5987 26.1754L78.3881 26.7446L79.1756 27.313L79.963 27.8822L80.7524 28.4506L81.4787 28.9757L81.5398 29.02L82.3293 29.5885L83.1167 30.157L83.9041 30.7265L84.6935 31.2961L85.4818 31.8648L86.2702 32.4344L87.0585 33.0041L87.8469 33.5728L88.6304 34.1398L88.6935 34.1978L88.8567 34.243L88.9161 34.5031L88.8657 34.8033L88.6937 34.9624L88.442 35.0891L88.6457 35.1713L88.7848 35.1833L88.8652 35.2346L88.8885 35.4398L88.8772 35.6367L88.8426 35.7972L88.7824 35.945L88.4878 36.4467L88.3691 36.5598L88.3157 36.4241L88.3472 36.2407L88.4067 36.0613L88.4367 35.8856L88.3789 35.7226L88.2157 36.2L88.0744 36.3698L87.8737 36.3556L88.0337 36.6044L88.0585 36.6965L88.0907 37.223L88.063 37.3157L87.9998 37.3557L87.8563 37.3106L87.7767 37.3452L87.742 37.392L87.6504 37.5717L87.6346 37.6983L87.7676 37.6907L88.063 37.5693L88.0696 37.7089L88.1711 37.9315L88.1883 38.0176L88.1507 38.0856L87.7991 38.3933L87.7389 38.4726L87.5556 38.8559L87.273 39.2815L87.243 39.348L87.3152 39.4159L87.4159 39.3389L87.5587 39.1578L87.6143 39.2717L87.2144 40.4348L87.1137 40.6387L86.9852 40.8107L86.8881 40.875L86.7815 40.927L86.6972 40.9994L86.6694 41.1263L86.7093 41.2048L86.7822 41.2396L86.8461 41.2963L86.8589 41.4435L86.7348 41.812L86.4687 42.3565L86.1463 42.845L85.8441 43.0383L85.9704 43.0957L85.9094 43.2876L85.9019 43.7196L85.8124 43.8918L85.6952 44.0398L85.5276 44.3843L85.3232 44.6948L85.257 44.895L85.2224 45.1119L85.2194 45.7102L85.1804 45.8009L85.1202 45.8652L85.0683 45.9461L85.0322 46.033L85.0256 46.0639L84.9759 46.3004L84.888 46.4893L84.8196 46.6918L84.8294 46.9163L84.8633 46.9759L84.9783 47.1089L85.0189 47.1702L85.1068 47.5278L85.1452 47.62L85.1993 47.6737L85.403 47.8044L85.5472 47.9268L85.5637 47.9843L85.5998 48.335L85.5772 48.558L85.5126 48.7583L85.4028 48.8937L85.4733 49.125L85.505 49.6459L85.6207 49.8774L85.7215 49.9507L85.835 50.0096L85.9304 50.0731L85.9702 50.1631L85.9844 50.263L86.025 50.3674L86.0852 50.4635L86.1596 50.543L86.213 50.5815L86.2596 50.6004L86.3805 50.6065L86.4437 50.6337L86.4752 50.6943L86.5015 50.7593L86.5435 50.8031L86.66 50.8243L86.9163 50.838L87.0163 50.8954L87.1102 50.9309L87.2102 50.8954L87.2011 50.8213L87.1207 50.7857L86.972 50.7274L86.7902 50.6063L87.0548 50.688L87.2472 50.7743L87.7583 51.2598L88.0628 51.6274L88.3063 51.8022L88.3785 51.8817L88.5176 52.1207L88.5994 52.2063L88.7565 52.3009L88.8346 52.3698L88.8963 52.475L88.9331 52.5961L88.9459 52.7141L89.0031 52.9456L89.1407 53.1998L89.3076 53.3239L89.4565 53.1635L89.497 53.433L89.4543 53.7956L89.4587 54.1248L89.6452 54.3004L89.6391 54.1307L89.6241 54.0589L89.5828 53.9824L89.7518 53.993L89.8856 54.0452L90.1487 54.2048L90.29 54.2426L90.5696 54.2676L90.6854 54.3318L90.8222 54.3811L91.1604 54.3774L91.2265 54.4304L91.2656 54.5583L91.4354 54.7831L91.5128 55.058L91.9546 55.6439L91.9839 55.7083L91.9733 55.7985L91.9283 55.8554L91.8802 55.9039L91.8576 55.963L91.9365 56.5567L91.9267 56.802L91.7883 56.7891L91.6952 56.9072L91.6252 57.1594L91.5711 57.2685L91.4681 57.3504L91.3809 57.3481L91.3148 57.2656L91.2833 57.1072L90.8955 57.3791L90.885 57.3928L90.8113 57.4913L90.7594 57.6572L90.7376 57.8065L90.697 57.9435L90.5904 58.0715L90.4709 58.1661L90.4131 58.1896L90.3357 58.1987L90.2635 58.2276L90.2726 58.2972L90.3139 58.3798L90.3394 58.4526L90.2854 58.558L90.1576 58.5822L90.0111 58.5731L89.8976 58.58L89.9878 58.73L90.0794 58.8339L90.1419 58.9528L90.1426 59.1528L90.102 59.2893L90.0202 59.4802L89.9217 59.6507L89.6774 59.8767L89.57 60.2283L89.4076 61.2548L89.4181 61.4459L89.4565 61.6385L89.5744 61.9372L89.6059 62.1117L89.5511 62.2513L89.5196 62.3833L89.6594 62.7239L89.6144 62.8878L89.2033 63.3694L89.4859 63.3065L89.6874 63.0752L89.8196 62.7657L89.8978 62.4654L90.0406 62.583L90.1511 62.7096L90.1646 62.8431L90.0181 62.9811L90.3654 62.947L90.5231 62.9644L90.6856 63.0789L90.9367 63.3246L90.9667 63.4559L90.9065 63.6867L90.7696 63.9887L90.7576 64.1033L90.8568 64.4289L90.8659 64.7931L90.9065 64.9602L91.0485 64.8722L91.0959 64.8274L91.0667 65.1143L90.9517 65.3776L90.6541 65.852L90.3474 66.6909L90.2122 66.9461L90.1491 66.9157L90.1205 66.918L90.0906 66.9339L90.0183 66.9461L90.083 67.0843L90.0619 67.4183L90.0874 67.5831L89.9552 67.5246L89.9537 67.5991L89.8981 67.7744L89.7478 67.6081L89.6711 67.5511L89.5831 67.5246L89.6561 67.6606L89.6606 67.77L89.5944 67.8513L89.4568 67.9022L89.5741 68.1415L89.65 68.3861L89.6906 68.6459L89.7026 68.93L89.6409 69.4709L89.6694 69.7339L89.9776 70.0515L90.0933 70.2674L90.1737 70.5076L90.212 70.7189L90.1955 71.4989L90.143 71.6813L90.4661 71.7733L90.5209 71.8318L90.5472 71.9063L90.5848 71.9717L90.6856 72.0006L90.8704 72.0143L90.9259 72.0691L90.9304 72.1846L90.9694 72.3824L91.0506 72.5354L91.152 72.6046L91.2624 72.6533L91.3819 72.737L91.4607 72.868L91.5667 73.195L91.6682 73.3456L91.9281 73.5433L91.9837 73.6285L91.8544 73.665L91.7446 73.6581L91.6785 73.6354L91.5431 73.5311L91.5252 73.5113L91.3478 73.3454L91.1607 73.1156L91.0202 73.0333L90.8428 73.0578L90.7391 73.1004L90.685 73.1148L90.6467 73.1415L90.4596 73.4093L90.5994 73.4626L91.157 73.4093L91.0344 73.5615L91.0037 73.6589L91.075 73.713L91.2554 73.7289L91.4124 73.7791L91.4139 73.9093L91.3598 74.0941L91.3478 74.3026L91.3704 74.3376L91.453 74.4015L91.4741 74.4365L91.4763 74.613L91.4741 74.6281L91.4244 74.7224L91.4168 74.7559L91.4363 74.7787L91.4798 74.7954L91.5218 74.8243L91.543 74.8806L91.5159 74.9704L91.4626 75.0313L91.4257 75.0983L91.4444 75.2019L91.512 75.3518V75.4226L91.4737 75.5163L91.6044 75.4881L91.7637 75.412L91.9124 75.3176L92.0146 75.2324L92.1259 75.2248L92.2596 75.3481L92.6572 75.8544L92.815 76.1231L92.8593 76.4117L92.7135 76.7063L92.7067 76.7726L92.7607 76.8494L92.8306 76.927L92.8711 76.997V77.1013L92.82 77.2894L92.808 77.38L92.8372 77.6907L92.8057 77.8028L92.6817 77.9613L92.5576 78.0702L92.4765 78.0885L92.3863 78.0748L92.2398 78.0893L92.1248 78.1433L92.0774 78.2302L92.0796 78.3604L92.1089 78.5417L92.1915 78.5006L92.2967 78.4815L92.4876 78.4724L92.5102 78.3696L92.5568 78.33L92.6478 78.3765L92.7065 78.4381L92.738 78.4633L92.7763 78.4724L92.8785 78.5159L92.8935 78.6135L92.8731 78.7202L92.8709 78.7926L92.9341 78.8787L93.155 79.083L93.2331 79.2674L93.3422 79.778L93.4391 79.9198L93.5639 80.0081L93.5398 80.0683L93.4661 80.127L93.445 80.2048L93.4907 80.3061L93.5357 80.3709L93.6581 80.493L93.7107 80.5952L93.6793 80.7857L93.7635 80.9672L93.6883 81.0281L93.502 81.0998L93.3465 81.2478L93.3052 81.327L93.3804 81.362L93.7472 81.3537L93.8163 81.362L93.8463 81.4291L93.9193 81.6822L93.977 81.7783L94.1289 81.8896L94.2011 81.9598L94.2628 82.0667L94.3244 82.333L94.2576 82.5244L94.0839 82.6159L93.8163 82.5839L93.8944 82.7105L94.1574 82.9143L94.1665 82.9967L94.0672 83.063L93.7485 83.1987L93.4644 83.2689L93.46 83.3765L93.5765 83.6139L93.5585 83.7887L93.4909 83.9207L93.3835 84.0268L93.2483 84.1254L93.4857 84.0818L93.9172 83.5576L94.1067 83.5781L94.2298 83.6476L94.5057 83.6278L94.7018 83.8254L94.8235 83.8413L94.9589 83.8352L95.083 83.8581L95.313 84.0359L95.8728 84.9694L95.89 85.51L95.9667 85.7909L96.0613 85.6794L96.1087 85.5252L96.1102 85.3619L96.0635 85.2176L95.98 85.0291L96.0004 84.9496L96.1102 84.9389L96.2868 84.9648L96.4213 85.0044L96.7069 85.1296L96.8872 85.1724L97.2563 85.3069L97.3015 85.2961L97.3293 85.3098L97.3593 85.412L97.342 85.5335L97.2811 85.6594L97.2519 85.7969L97.3278 85.9541L97.3555 86.0411L97.2872 86.0885L97.1978 86.1283L97.17 86.1863L97.2181 86.2618L97.2663 86.2672L97.3152 86.2457L97.3594 86.2389L97.5135 86.3344L97.5857 86.3489L97.6172 86.2748L97.6241 86.177L97.6526 86.122L97.7096 86.1113L97.8067 86.1518L97.9194 86.2298L98.1337 86.4215L98.2479 86.5009L98.2465 86.4154L98.2622 86.3557L98.287 86.3054L98.3111 86.2389L98.3841 86.2893L98.4389 86.303L98.4944 86.2854L98.5689 86.2387L98.4118 86.193L97.9331 85.9891L98.2479 85.5981L98.3706 85.638L98.4239 85.7441L98.4517 85.8746L98.5005 85.9893L98.5816 86.0557L98.7891 86.1565L98.8844 86.2389L98.9348 86.3222L99.2324 86.9906L99.3256 87.0776L99.3489 87.0615L99.66 87.1241L99.7042 87.1417L100.003 87.0546L100.045 86.8689L99.935 86.7237L99.7726 86.7565L99.7298 86.6457L99.7615 86.5648L99.8456 86.5174L99.962 86.5005L100.048 86.5326L100.088 86.6098L100.12 86.7054L100.174 86.7887L100.254 86.9583L100.169 87.1089L100.017 87.2509L99.8987 87.3983L99.9572 87.393L100.08 87.403L100.138 87.3983L100.038 87.717L100.025 87.8202L100.05 87.8913L100.101 87.9624L100.144 88.0494L100.138 88.1733L99.992 88.4454L99.698 88.7415L99.3667 88.9804L98.7682 89.1902L98.4189 89.4524L97.873 89.9963L97.6993 90.2246L97.5915 90.3306L97.3337 90.4267L96.1789 91.3341L96.0033 91.4263L95.0507 91.8354L94.1259 92.4759L93.892 92.575L92.343 92.9163L91.6309 92.9698L91.4724 93.0224L91.3263 93.1031L89.5157 94.5611L89.3 94.6798L89.0681 94.7498L88.8228 94.7468L88.628 94.6748L88.2518 94.4685L88.0343 94.4248L87.7498 94.5543L87.43 94.6174L86.2226 94.6165L85.9106 94.6885L85.6633 94.9055L85.5011 95.0194L85.3083 95.0681L85.1861 95.1459L84.8187 95.4981L84.6498 95.5878L84.5476 95.5839L84.3481 95.5361L84.2374 95.5244L84.1372 95.5439L83.9502 95.6315L83.6754 95.7065L83.5274 95.833L83.3193 96.0967L82.4096 96.7169L82.1796 97.0032L82.1744 97L81.9039 96.8415L81.1718 96.6565L80.8444 96.488L80.3348 95.9496L80.0035 95.7189L79.5769 95.6517L79.4852 95.677L79.2809 95.7628L79.175 95.7813L79.0652 95.7511L78.8839 95.6178L78.7943 95.5876L78.7646 95.5691L78.7159 95.4824L78.6996 95.4591L78.6485 95.4611L78.6017 95.4835L78.573 95.5107V95.5254L78.5009 95.5239L78.2924 95.5196L77.7646 95.6102L77.6778 95.7026L77.5957 95.7241L77.2196 95.7474L77.0668 95.7844L76.4865 96.1154L76.4235 96.1972L76.3996 96.3354L76.2574 96.7609L76.1706 96.8757L76.1839 97.0452L75.9624 97.4415L75.9137 97.6528L75.9509 97.7785L76.0063 97.8944L76.0235 98.0104L75.9482 98.1361L75.8326 98.2394L75.6407 98.3748L74.9689 98.672L74.5576 99.0033L74.3857 99.1017L74.1881 99.1368L73.8952 99.1398L73.6948 99.1789L73.3607 99.3563L73.168 99.3972L73.0563 99.448L72.9846 99.5648L72.932 99.6954L72.8806 99.7889L72.8031 99.8561L72.7411 99.8893L72.5656 99.9185H72.3546L71.8974 99.7889L71.822 99.7509L71.6578 99.5765L71.5509 99.5257L71.4641 99.5317L71.3924 99.5668L71.3198 99.6137L71.2302 99.6546L70.8989 99.6907L70.4961 99.6469L69.7115 99.4674L69.387 99.3105L69.0644 99.0376L68.8135 98.7219L68.7028 98.4315L68.5576 98.5172L68.4756 98.5796L68.3887 98.6176L67.5344 98.6946L67.398 98.6683L67.1689 98.5193L66.9867 98.5056L66.8989 98.4607L66.7424 98.5133L66.3243 99.0104L66.0674 99.3894L65.9844 99.4674L65.8785 99.5239L65.5378 99.6544L65.4481 99.7285L65.3985 99.7889L65.3307 99.8318L65.0844 99.8591L64.947 99.9069L64.3676 100L64.2081 99.9824L63.9761 99.8665L63.9246 99.847L63.8665 99.7974L63.8111 99.5761L63.7385 99.5254H62.66L62.6161 99.5459L62.5683 99.5898L62.5044 99.6337L62.2143 99.6776L61.8783 99.7741L61.7428 99.7887L61.6472 99.7615L61.5041 99.6737L61.3933 99.6543L61.0126 99.7196L60.9067 99.6456L60.8237 99.475L60.7959 99.2811L60.8552 99.1398L60.7931 98.9517L60.7722 98.7383L60.7207 98.562L60.5718 98.49L60.4878 98.4706L60.4248 98.4219L60.3646 98.3585L60.2872 98.2972L60.1985 98.2593L59.9943 98.2057L59.9035 98.1687L59.5665 97.9602L59.3737 97.8735L59.2411 97.8822L59.0626 97.9348L58.8898 97.8431L58.8069 97.665L58.8946 97.4546L58.7352 97.2607L58.612 97.1994L58.2637 97.2033L58.2044 97.1869L57.943 97.0748L57.565 97.0046L57.4428 97.0883L57.1546 97.4544L56.9915 97.583L56.5276 97.6678L56.3578 97.7691L56.4294 97.9755L56.3178 98.0485L56.2156 98.1743L56.1383 98.3048L56.0733 98.4987L55.9807 98.5581L55.4826 98.6896L55.472 98.6887L55.2554 98.8115L55.1035 98.7726L54.9546 98.7132L54.8535 98.7209L54.842 98.8826L54.737 98.8485L54.695 98.7959L54.6711 98.7307L54.6215 98.6596L54.5394 98.5963L54.4965 98.5915L54.4602 98.613L54.4 98.6305L54.3981 98.6393L54.275 98.6889L54.235 98.6928L54.0078 98.682L53.9219 98.6539L53.8607 98.5935L53.8444 98.5418L53.4589 98.5526L49.6067 98.5135L49.5915 98.4317V97.9437L49.5706 97.8063L49.5248 97.6954L49.4809 97.6105L49.46 97.5541L49.4209 97.485L49.3341 97.41L49.2472 97.3107L49.168 97.0555L48.9952 96.9115L48.9561 96.8404L48.8865 96.6467L48.7137 96.49L48.4904 96.3722L48.0915 96.2369L48.0161 96.227L47.9474 96.2513L47.83 96.3544L47.7689 96.3613L47.7098 96.2893L47.5056 95.9057L47.5609 95.8765L47.6402 95.8143L47.6946 95.7831V95.7248L47.5483 95.6409L47.4283 95.503L47.3463 95.32L47.3167 95.105L47.2937 95.0204L47.2365 94.9474L47.163 94.8959L46.9959 94.8541L46.952 94.7948L46.9233 94.712L46.8746 94.6196L46.4346 94.2393L46.365 94.0739L46.3383 93.8433L46.2152 93.4572L46.1752 93.2646L46.2209 93.0274L46.49 92.6804L46.6598 92.2965L46.6798 92.1992V91.7822L46.7991 91.1943L46.7637 90.9483L46.82 90.8687L46.9326 90.7843L46.9087 90.6628L46.8533 90.5957L46.7931 90.552L46.7541 90.4985L46.7378 90.4568L46.6796 90.3704L46.8019 90.1722L46.7943 89.9672L46.7065 89.7778L46.508 89.5418L46.4831 89.4865L46.4907 89.3059L46.465 89.1961L46.402 89.1776L46.3218 89.1824L46.2435 89.1456L46.1691 89.0387L46.108 88.9154L46.065 88.7852L46.0498 88.6609L46.0689 88.5406L46.1548 88.3298L46.1748 88.2406L46.1357 88.0659L45.9581 87.768L45.917 87.5652L46.1041 86.5406L46.1068 86.4406L46.0868 86.3241L46.0096 86.1194L45.9218 85.6209L45.6154 84.9285L45.5448 84.6085L45.5639 84.5154L45.6459 84.3322L45.665 84.2246L45.6526 84.1228L45.5448 83.8018L45.267 83.4074L45.162 83.2146L44.24 82.0676L44.2294 82.0289L44.0624 81.867L44.0204 81.8437L43.8152 81.6306L43.7617 81.5559L43.7159 81.3787L43.693 81.2111L43.6348 81.0872L43.3589 80.9865L42.4607 80.0337L42.4561 80.0315L42.1935 79.9107L42.0341 79.7355L41.9644 79.695L41.6515 79.3137L41.5235 79.242L41.4357 79.1376L41.4235 79.1294L41.137 78.9402L40.8163 78.8231L40.6665 78.9576L40.5539 79.0863L40.3363 79.2672L40.1989 79.5024L40.3707 79.9206L40.3535 80.0841L40.2887 80.3667L40.282 80.538L40.2496 80.66L40.1733 80.7559L40.0368 80.8459V80.9098L39.8852 81.0754L39.7774 80.9968L39.6772 80.8109L39.4548 80.622L39.1933 80.4652L38.9767 80.3761L38.737 80.2183L38.5013 79.9793L38.2483 79.8215L37.952 79.9037L37.7078 80.042L37.473 80.073L37.4683 80.0722L37.2257 80.0294L36.9441 79.9404L36.6311 79.9074L36.4068 80.0013L36.1893 80.1291L35.902 80.1987L35.5183 80.1717L35.3398 80.1165L35.1976 80.0157L35.0865 79.8406L34.9276 79.4931L34.7567 79.3315L34.2374 78.9607L34.0722 78.9026L33.9902 78.9181L33.8441 79.015L33.7648 79.0402L33.6541 79.0296L33.4622 78.9715L33.3333 78.9724L33.2722 79.0024L33.1452 79.108L33.0613 79.137L33.0269 79.1167L32.7563 79.0093L32.5076 78.9541L32.4237 78.9202L31.8548 78.478L31.3928 78.0165L31.2306 77.9217L31.0511 77.9294L30.8756 78.0194L30.7324 78.1715ZM95.1457 61.6394L95.287 61.7965L95.272 62.0969L95.1248 62.7248L94.8617 63.3302L94.7383 63.4985L94.7204 63.5676L94.7219 63.6267L94.7098 63.6874L94.6467 63.8785L94.6189 63.9285L94.5385 64.0378L94.522 64.1039L94.477 64.2154H94.3672L94.1117 64.1394L93.8433 64.2274L93.7261 64.4293L93.6698 64.6433L93.5818 64.7693L93.2167 64.9135L93.0296 64.9559L92.8763 64.9605L92.69 64.8846L92.4457 64.6228L92.2968 64.5089L92.3833 64.4883L92.5396 64.4822L92.6178 64.4504L92.6193 64.4246L92.6433 64.3578L92.6733 64.297L92.6869 64.2948L92.708 64.2243L92.7606 64.2076L92.8237 64.2122L92.8763 64.1956L93.2746 63.8078L93.4083 63.5946L93.3226 63.49L93.3744 63.3337L93.4804 63.2609L93.6246 63.2411L93.7937 63.2426L93.9478 63.2115L94.2363 63.0772L94.3941 63.0454L94.343 62.9702L94.2557 62.9565L94.0167 62.9815V62.9239L94.128 62.8967L94.2257 62.845L94.3941 62.7267L94.5917 62.6448L94.6767 62.572L94.7405 62.3331L94.815 62.1944L94.9067 62.0731L94.9885 62.0217L95.0335 61.9731L95.1274 61.7328L95.1457 61.6394ZM91.893 49.3913L91.9268 49.4752L92.1756 49.9154L92.1335 50.317L91.9005 50.5961L91.5698 50.7072L91.2302 50.6074L91.0965 50.4872L90.9717 50.3239L90.8815 50.1378L90.6996 49.3461L90.7207 49.207L90.5133 49.2706L90.5148 49.3711L90.6013 49.4935L90.6576 49.6198L90.6463 49.8285L90.6011 49.8793L90.3433 49.7831L90.3839 49.6046L90.3313 49.4617L90.0907 49.2069L89.8006 48.7578L89.7194 48.6898L89.6489 48.6309L89.5233 48.6996V48.7676L89.5774 48.7759L89.5841 48.8031L89.5767 48.8439L89.5865 48.8946L89.4624 48.8083L89.4233 48.9535L89.4557 49.163L89.555 49.2704L89.5324 49.2824L89.5181 49.3028L89.4828 49.3072L89.397 49.2702L89.3135 49.2165L89.282 49.1809L89.2609 49.1431L88.795 48.6041L88.7078 48.4581L88.5898 48.0409L88.5087 47.8739L88.8402 47.468L88.765 46.9313L88.5937 46.3546L88.6343 45.8331L88.6237 45.7198L88.6328 45.6109L88.6583 45.5165L88.6974 45.4478L88.7252 45.4969L88.7965 45.592L88.8235 45.6433L88.9776 45.3924L89.3076 45.1174L89.4602 44.9398L89.5361 44.6474L89.6007 43.9607L89.7691 43.793L89.8772 44.0763L90.1591 44.5854L90.2154 44.9117L90.15 45.3022L90.1463 45.4472L90.1748 45.59L90.2559 45.8544L90.2724 45.9911L90.3144 46.1354L90.4918 46.427L90.5941 46.8526L90.6504 46.8852L90.8465 46.9161L90.8667 47.0407L90.8433 47.1541L90.8035 47.2689L90.7831 47.3944L90.7876 47.5426L90.8056 47.6552L90.8431 47.7587L90.9093 47.8728L90.7987 48.0096L90.7513 48.0852L90.7196 48.1902L90.8533 48.1335L90.9361 48.1902L91.0059 48.2944L91.0983 48.3754L91.105 48.2378L91.1659 48.147L91.2404 48.1402L91.2863 48.2535L91.3283 48.2481L91.3396 48.242V48.2261L91.3509 48.1898L91.4998 48.2283L91.5013 48.0348L91.4578 47.7589L91.4774 47.5556L91.6381 47.768L91.7207 48.0319L91.893 49.3913ZM92.8128 40.9687L92.8172 40.6441L92.8533 40.4961L92.9391 40.3678L92.882 40.2681L92.9978 40.2485L93.3224 40.3044L93.248 40.1731L93.0548 39.9361L93.0022 39.7928L93.1465 39.8298L93.3283 39.8433L93.4915 39.8154L93.5817 39.7293L93.4757 39.7052L93.3856 39.6713L93.3111 39.6193L93.2533 39.5393L93.3976 39.5407L93.6185 39.4833L93.7643 39.4757L93.9311 39.5626L94.0228 39.5361L94.0859 39.3489L93.8994 39.4183L93.6741 39.355L93.2531 39.0893L93.1622 39.1481L93.0494 39.1135L92.945 39.0191L92.8759 38.8991L92.9752 38.9398L93.0406 38.9874L93.103 39.0056L93.1902 38.9626L93.2789 38.9898L93.593 39.0374L93.7643 39.032L93.6952 38.9626L93.7657 38.783L93.7311 38.6298L93.6318 38.5807L93.507 38.7106L93.5552 38.5219L93.5815 38.4622L93.5274 38.3935L93.4552 38.3481L93.3628 38.3444L93.2531 38.4041L93.2743 38.3015L93.2885 38.2593L93.3224 38.2035L93.2848 38.0933L93.2969 37.962L93.345 37.8639L93.4148 37.8556L93.5239 37.9076L93.5735 37.8759L93.5661 37.7959L93.5074 37.7024L93.4278 37.6556L93.1287 37.5409L93.1557 37.4526L93.2835 37.3493L93.3226 37.2535L93.1904 37.3169L93.1152 37.1456L93.1648 37.0113L93.2896 36.9676L93.4506 37.0633L93.4867 36.9146L93.383 36.828L93.2326 36.7472L93.1289 36.6206L93.1244 36.5135L93.1807 36.2541L93.192 36.113L93.2131 36.1606L93.235 36.1991L93.2613 36.2263L93.2891 36.2354L93.3604 36.2761L93.4107 36.3644L93.4415 36.4535L93.4506 36.4943L93.5528 36.48L93.5874 36.4113L93.6068 36.3352L93.6639 36.2989L93.7106 36.3313L93.8594 36.48L93.8909 36.523L94.317 36.7674L94.3944 36.8398L94.4004 36.9461L94.423 37.0389L94.4613 37.0728L94.5222 37.0004L94.5156 36.9257L94.4802 36.8367L94.4817 36.7333L94.5915 36.6209L94.6013 36.6889L94.6335 36.7583L94.647 36.8111L94.723 36.6587L94.777 36.4731L94.7974 36.2981L94.7794 36.1774L94.9043 36.2589V36.4481L94.8802 36.6693L94.9846 37.0163L94.8809 37.1837L94.7163 37.3135L94.5915 37.3754L94.6374 37.5398L94.6081 37.7194L94.5518 37.9013L94.5226 38.077L94.6113 38.3548L94.6196 38.4046L94.7046 38.3654L94.7122 38.277L94.6957 38.1865L94.7107 38.1404L94.828 38.1917L94.843 38.3546L94.7798 38.7107L94.7768 39.2572L94.7107 39.4067L94.7798 39.4761L94.6693 39.6059L94.395 40.4256L94.3242 40.5252L94.2859 40.5644L94.2724 40.6233L94.2687 40.7804L94.2267 40.9026L94.1456 40.9237L94.0922 40.8489L94.1372 40.6835H94.0868L94.0244 40.8344L93.9922 40.8896L93.9487 40.9372L93.9794 41.0354L93.9306 41.1389L93.8269 41.2348L93.6961 41.3178L93.6074 41.3419L93.5826 41.307L93.6141 41.2481L93.6959 41.1968V41.1274L93.5644 41.1606L93.4652 41.2224L93.3893 41.2376L93.3231 41.1274L93.0015 41.138L92.8678 41.0943L92.8128 40.9687ZM93.7268 64.9693L94.0233 64.9363L94.232 64.9472L94.2759 65.0791L94.177 65.2L93.7926 65.6285L93.5182 65.8811L93.3644 65.8702L93.3096 65.7165L93.3646 65.4748L93.4744 65.277L93.7268 64.9693ZM88.962 44.2644L88.9557 44.3915L89.0004 44.5567L89.0767 44.6709L89.0131 44.7661L89.0704 44.8867L89.0705 45.0707L88.9563 45.0961L88.8546 45.0898L88.8356 44.9565L88.8544 44.7913L88.8796 44.5309L88.8541 44.3404L88.962 44.2644ZM92.1883 40.7883L92.2694 40.8315L92.4046 40.9178L92.502 41.0528L92.6104 41.2202L92.7563 41.2741L92.8968 41.3117L92.9889 41.4304L92.9674 41.5439L92.7189 41.5604L92.5567 41.4309L92.4159 41.2637L92.3348 41.145L92.2267 41.0317L92.1293 40.8967L92.1883 40.7883ZM31.5161 7.56944L31.6085 7.52593L31.932 7.51778L32.1306 7.48241L32.2339 7.47963L32.31 7.51778L32.3589 7.59389L32.3643 7.6537L32.3261 7.67555L32.2472 7.64296H32.1902L32.2146 7.7163L32.2935 7.82241L32.3098 7.86056L32.3017 7.97481L32.2772 8.01833L32.2365 8.04018L32.1141 8.16537L31.8068 8.39926L31.777 8.36389L31.7444 8.35296L31.7146 8.34759L31.6793 8.33667L31.508 8.16537L31.4346 8.06482L31.4563 8.0213L31.497 7.975L31.4861 7.87444L31.4507 7.76555L31.4209 7.70019H31.5487L31.5161 7.56944ZM33.188 10.5887L33.177 10.6404L33.1335 10.7437L33.093 10.7276L33.0115 10.733L32.9733 10.7928L33.0657 10.9343L32.7722 10.9098L32.5765 10.7765L32.408 10.6106L32.1906 10.4935L32.1524 10.5969L32.0791 10.6567L31.9785 10.6676L31.8617 10.6187L31.4267 10.2841L31.2663 10.2352L30.8041 10.2217L30.5811 10.1591L30.38 10.015L30.2767 9.98241L30.1896 10.0206L30.1081 10.0343L30.0293 9.92L30.032 9.83833L30.0809 9.75407L30.4235 9.39778L30.5131 9.27259L30.5322 9.16111L30.4643 9.13389L30.2059 9.10944L30.1624 9.09315H30.0917L30.0454 8.99518L29.9041 8.84556L29.847 8.715L29.9367 8.72037L29.9993 8.7313L30.0456 8.76667L30.0919 8.84556L30.2441 8.76944L30.3528 8.69593L30.5322 8.53278L30.6056 8.44296L30.6463 8.41296L30.7278 8.39944L30.7685 8.41296L30.937 8.48648L30.9806 8.53278L30.9533 8.68241L30.8719 8.78574L30.8311 8.88907L30.9181 9.03055L31.3939 9.28889L31.6385 9.20185L31.6793 9.19092L31.7146 9.12296H31.7935L31.8668 9.14482L31.8967 9.16111L32.3615 9.04963L32.4348 9.06315L32.4783 9.19648L32.5491 9.33241L32.5735 9.47389L32.3913 9.77037L32.4728 9.84389L32.8207 9.92V9.98796L32.7065 10.0533L32.7907 10.1811L33.0654 10.4315L33.1117 10.4533L33.1524 10.4424L33.1822 10.4478L33.1931 10.5213L33.188 10.5887ZM21.4876 13.2169L21.4224 13.2876L21.0772 13.5624L20.9359 13.625L20.8272 13.5706L20.7565 13.4454L20.732 13.3067L20.7565 13.168L20.8543 12.9611L20.8515 12.8331L20.7944 12.738L20.6096 12.5802L20.5363 12.455L20.6613 12.3517L20.588 12.2972L20.4085 12.2891L20.2209 12.3354L20.1583 12.0117L20.2915 12.0389L20.392 11.9681L20.4546 11.843L20.4791 11.6987L20.2724 11.7694L20.2969 11.5328L20.4791 11.0594H20.5361L20.5443 11.2444L20.6422 11.3098L20.7537 11.3615L20.7944 11.4404L20.9006 11.6989L20.9359 11.99L21.0174 12.2348L21.2676 12.3356L21.3763 12.3437L21.3707 12.387L21.3191 12.4822L21.3 12.6481L21.3463 12.7843L21.4333 12.912L21.4985 13.0481L21.4876 13.2169ZM27.1339 12.387L27.0306 12.5422L26.9572 12.6865L26.9954 12.8333L27.0144 12.8061L27.0198 12.7952L27.0252 12.7843L27.0606 12.7652L27.0252 12.9094L26.9083 13.0346L26.7724 13.1054L26.6772 13.0863L26.5902 13.1761L26.5006 13.2359L26.4028 13.255L26.3022 13.2169L26.2396 13.0617L26.218 12.8739L26.1663 12.7161L26.0141 12.6481L25.9924 12.5311L26.2344 11.8237L26.2752 11.9298L26.3513 11.9924L26.4302 11.987L26.4928 11.8809H26.5498L26.5226 12.2728L26.6122 12.368L26.865 12.3354L26.8352 12.2565L26.808 12.0117H26.865L26.9656 12.0307L27.0661 11.9791L27.1476 11.9926L27.1857 12.2076L27.1339 12.387ZM22.8741 12.0769L22.692 12.5231L22.5752 12.613L22.4202 12.6756L22.2626 12.7081H22.1239L22.1348 12.7191L22.105 12.7381L22.0587 12.7572L22.0233 12.7654L21.9907 12.7491L21.9935 12.7137L22.0017 12.6756L21.9935 12.6483L21.9637 12.6048L21.9502 12.545L21.9148 12.5206L21.8089 12.5804L21.8659 12.4633L21.9965 12.3491L22.0917 12.2239L22.0563 12.077L21.972 12.047L21.7763 12.0715L21.7409 12.0117L21.7763 11.93L21.8606 11.8783L21.9937 11.8239L22.165 11.7259L22.3172 11.6144L22.4667 11.5274L22.6352 11.5083L22.6406 11.6117L22.6541 11.6524L22.6922 11.6987L22.7548 11.6333L22.7087 11.7041L22.6761 11.7802L22.6489 11.8619L22.6354 11.9489H22.6924L22.782 11.8209L22.8528 11.8372L22.8881 11.938L22.8741 12.0769ZM20.1474 10.6622L20.0957 10.6187L20.0494 10.4881L20.0522 10.3604L20.093 10.2352L20.1581 10.1074L20.2207 10.1781L20.2098 10.3115L20.2424 10.4311L20.3185 10.5181L20.4435 10.5481L20.6093 10.5754L20.5767 10.6298L20.4081 10.7141L20.362 10.7685L20.2559 10.7331L20.1474 10.6622ZM20.528 7.5287L20.6285 7.41444L20.7181 7.28667L20.7317 7.07444H20.7724L20.7996 7.08796L20.8513 7.13685L20.835 7.33537L20.7561 7.47685L20.4789 7.69981L20.528 7.5287ZM21.3 5.99741L21.2837 6.25315L21.1994 6.51704L20.9194 7.01204L20.9846 6.59315V6.43815L20.99 6.47074V6.49518L21.0009 6.51148L21.0472 6.50611L21.0444 6.16352L21.0091 6.00852L20.9194 5.86981L21.1967 5.76926L21.2346 5.77463L21.27 5.81278L21.4874 5.93241L21.6124 6.07926L21.6504 6.14722L21.6748 6.24778L21.3 5.99741Z" stroke="white" stroke-width="6" mask="url(#path-1-inside-1_479_953)"/>
</svg>
