<svg width="96" height="100" viewBox="0 0 96 100" fill="none" xmlns="http://www.w3.org/2000/svg">
<mask id="path-1-inside-1_479_955" fill="white">
<path d="M16.2022 92.8324L16.01 92.7726L15.743 92.6894L15.5044 92.722L15.2741 92.8254L14.9983 92.8943L14.7028 92.8561L14.4035 92.7691L14.1133 92.7256L13.845 92.8217L13.6972 93.072L13.5839 93.7976L13.4931 94.0643L13.3861 94.1531L13.0924 94.2856L13.0289 94.3378L12.9691 94.3872L12.9183 94.4924L12.8793 94.7444L12.8457 94.8606L12.6572 95.178L12.4278 95.4718L11.647 96.2137L11.3759 96.3752L11.2463 96.4133L11.1067 96.4243L10.967 96.4478L10.8293 96.5294L10.7041 96.7689L10.597 97.4493L10.5063 97.7159L10.3159 97.8937L9.59963 98.1731L9.08167 98.4507L8.99037 98.4996L8.76185 98.7354L8.60222 99.1181L8.42092 99.1563L7.22945 99.8167L6.84407 99.96L6.47481 100L6.13204 99.902L5.83093 99.6209L5.66037 99.2491L5.6187 98.527L5.54074 98.1587L5.04741 97.4422L4.85519 97.3443L4.85333 97.3439L4.69759 97.3206L4.54518 97.3659L4.38296 97.4676L4.22426 97.6563L4.11907 98.0028L3.97407 98.088L3.85259 98.0444L3.47907 97.8178L3.27055 97.7706L2.84444 97.8467L2.55074 97.9991L2.27963 98.195L1.91778 98.3981L1.59074 98.487L1.22259 98.5143L0.517036 98.4761L0.682037 97.4457L0.678332 97.1102L0.609445 96.9124L0.404443 96.5606L0.395369 96.3737L0.561295 95.9293L0.578517 95.7806L0.475184 95.4015L0.294814 95.133L0.150556 94.85L0.148703 94.4274L0.362778 93.3426L0.379074 93.027L0.306481 92.6878L0.0479635 92.013L0 91.7046L0.0507411 91.4943L0.0537025 91.4893L0.14148 91.34L0.208517 91.1694L0.187593 90.91L0.119629 90.5798L0.108702 90.4057L0.13222 90.2461L0.328149 89.9378L0.846852 89.7618L1.04463 89.5261L1.09352 89.2722L1.13889 88.2167L1.09907 87.8467L0.943149 87.163L0.957591 86.7967L1.17704 85.4146L1.235 85.3239L1.33296 85.2513L1.41815 85.1624L1.44074 85.0263L1.4 84.9211L1.26389 84.7343L1.23481 84.6291L1.30556 84.4369L1.4687 84.3896L1.65556 84.3769L1.79704 84.2807L1.83519 84.0359L1.77722 82.9604L1.69555 82.6902L1.51167 82.3052L1.46333 82.2041L1.41981 81.8741L1.7987 79.6641L1.85148 79.3569L2.14259 77.6357L2.2487 77.0081L2.55426 75.2181L2.81722 74.5726L2.91055 74.2426L2.89519 73.907L2.68759 73.1417L2.71296 72.8389L2.86611 72.3637L3.63778 71.2883L3.73389 71.0907L3.94055 71.1724L4.06926 71.283L4.18889 71.3302L4.36296 71.2196L4.42463 71.0854L4.98593 68.1981L5.10833 67.8209L5.30963 67.4926L6.23667 66.4215L6.57 66.0363L6.62574 65.9154L6.87833 65.367L6.83481 64.6833L6.51019 63.265L6.51926 62.9041L6.735 61.4213L6.63889 60.5135L6.66426 60.3357L6.99796 59.6411L7.22463 59.5096L7.61019 59.2126L7.85926 59.0207L8.59556 58.688L10.4691 58.2626L10.6396 58.1656L10.83 57.9415L11.1474 57.3502L11.2019 57.2867L11.2835 57.0037L11.6789 56.5883L11.8004 56.2628L11.7061 55.5491L11.7007 55.2098L11.9239 55.0004L11.9856 54.847L12.0309 54.6657L12.0672 54.2902L12.1144 54.1759L12.6494 53.6272L12.8009 53.5511L12.9506 53.5039L13.112 53.533L13.3024 53.6863L13.6054 53.8278L13.8202 53.5993L14.0333 53.2456L14.3272 53.017L14.5322 52.9989L14.9294 53.0424L15.1652 53.017L15.497 52.93L15.7419 52.8285L15.965 52.6726L16.3159 52.3752L16.3178 52.3728L16.5802 52.6409L16.8333 52.7752V52.8941L16.4563 53.0698L16.477 53.385L16.5959 53.757L16.4874 54.0928L16.6476 54.4389L16.7922 54.6611L16.8696 54.9039L16.8335 55.2913L16.7509 55.4411L16.6219 55.6065L16.5546 55.777L16.658 55.9578H16.8078L17.0041 55.8337L17.3243 55.5444L17.2933 55.7615L17.2469 55.9578L17.2313 56.1385L17.2881 56.3193L17.3915 56.185L17.438 56.0404L17.5154 55.8957L17.6807 55.782L17.8461 55.9731L18.058 56.0713L18.2956 56.0817L18.5228 56.0093V55.9007L18.4504 55.88L18.285 55.7818L18.4761 55.7561L18.5691 55.7148L18.5794 55.6476L18.5226 55.5443L20.4596 53.4933L20.537 53.1781V52.8991L20.568 52.6304L20.7487 52.3565L23.6878 48.9569L24.2198 47.9183L24.5348 47.4791L25.0204 47.2104L25.6144 47.0502L26.1156 46.8022L26.3428 46.27L26.4617 46.3217L26.5806 46.4044L26.7976 46.2752L26.9887 46.3009L27.1902 46.3733L27.4226 46.4043L27.6394 46.3474L28.6983 45.7791L29.7056 44.8333L30.4183 44.3528L30.6611 44.0685L30.9039 43.6241L31.0124 43.2261L31.1209 42.3063L31.2759 41.9446L31.782 42.0944L32.1591 41.8567L32.3967 41.4122L32.4896 40.7663L32.5257 40.6785L32.567 40.6061L32.598 40.508V40.0841L32.5567 39.8309L32.2365 39.0557L32.5826 38.575L32.5569 37.9857L32.1126 36.89L32.3967 36.5954L32.3037 36.1819L32.0454 35.7735L31.8181 35.5098L31.782 35.3548L31.7563 34.5587L31.7976 34.4037L31.8957 34.2435L32.0094 34.1039L32.1128 34.0109L32.7017 33.5767L33.0582 33.3698L33.3783 33.2819L33.6832 33.1113L33.7969 32.7081L33.802 31.8396L33.7091 32.0257L33.6419 32.4857L33.5644 32.6926L33.3837 32.8943L33.177 33.0183L32.2524 33.3441L31.9219 33.5663L31.1781 34.4037L30.987 34.7035L30.8476 35.0343L30.7959 35.3961L30.6357 35.6598L30.198 36.0176L30.1652 35.9674L29.1722 35.4039L28.8078 35.1198L28.6735 34.8176L28.6137 34.4483L28.5874 33.6906L27.7396 34.0109L27.4476 34.0563L27.21 34.0454L26.4411 33.913L26.1854 33.7787L26.0946 33.6198L26.1526 33.5491L26.2506 33.4974L26.2778 33.3967L26.2361 33.2669L26.1961 33.1933L25.2059 32.0798L24.9104 31.8902L24.2593 31.8874L23.9709 32.3693L23.727 32.9346L23.222 33.1787L22.9265 33.0444L22.6 32.7522L22.3098 32.4074L22.132 32.1198L22.0848 31.863L22.0876 31.5961L22.0485 31.3819L21.8744 31.2811L20.6448 31.2693L20.3928 31.193L20.342 30.8917L20.5017 30.5259L20.723 30.1683L20.8572 29.8861L20.8717 29.5711L20.8046 28.9211L20.8263 28.5943L20.8989 28.4146L21.2417 27.8791L21.2824 27.742L21.2957 27.6685L21.3359 27.447L21.9217 25.8665L21.9435 25.7757L21.9472 25.6015L21.9907 25.5026L22.065 25.4535L22.2772 25.4126L22.3461 25.3781L22.4657 25.2039L22.8993 24.0219L22.9246 23.3219L22.7343 22.6263L22.3298 21.9172L22.0261 21.6376L21.2091 21.0683L20.9987 20.8078L20.9769 20.4709L21.0476 20.0978L21.3204 19.2767L22.0359 17.1226L22.3506 16.5004L22.4141 16.4604L22.6254 16.4122L22.707 16.3713L22.7633 16.2806L22.785 16.0961L22.8167 16.0107L23.1639 15.4117L23.6698 14.8548L23.8035 14.6611L23.893 14.5315L24.0035 14.1554L23.9709 13.95L23.795 13.5811L23.7678 13.3798L23.8857 12.883L23.8804 12.7254L23.6537 12.3065L23.3689 12.4041L23.037 12.6889L22.6561 12.8296L22.7306 12.5535L23.115 11.7967L24.2739 10.1063L24.3537 9.89963L24.4081 9.69648L24.497 9.50519L24.6911 9.33444L24.8752 9.27093L25.2224 9.27963L25.4011 9.25518L25.6396 9.14519L26.18 8.71537L26.3431 8.64907L26.6769 8.58315L26.8346 8.52037L27.3039 8.15333L27.9546 7.64426L28.4126 7.51611L29.2413 7.51704L29.9594 7.61704L30.6485 7.83648L32.0994 8.62574L34.3409 9.84704L34.6619 9.91333L34.8511 9.74667L34.8687 9.73111L35.0737 9.47537L35.382 9.32037L37.2028 9.05278L37.5237 8.91555L37.6869 8.76704L39.0833 7.19444L39.1215 7.09352L39.1759 7.10444L39.5291 7.2687L39.633 7.31704L40.0483 7.66593L41.298 9.06537L41.55 9.48796L41.6163 9.82148L41.6698 10.6306L41.7913 10.9281L42.0307 11.0531L43.4094 11.1381L43.5487 11.1467L43.7481 11.2533L43.9707 11.61L44.0872 11.7967L44.3556 12.0743L44.6511 12.2274L45.7537 12.4504L45.9669 12.4422L46.082 12.29L46.1061 12.1785L46.16 11.9302L46.1637 11.6576L46.0876 11.0285L46.1067 10.8009L46.3143 10.5624L49.5433 8.59463L50.3113 8.41463L53.535 8.15111L56.2926 7.92704L57.7652 7.48259L59.1435 6.78148L60.2081 5.98944L60.5183 5.87815L60.8693 6.025L63.0844 7.83815L63.4526 8.03222L63.9957 8.13759L65.5944 8.21704L68.4163 8.36056L69.1761 8.26611L69.8265 7.88482L69.9124 7.83444L71.2037 6.53667L72.8832 4.84833L74.8444 2.87907L76.2898 1.43093L77.7106 0L78.2183 0.245926L78.6137 0.557407L78.8332 0.965556L78.8096 1.50704L78.8313 1.74667L78.9856 1.93944L79.1815 2.11907L79.3283 2.31685L79.3828 2.52093L79.3882 2.72778L79.3374 3.13778L79.2685 3.38278L79.1924 3.55L79.1852 3.7287L79.323 4.00815L79.5315 4.20315L79.7891 4.37537L79.9922 4.57759L80.0357 4.86167L79.8489 5.31241L79.6259 5.71778L79.6006 6.02278L80.0085 6.17056L80.2843 6.11593L80.9807 5.86685L81.3217 5.8687L81.7098 6.07185L81.7552 6.31222L81.5648 6.54944L80.7269 6.98389L80.7594 7.08019L81.035 7.18389L81.2545 7.45148L80.9044 7.67555L80.7883 7.81148L81.0115 7.89593L81.1602 7.88593L81.463 7.80778L81.8076 7.785L82.1557 7.68648L82.3407 7.67111L82.3517 7.75704L82.7417 8.2613L83.0065 8.97056L83.2096 9.08593L83.2913 9.01241L83.3674 8.84389L83.5506 8.67222L84.0276 8.5337L84.3431 8.66055L84.9126 9.26944L85.2426 9.44204L85.5709 9.54296L85.8285 9.70926L85.9465 10.0791L85.903 11.4928L85.738 12.1974L85.4043 12.7107L85.2411 12.7939L85.0615 12.8411L84.9019 12.9111L84.8039 13.065L84.8183 13.2554L85.0341 13.6319L85.1067 13.8248L85.0794 13.9915L84.9035 14.422L84.8509 14.6209L84.8963 14.8313L85.0341 15.0198L85.1991 15.2002L85.3278 15.3881L85.5544 16.0894L85.7285 18.2474L85.9189 18.6498L86.2852 18.8831L87.1122 19.1202L87.4804 19.3644L87.6859 19.733L87.687 19.735L88.1967 22.3928L88.3726 22.6987L88.9293 23.3189L89.1922 23.7383L89.3519 23.9035L89.5913 23.967L89.7002 23.9298L89.8961 23.7691L89.9687 23.7337L90.0122 23.7028L90.0902 23.5657L90.1337 23.5376L90.2007 23.5694L90.2389 23.6304L90.268 23.6911L90.3024 23.723L90.335 23.7702L90.8319 24.0089L90.9244 24.0317L91.0441 24.1806L91.1148 24.3357L91.472 25.4433L91.7387 26.9694L92.4787 28.5091L92.6437 28.6706L92.8848 28.6887L93.0263 28.5589L93.1424 28.4128L93.302 28.3883L93.478 28.628L93.5778 29.502L93.6793 29.837L94.1582 30.3289L94.3196 30.6283L94.2724 31.0269L94.0132 31.3381L93.6595 31.5396L93.342 31.7846L93.188 32.2185L93.3022 32.9083L93.9809 34.5459L94.2978 35.3104L95.0904 37.2209L95.0922 37.5607L94.9272 38.3439L94.9 38.6856L94.9217 39.0485L94.9943 39.4002L95.1195 39.7078L95.2735 39.8902L95.6852 40.2748L95.7741 40.4704L95.7089 40.6587L95.3806 41.0743L95.3045 41.288L95.2863 44.7L95.1811 45.0809L94.6243 46.2607L94.4974 46.4598L94.318 46.6281L94.1439 46.708L93.7757 46.7833L93.5998 46.8719L93.1954 47.4743L92.8254 48.8917L91.7826 49.7452L91.8133 50.0393L91.8478 50.3691L92.1524 51.083L92.3356 51.7813L92.1143 52.4943L91.5557 52.7474L90.112 52.8952L89.7476 53.1183L89.1491 53.6933L88.2985 53.8874L88.1789 54.2085L88.1498 54.6039L88.0604 54.7565L87.9611 54.9259L87.9407 54.9298L87.5948 54.9957L87.3083 54.8333L87.0181 54.7654L86.6591 55.1172L86.4869 55.4309L86.34 55.7883L86.2493 56.162L86.2383 56.9493L86.135 57.3083L85.6798 58.433L85.1739 59.0906L84.9219 59.797L84.6207 60.0709L83.4945 60.635L83.3493 60.7893L83.3115 61.0093L83.2422 61.4131L82.9593 62.1657L82.5367 62.6193L81.9691 62.9076L81.2563 63.1652L80.7376 63.5207L80.4365 64.0613L80.4219 64.1209L79.9994 65.8531L79.945 66.0019L79.8217 66.185L79.5189 66.5441L79.4409 66.7037L79.4591 67.0265L79.6569 67.6667L79.6078 68.0239L79.4572 68.2561L78.8261 68.7457L78.0372 69.7978L77.9906 69.6998L77.9233 69.6069L77.8096 69.4726L77.7941 69.4519L77.7683 69.4726L77.6237 69.4983L77.5152 69.6172L76.7248 70.268L76.637 70.5263L76.4459 70.6193L76.2754 70.7381L76.2496 71.0635L75.6919 70.8052L75.1546 70.4539L75.0772 70.7174L75.0152 71.1874L74.917 71.4146L74.7672 71.0015L74.7415 70.6037L74.6846 70.2472L74.4263 69.9631L74.3591 70.242L74.39 70.4539L74.3848 70.6398L74.1989 70.8154L73.9665 70.7637L73.233 70.7224L73.0006 70.5726L73.0213 70.335L73.2072 70.02L73.4396 69.7463L73.5998 69.6069V69.4983L73.388 69.4311L73.1709 69.395L72.9591 69.4106L72.7628 69.4983L72.8815 69.1265L73.1139 68.8785L73.4341 68.7287L73.8267 68.6563L73.708 68.5117L73.4704 68.393L73.207 68.3104L73.0004 68.2846L72.7472 68.3207L72.5974 68.3931L72.2824 68.6565L72.0707 68.5015L71.8332 68.4394L71.6111 68.4859L71.4407 68.6563L71.4252 68.8681L71.5543 69.7928L71.3993 70.1285L71.0739 70.33L70.7433 70.4694L70.5935 70.6296L70.5057 70.888L70.3146 70.9604L70.1443 70.8519L70.1133 70.573H69.9843L69.9482 70.7485L69.8861 70.857L69.7828 70.9087L69.6226 70.9344L69.788 70.5935L69.85 70.4076L69.8757 70.2165L69.7259 70.2889L69.5348 70.5522L69.385 70.6813L69.4057 70.2269L69.3593 70.0409L69.2094 69.9635L69.1217 70.072L69.1009 70.32L69.1474 70.8159H69.0285L68.7341 70.4493L68.2796 70.1239L68.0472 69.8398L68.4243 69.6074L68.2693 69.5765L68.1711 69.53L67.9491 69.375L68.1867 69.2459L67.82 69.1374L67.6806 69.0444L67.5876 68.8894H67.9078L68.0472 68.9256L68.1867 69.0081L68.3572 68.9307L68.6206 68.9463L68.9046 69.0289L69.1474 69.1374L69.0285 69.1839L68.9148 69.2459L69.2506 69.3698L69.4778 69.1426L69.483 68.843L69.1472 68.7656L69.2454 68.5176L69.0439 68.4194L68.7391 68.3109L68.548 68.0474L68.7959 67.9389L68.5635 67.8356L68.3207 67.8613L67.8248 68.0472L67.9489 68.0989L68.0109 68.1661L68.0419 68.2694L68.0676 68.4193L67.7939 68.2437L67.4943 68.1248L67.1793 68.0939L66.8693 68.1663L66.9726 68.032L67.0398 67.8822L67.0554 67.7272L66.9881 67.567L66.3322 67.8046L66.1411 67.9389L66.0069 67.412L66.2806 67.283L66.6937 67.2365L66.9881 66.968L66.9261 66.8956L66.7919 66.813L66.7041 66.7096L67.0967 66.0122L67.3963 65.6093L67.3239 65.5007L66.9881 65.3922L66.7402 65.7744L66.6317 66.105L66.1565 66.4356L65.6657 66.3994L65.5315 65.6402L65.3713 65.7487L64.8083 66.0122L64.9581 66.3841L64.705 66.6165L64.2659 66.6939L63.8528 66.6009L63.9509 66.9883L64.2506 67.1226L64.6224 67.1483L65.1131 67.2569L65.2474 67.262L65.3146 67.3344L65.2991 67.5668L65.2009 67.6598L64.8135 67.8922L64.7515 67.9387L64.4261 68.0161L63.8785 68.3415L63.5583 68.4189L63.2639 68.5635L63.207 68.8941L63.3104 69.2607L63.5015 69.4983L63.3052 69.6533L63.2122 69.705L63.078 69.7257L63.0006 69.7722L63.0109 69.8807L63.0367 70.0046L63.0109 70.0976L62.9437 70.17L62.7835 70.3043L62.6182 70.3507L62.5457 70.1544L62.7317 69.9065L62.7369 69.7774L62.2978 69.6948L61.988 69.545L61.8124 69.4985V69.607H61.9467V69.7259L61.802 69.788L61.3217 70.098L61.8228 70.1909L62.4117 70.2167L62.1793 70.8468L62.0554 71.0639L61.9263 71.1981L60.7072 72.1331L60.325 72.3398L59.1732 72.7478L58.8322 72.7633L58.6876 72.5567L58.6928 72.2726L58.6824 72.2313H58.5998L58.3932 72.0815L58.3106 71.8852L58.4191 71.7198L58.6154 71.6009L58.7961 71.5337L58.5894 71.4356L58.5637 71.2857L58.6515 71.105L58.7961 70.9346L58.7393 70.9294L58.5585 70.9346L58.605 70.8056L58.6359 70.7539L58.6876 70.6815L58.4191 70.7693L58.1815 71.1515L58.0937 70.9346H57.9594L57.9904 71.2496L58.0265 71.3943L58.0937 71.5337L57.8509 71.4511L57.6237 71.4872H57.4482L57.3604 71.2806H57.2415L57.1124 71.4769L57.04 71.6783L57.0091 71.9211L56.9987 72.2517L56.5596 72.0037L56.2859 71.9004L56.162 71.9572L56.0743 72.0813L55.8676 72.1743L55.6456 72.2311L55.4957 72.2519L55.382 72.3191L55.2117 72.4533L54.9896 72.5515L54.7159 72.505L54.623 72.3861L54.6126 72.0091L54.4783 71.7715L54.6437 71.7819L54.7832 71.7406L54.9639 71.6528L55.0517 71.6372L55.3719 71.6528L55.4957 71.5754L55.8006 71.1931L56.033 71.0641L55.9348 70.8885L55.847 70.6717L55.7385 70.5011L55.563 70.4546L55.4287 70.8163L55.2893 71.0591L55.1343 71.1778L54.623 71.1004L54.5557 70.8989L54.9639 70.217L54.8348 69.9639L54.5404 70.217L54.3906 70.062L54.3854 69.7676L54.6591 69.4939L54.7211 69.2563L54.6487 69.0444L54.3439 69.0083L54.158 69.3183L54.0133 69.902L53.8274 70.4031L53.5174 70.4548L53.4554 70.6718L53.3367 70.6511L53.1765 70.5787L52.9854 70.6304L52.8976 70.7854L53.1146 71.0487L53.0474 71.2811L53.3624 71.4826L53.5174 71.5343V71.6531L53.3831 71.6687L53.0474 71.772L53.3367 72.2215L53.1611 72.268L52.8357 72.1285L52.6807 72.0252L52.562 72.3196L53.0217 73.0531L52.7996 73.3424L52.6189 72.9602L52.4898 72.8L52.3193 72.7431L52.2107 72.8156L52.1074 73.1204L51.9576 73.2133L51.8026 72.6968L51.72 72.6143L51.5857 72.6504L51.5133 72.7794L51.472 72.9241L51.2965 73.1256L51.1415 73.3891L50.9504 73.5854L50.6972 73.5233L50.4235 73.26L50.3822 73.1463L50.7593 72.8622L50.9143 72.6815L51.0537 72.4439L51.0744 72.2063L50.873 72.0256L50.7232 72.3717L50.4082 72.6609L50.0569 72.7487L49.7933 72.5059L49.4319 72.6144L49.597 73.167L49.4885 74.1794L49.6693 74.5409L49.5607 74.5565L49.1941 74.5409L49.1993 73.9468L48.7085 73.642L48.037 73.4561L47.505 73.2133L47.3759 73.3424L47.9235 73.7815L48.1354 74.0811L48.1044 74.422L47.743 74.6235L47.2522 74.4893L46.7976 74.1743L46.5341 73.823L46.6219 73.7352L46.6476 73.6578V73.57L46.6683 73.4615L46.4513 73.7972L46.4152 73.8746L46.4565 74.0709L46.6219 74.3911L46.6683 74.5409L46.6374 74.8507L46.5341 75.1244L46.3222 75.3156L46.002 75.388L45.3357 75.2226L44.8502 74.9126L44.3646 74.7524L43.6724 75.0313L43.5639 74.9693L43.3004 74.8968L43.4709 75.2946L44.1011 75.4444L44.2457 75.8576L43.9256 75.7802L43.2282 75.7389L42.9285 75.62L41.9626 76.3018L41.6113 76.4672L41.8696 76.555L41.9678 76.5757L41.8852 76.8391L41.7302 77.5467L42.3396 77.3348L42.5152 77.3193L42.6754 77.4381L42.6702 77.7069L42.572 78.1563L42.6598 78.3319L42.7424 78.3991L42.8457 78.4043L42.9956 78.3991L43.1246 78.4404L43.1711 78.5541L43.1919 78.6935L43.2435 78.8072L43.383 79.0035L43.538 79.2824L43.6465 79.5768L43.6722 79.83H43.538L43.352 79.4839L42.9802 79.6337L42.6237 80.047L42.4635 80.4913L42.3396 80.7444L41.725 81.5244L41.4926 81.762L40.7074 82.1287L40.3304 82.387L40.1754 82.7796L40.1185 83.038L39.9946 83.2859L39.447 84.0402L39.385 84.2209L39.2404 84.9287L39.2559 85.0941L39.4574 85.4298L39.4782 85.5641L39.4213 85.683L39.2715 85.7243L39.1372 85.8585L38.7241 86.685L38.0681 87.3978L38.063 87.532L37.8615 87.718L37.7376 88.1415L37.7015 88.5806L37.7687 88.8441L38.0735 88.9165L38.4713 88.9009L38.8174 88.9681L38.9672 89.273L38.9156 90.2596L38.9828 91.0396L39.0241 91.1946L39.272 91.3187L39.2978 91.4633L39.2461 91.6389L39.2063 91.7074H36.4444H33.2317H30.3933H30.0189H26.807H23.5933H22.4598L22.1806 91.5696L21.5604 91.4137L20.9002 91.7583L20.2346 91.9687L19.9807 92.1011L19.3531 92.765L19.13 92.95L18.7074 92.8176L18.3248 92.7759L17.4398 92.8576L17.1133 92.9337L16.902 92.95L16.8031 92.9046L16.7124 92.8067L16.5819 92.7196L16.3643 92.6996L16.2228 92.8139L16.2022 92.8324ZM40.1782 91.7046H39.94L39.943 91.6876L39.9326 91.3776L40.098 91.455L40.1652 91.5739L40.1782 91.7046ZM74.07 72.7404L73.9976 72.3426L74.3593 72.0793L74.8189 72.0896L75.0359 72.503L75.3717 72.4306L75.7746 72.5235L76.0535 72.7302L75.9967 72.9937L75.7178 72.8181L75.5215 72.8285L75.3561 72.9215L75.1546 72.9939L74.9531 72.9731L74.2713 72.8337L74.07 72.7404ZM67.3552 69.7031L67.2622 69.8943L67.2106 70.1163L67.0969 70.323L66.9935 70.2661L66.8696 70.297L66.7457 70.4107L66.6167 70.5709L66.4669 70.2972L66.2654 70.2663L66.1517 70.4109L66.2602 70.6794L66.1259 70.8809L66.1415 71.103L66.2706 71.2993L66.4978 71.413L66.2706 71.6248L66.1672 72.0226L66.2602 72.41L66.6167 72.6115L66.5702 72.6787L66.5185 72.7096L66.3998 72.7406L66.1157 72.6217L66.0072 72.3531L66.0176 71.6507H65.8987L65.9091 71.8678L65.8522 72.0485L65.7232 72.1828L65.532 72.25L65.4648 71.8317L65.2065 71.4235L64.8965 71.2169L64.6898 71.4131H64.5709L64.2094 70.8139L64.7002 70.9224L64.8757 70.9328L65.0617 70.8759L65.165 70.752L65.1857 70.6281L65.1133 70.5713L65.0409 70.4628L64.452 69.8533L64.23 69.7294L64.1628 69.6209L64.2713 69.435L64.6587 68.9494L64.7517 68.8874L65.4439 68.7687L65.8004 68.7583L66.1413 68.8874L65.8985 69.0528L65.723 69.3007L65.7591 69.4919L66.1413 69.497V69.6056L66.0844 69.7606L66.1774 69.8948L66.3428 69.9156L66.4978 69.7244L66.5598 69.7761L66.5907 69.7963L66.7406 69.8531L66.658 69.6465L66.7044 69.4244L66.8283 69.2954L66.9885 69.3728H67.097L67.0609 69.223L66.9835 69.1093L66.875 69.042L66.7407 69.0059V68.887H67.0765L67.252 69.0678L67.3811 69.3311L67.5878 69.6048L67.3552 69.7031ZM63.7963 71.4802L63.7394 72.0535L63.6104 72.2498L63.445 71.9089L63.4759 71.5319L63.667 71.2787H63.982L63.7963 71.4802ZM73.3056 76.3872L73.1196 77.0639L72.882 76.8211L72.7633 76.9554L72.66 76.6918L72.5257 76.5628L72.3346 76.537L72.0402 76.5731V76.4646L72.345 76.3356L72.9339 75.9378L73.1819 75.8552L73.3522 76.0204L73.3056 76.3872ZM65.7591 73.572L65.5576 73.727L65.0617 73.9285L64.9119 73.4894L64.9583 73.2415L65.2011 73.102L65.6607 72.9935L65.6194 73.0659L65.5626 73.257L65.5317 73.3396H65.8983L65.7591 73.572ZM52.4635 80.9585L52.4428 81.1031L52.4376 81.2787L52.3187 81.0411H52.1998L52.205 81.2994L52.1637 81.4906L51.8022 82.1568L51.668 82.2859L51.4717 82.3583L51.5543 82.565L51.4613 82.7457L51.2806 82.88L51.1204 82.9678L50.9861 82.9522L50.888 82.9213L50.8106 82.8489L50.7589 82.7146L51.0172 82.5183L51.3169 82.1981L51.3893 81.8624L50.9863 81.63L51.2652 81.4906L51.6113 81.4544L51.8282 81.2789L51.8385 81.2272L51.8282 80.9741L51.8643 80.8502L51.9469 80.8398L52.0759 80.907L52.2102 80.8037L52.3083 80.7468L52.5563 80.6694L52.4635 80.9585ZM49.8344 80.5659L49.3489 80.7002L49.2765 80.6898L49.23 80.6072L49.1939 80.4317L49.3076 80.473L49.5556 80.5143L49.6693 80.5504L49.5659 80.3748L49.4885 80.1528L49.4989 79.9772L49.6693 79.9359L49.8604 80.0546L49.943 80.2252L50.0411 80.375L50.2735 80.4318V80.5507L50.0463 80.5352L49.8344 80.5659ZM49.0339 78.7013L48.9719 78.6239L48.9409 78.5L48.8841 78.5361H48.8635L48.8326 78.6291L48.6828 78.4948L48.6207 78.3606L48.662 78.2417L48.8324 78.1539L48.7033 77.968L48.5483 77.8233L48.3831 77.7252L48.223 77.6735L48.5019 77.5857L48.7756 77.6943L48.977 77.9009L49.0596 78.0972L49.1939 78.3504L49.4263 78.6396L49.5089 78.8463L49.1939 78.872L49.1113 78.7739L49.0339 78.7013ZM57.1228 75.9791L56.818 76.2424L56.4565 76.4078L56.033 76.4646V76.3457L56.2757 76.2268L56.0174 76.1287L55.63 76.3146L55.3148 76.2268L55.0513 76.232L54.8446 76.1804L54.6948 76.0615L54.5915 75.8548L54.8343 75.9839L55.0202 75.7619L55.1544 75.8239L55.2783 75.9685L55.4333 75.9841L55.552 75.8291L55.5417 75.6585L55.4693 75.4622L55.4331 75.2556L55.5881 75.3641L55.7224 75.3796L55.8309 75.297L55.9083 75.1369L55.9291 75.328L55.9859 75.4726L56.0996 75.5707L56.2752 75.6172V75.5087L56.048 75.1678L55.955 74.9767L55.9085 74.7752L56.1204 74.9146L56.3322 75.1626L56.4561 75.4622L56.4044 75.7463L56.5904 75.8135L56.7609 75.8548L56.797 75.6328L56.9365 75.5191L57.1328 75.5139L57.36 75.6172L57.1228 75.9791ZM56.2446 74.4346L56.5235 74.4191L56.4461 74.1763L56.477 73.9078L56.5907 73.7476L56.7613 73.82H56.8698V73.4585L57.2469 73.7735L57.1126 74.2694L56.7459 74.755L56.405 75.0287L56.2396 74.8119L56.1724 74.5898L56.2446 74.4346ZM47.9802 80.3076L47.7683 80.8965L47.8407 81.7074L47.9854 82.3583L47.7891 82.3996L47.6857 82.5287L47.6341 82.6578L47.5617 82.7146L47.355 82.6837L47.2052 82.5959L47.1639 82.4822L47.262 82.3583V82.2498L46.9728 82.2291L46.3065 82.3581L46.3478 82.5028L46.3581 82.8385L46.415 83.0761L46.3376 83.0452L46.1465 82.9987L46.0639 82.9678L45.9502 83.2931L45.9244 83.4326L45.9348 83.5565H45.4441L45.3407 83.3293L45.4028 83.1537L45.6972 82.8385L45.9606 82.3839L46.0174 82.1515L45.9348 81.9965V81.8674L46.0122 81.7537L46.1207 81.6763L46.2757 81.6402L46.4772 81.6298V81.5059L46.6322 81.2683L46.8181 81.1081L46.968 81.2889L47.1126 81.3613L47.2676 81.3665L47.3761 81.2787L47.3709 81.072L47.252 80.8861L47.0765 80.7467L46.9061 80.6693L47.025 80.4369L46.8443 80.2561L46.5706 80.1011L46.4156 79.9357H46.307L46.0437 80.0907L45.5478 80.0443L45.0622 79.8996L44.8504 79.7654L44.8761 79.662L44.9794 79.538V79.4707L44.8917 79.3726L44.8143 79.3417L44.7626 79.3004L44.7369 79.1661L44.6283 79.0318L44.3752 78.9028L43.9 78.7426V78.6289L44.1532 78.5772L44.1687 78.4068L44.148 78.2363L44.3133 78.1537L44.5302 78.1744L44.9796 78.2726L45.7802 78.2261L46.0437 78.3191L46.0644 78.6291L45.7596 79.2283L45.7028 79.5796L45.9352 79.8276L46.307 79.8585L46.7513 79.75L47.5054 79.4711L47.3763 79.6983L47.5106 79.8481L47.6552 79.9154L47.8154 79.905L47.9857 79.8276L47.898 79.6726L47.8824 79.5331L47.9444 79.4298L48.1046 79.3524L48.2337 79.6261L48.6159 80.0343L48.7037 80.3235L47.9802 80.3076Z"/>
</mask>
<path d="M16.2022 92.8324L16.01 92.7726L15.743 92.6894L15.5044 92.722L15.2741 92.8254L14.9983 92.8943L14.7028 92.8561L14.4035 92.7691L14.1133 92.7256L13.845 92.8217L13.6972 93.072L13.5839 93.7976L13.4931 94.0643L13.3861 94.1531L13.0924 94.2856L13.0289 94.3378L12.9691 94.3872L12.9183 94.4924L12.8793 94.7444L12.8457 94.8606L12.6572 95.178L12.4278 95.4718L11.647 96.2137L11.3759 96.3752L11.2463 96.4133L11.1067 96.4243L10.967 96.4478L10.8293 96.5294L10.7041 96.7689L10.597 97.4493L10.5063 97.7159L10.3159 97.8937L9.59963 98.1731L9.08167 98.4507L8.99037 98.4996L8.76185 98.7354L8.60222 99.1181L8.42092 99.1563L7.22945 99.8167L6.84407 99.96L6.47481 100L6.13204 99.902L5.83093 99.6209L5.66037 99.2491L5.6187 98.527L5.54074 98.1587L5.04741 97.4422L4.85519 97.3443L4.85333 97.3439L4.69759 97.3206L4.54518 97.3659L4.38296 97.4676L4.22426 97.6563L4.11907 98.0028L3.97407 98.088L3.85259 98.0444L3.47907 97.8178L3.27055 97.7706L2.84444 97.8467L2.55074 97.9991L2.27963 98.195L1.91778 98.3981L1.59074 98.487L1.22259 98.5143L0.517036 98.4761L0.682037 97.4457L0.678332 97.1102L0.609445 96.9124L0.404443 96.5606L0.395369 96.3737L0.561295 95.9293L0.578517 95.7806L0.475184 95.4015L0.294814 95.133L0.150556 94.85L0.148703 94.4274L0.362778 93.3426L0.379074 93.027L0.306481 92.6878L0.0479635 92.013L0 91.7046L0.0507411 91.4943L0.0537025 91.4893L0.14148 91.34L0.208517 91.1694L0.187593 90.91L0.119629 90.5798L0.108702 90.4057L0.13222 90.2461L0.328149 89.9378L0.846852 89.7618L1.04463 89.5261L1.09352 89.2722L1.13889 88.2167L1.09907 87.8467L0.943149 87.163L0.957591 86.7967L1.17704 85.4146L1.235 85.3239L1.33296 85.2513L1.41815 85.1624L1.44074 85.0263L1.4 84.9211L1.26389 84.7343L1.23481 84.6291L1.30556 84.4369L1.4687 84.3896L1.65556 84.3769L1.79704 84.2807L1.83519 84.0359L1.77722 82.9604L1.69555 82.6902L1.51167 82.3052L1.46333 82.2041L1.41981 81.8741L1.7987 79.6641L1.85148 79.3569L2.14259 77.6357L2.2487 77.0081L2.55426 75.2181L2.81722 74.5726L2.91055 74.2426L2.89519 73.907L2.68759 73.1417L2.71296 72.8389L2.86611 72.3637L3.63778 71.2883L3.73389 71.0907L3.94055 71.1724L4.06926 71.283L4.18889 71.3302L4.36296 71.2196L4.42463 71.0854L4.98593 68.1981L5.10833 67.8209L5.30963 67.4926L6.23667 66.4215L6.57 66.0363L6.62574 65.9154L6.87833 65.367L6.83481 64.6833L6.51019 63.265L6.51926 62.9041L6.735 61.4213L6.63889 60.5135L6.66426 60.3357L6.99796 59.6411L7.22463 59.5096L7.61019 59.2126L7.85926 59.0207L8.59556 58.688L10.4691 58.2626L10.6396 58.1656L10.83 57.9415L11.1474 57.3502L11.2019 57.2867L11.2835 57.0037L11.6789 56.5883L11.8004 56.2628L11.7061 55.5491L11.7007 55.2098L11.9239 55.0004L11.9856 54.847L12.0309 54.6657L12.0672 54.2902L12.1144 54.1759L12.6494 53.6272L12.8009 53.5511L12.9506 53.5039L13.112 53.533L13.3024 53.6863L13.6054 53.8278L13.8202 53.5993L14.0333 53.2456L14.3272 53.017L14.5322 52.9989L14.9294 53.0424L15.1652 53.017L15.497 52.93L15.7419 52.8285L15.965 52.6726L16.3159 52.3752L16.3178 52.3728L16.5802 52.6409L16.8333 52.7752V52.8941L16.4563 53.0698L16.477 53.385L16.5959 53.757L16.4874 54.0928L16.6476 54.4389L16.7922 54.6611L16.8696 54.9039L16.8335 55.2913L16.7509 55.4411L16.6219 55.6065L16.5546 55.777L16.658 55.9578H16.8078L17.0041 55.8337L17.3243 55.5444L17.2933 55.7615L17.2469 55.9578L17.2313 56.1385L17.2881 56.3193L17.3915 56.185L17.438 56.0404L17.5154 55.8957L17.6807 55.782L17.8461 55.9731L18.058 56.0713L18.2956 56.0817L18.5228 56.0093V55.9007L18.4504 55.88L18.285 55.7818L18.4761 55.7561L18.5691 55.7148L18.5794 55.6476L18.5226 55.5443L20.4596 53.4933L20.537 53.1781V52.8991L20.568 52.6304L20.7487 52.3565L23.6878 48.9569L24.2198 47.9183L24.5348 47.4791L25.0204 47.2104L25.6144 47.0502L26.1156 46.8022L26.3428 46.27L26.4617 46.3217L26.5806 46.4044L26.7976 46.2752L26.9887 46.3009L27.1902 46.3733L27.4226 46.4043L27.6394 46.3474L28.6983 45.7791L29.7056 44.8333L30.4183 44.3528L30.6611 44.0685L30.9039 43.6241L31.0124 43.2261L31.1209 42.3063L31.2759 41.9446L31.782 42.0944L32.1591 41.8567L32.3967 41.4122L32.4896 40.7663L32.5257 40.6785L32.567 40.6061L32.598 40.508V40.0841L32.5567 39.8309L32.2365 39.0557L32.5826 38.575L32.5569 37.9857L32.1126 36.89L32.3967 36.5954L32.3037 36.1819L32.0454 35.7735L31.8181 35.5098L31.782 35.3548L31.7563 34.5587L31.7976 34.4037L31.8957 34.2435L32.0094 34.1039L32.1128 34.0109L32.7017 33.5767L33.0582 33.3698L33.3783 33.2819L33.6832 33.1113L33.7969 32.7081L33.802 31.8396L33.7091 32.0257L33.6419 32.4857L33.5644 32.6926L33.3837 32.8943L33.177 33.0183L32.2524 33.3441L31.9219 33.5663L31.1781 34.4037L30.987 34.7035L30.8476 35.0343L30.7959 35.3961L30.6357 35.6598L30.198 36.0176L30.1652 35.9674L29.1722 35.4039L28.8078 35.1198L28.6735 34.8176L28.6137 34.4483L28.5874 33.6906L27.7396 34.0109L27.4476 34.0563L27.21 34.0454L26.4411 33.913L26.1854 33.7787L26.0946 33.6198L26.1526 33.5491L26.2506 33.4974L26.2778 33.3967L26.2361 33.2669L26.1961 33.1933L25.2059 32.0798L24.9104 31.8902L24.2593 31.8874L23.9709 32.3693L23.727 32.9346L23.222 33.1787L22.9265 33.0444L22.6 32.7522L22.3098 32.4074L22.132 32.1198L22.0848 31.863L22.0876 31.5961L22.0485 31.3819L21.8744 31.2811L20.6448 31.2693L20.3928 31.193L20.342 30.8917L20.5017 30.5259L20.723 30.1683L20.8572 29.8861L20.8717 29.5711L20.8046 28.9211L20.8263 28.5943L20.8989 28.4146L21.2417 27.8791L21.2824 27.742L21.2957 27.6685L21.3359 27.447L21.9217 25.8665L21.9435 25.7757L21.9472 25.6015L21.9907 25.5026L22.065 25.4535L22.2772 25.4126L22.3461 25.3781L22.4657 25.2039L22.8993 24.0219L22.9246 23.3219L22.7343 22.6263L22.3298 21.9172L22.0261 21.6376L21.2091 21.0683L20.9987 20.8078L20.9769 20.4709L21.0476 20.0978L21.3204 19.2767L22.0359 17.1226L22.3506 16.5004L22.4141 16.4604L22.6254 16.4122L22.707 16.3713L22.7633 16.2806L22.785 16.0961L22.8167 16.0107L23.1639 15.4117L23.6698 14.8548L23.8035 14.6611L23.893 14.5315L24.0035 14.1554L23.9709 13.95L23.795 13.5811L23.7678 13.3798L23.8857 12.883L23.8804 12.7254L23.6537 12.3065L23.3689 12.4041L23.037 12.6889L22.6561 12.8296L22.7306 12.5535L23.115 11.7967L24.2739 10.1063L24.3537 9.89963L24.4081 9.69648L24.497 9.50519L24.6911 9.33444L24.8752 9.27093L25.2224 9.27963L25.4011 9.25518L25.6396 9.14519L26.18 8.71537L26.3431 8.64907L26.6769 8.58315L26.8346 8.52037L27.3039 8.15333L27.9546 7.64426L28.4126 7.51611L29.2413 7.51704L29.9594 7.61704L30.6485 7.83648L32.0994 8.62574L34.3409 9.84704L34.6619 9.91333L34.8511 9.74667L34.8687 9.73111L35.0737 9.47537L35.382 9.32037L37.2028 9.05278L37.5237 8.91555L37.6869 8.76704L39.0833 7.19444L39.1215 7.09352L39.1759 7.10444L39.5291 7.2687L39.633 7.31704L40.0483 7.66593L41.298 9.06537L41.55 9.48796L41.6163 9.82148L41.6698 10.6306L41.7913 10.9281L42.0307 11.0531L43.4094 11.1381L43.5487 11.1467L43.7481 11.2533L43.9707 11.61L44.0872 11.7967L44.3556 12.0743L44.6511 12.2274L45.7537 12.4504L45.9669 12.4422L46.082 12.29L46.1061 12.1785L46.16 11.9302L46.1637 11.6576L46.0876 11.0285L46.1067 10.8009L46.3143 10.5624L49.5433 8.59463L50.3113 8.41463L53.535 8.15111L56.2926 7.92704L57.7652 7.48259L59.1435 6.78148L60.2081 5.98944L60.5183 5.87815L60.8693 6.025L63.0844 7.83815L63.4526 8.03222L63.9957 8.13759L65.5944 8.21704L68.4163 8.36056L69.1761 8.26611L69.8265 7.88482L69.9124 7.83444L71.2037 6.53667L72.8832 4.84833L74.8444 2.87907L76.2898 1.43093L77.7106 0L78.2183 0.245926L78.6137 0.557407L78.8332 0.965556L78.8096 1.50704L78.8313 1.74667L78.9856 1.93944L79.1815 2.11907L79.3283 2.31685L79.3828 2.52093L79.3882 2.72778L79.3374 3.13778L79.2685 3.38278L79.1924 3.55L79.1852 3.7287L79.323 4.00815L79.5315 4.20315L79.7891 4.37537L79.9922 4.57759L80.0357 4.86167L79.8489 5.31241L79.6259 5.71778L79.6006 6.02278L80.0085 6.17056L80.2843 6.11593L80.9807 5.86685L81.3217 5.8687L81.7098 6.07185L81.7552 6.31222L81.5648 6.54944L80.7269 6.98389L80.7594 7.08019L81.035 7.18389L81.2545 7.45148L80.9044 7.67555L80.7883 7.81148L81.0115 7.89593L81.1602 7.88593L81.463 7.80778L81.8076 7.785L82.1557 7.68648L82.3407 7.67111L82.3517 7.75704L82.7417 8.2613L83.0065 8.97056L83.2096 9.08593L83.2913 9.01241L83.3674 8.84389L83.5506 8.67222L84.0276 8.5337L84.3431 8.66055L84.9126 9.26944L85.2426 9.44204L85.5709 9.54296L85.8285 9.70926L85.9465 10.0791L85.903 11.4928L85.738 12.1974L85.4043 12.7107L85.2411 12.7939L85.0615 12.8411L84.9019 12.9111L84.8039 13.065L84.8183 13.2554L85.0341 13.6319L85.1067 13.8248L85.0794 13.9915L84.9035 14.422L84.8509 14.6209L84.8963 14.8313L85.0341 15.0198L85.1991 15.2002L85.3278 15.3881L85.5544 16.0894L85.7285 18.2474L85.9189 18.6498L86.2852 18.8831L87.1122 19.1202L87.4804 19.3644L87.6859 19.733L87.687 19.735L88.1967 22.3928L88.3726 22.6987L88.9293 23.3189L89.1922 23.7383L89.3519 23.9035L89.5913 23.967L89.7002 23.9298L89.8961 23.7691L89.9687 23.7337L90.0122 23.7028L90.0902 23.5657L90.1337 23.5376L90.2007 23.5694L90.2389 23.6304L90.268 23.6911L90.3024 23.723L90.335 23.7702L90.8319 24.0089L90.9244 24.0317L91.0441 24.1806L91.1148 24.3357L91.472 25.4433L91.7387 26.9694L92.4787 28.5091L92.6437 28.6706L92.8848 28.6887L93.0263 28.5589L93.1424 28.4128L93.302 28.3883L93.478 28.628L93.5778 29.502L93.6793 29.837L94.1582 30.3289L94.3196 30.6283L94.2724 31.0269L94.0132 31.3381L93.6595 31.5396L93.342 31.7846L93.188 32.2185L93.3022 32.9083L93.9809 34.5459L94.2978 35.3104L95.0904 37.2209L95.0922 37.5607L94.9272 38.3439L94.9 38.6856L94.9217 39.0485L94.9943 39.4002L95.1195 39.7078L95.2735 39.8902L95.6852 40.2748L95.7741 40.4704L95.7089 40.6587L95.3806 41.0743L95.3045 41.288L95.2863 44.7L95.1811 45.0809L94.6243 46.2607L94.4974 46.4598L94.318 46.6281L94.1439 46.708L93.7757 46.7833L93.5998 46.8719L93.1954 47.4743L92.8254 48.8917L91.7826 49.7452L91.8133 50.0393L91.8478 50.3691L92.1524 51.083L92.3356 51.7813L92.1143 52.4943L91.5557 52.7474L90.112 52.8952L89.7476 53.1183L89.1491 53.6933L88.2985 53.8874L88.1789 54.2085L88.1498 54.6039L88.0604 54.7565L87.9611 54.9259L87.9407 54.9298L87.5948 54.9957L87.3083 54.8333L87.0181 54.7654L86.6591 55.1172L86.4869 55.4309L86.34 55.7883L86.2493 56.162L86.2383 56.9493L86.135 57.3083L85.6798 58.433L85.1739 59.0906L84.9219 59.797L84.6207 60.0709L83.4945 60.635L83.3493 60.7893L83.3115 61.0093L83.2422 61.4131L82.9593 62.1657L82.5367 62.6193L81.9691 62.9076L81.2563 63.1652L80.7376 63.5207L80.4365 64.0613L80.4219 64.1209L79.9994 65.8531L79.945 66.0019L79.8217 66.185L79.5189 66.5441L79.4409 66.7037L79.4591 67.0265L79.6569 67.6667L79.6078 68.0239L79.4572 68.2561L78.8261 68.7457L78.0372 69.7978L77.9906 69.6998L77.9233 69.6069L77.8096 69.4726L77.7941 69.4519L77.7683 69.4726L77.6237 69.4983L77.5152 69.6172L76.7248 70.268L76.637 70.5263L76.4459 70.6193L76.2754 70.7381L76.2496 71.0635L75.6919 70.8052L75.1546 70.4539L75.0772 70.7174L75.0152 71.1874L74.917 71.4146L74.7672 71.0015L74.7415 70.6037L74.6846 70.2472L74.4263 69.9631L74.3591 70.242L74.39 70.4539L74.3848 70.6398L74.1989 70.8154L73.9665 70.7637L73.233 70.7224L73.0006 70.5726L73.0213 70.335L73.2072 70.02L73.4396 69.7463L73.5998 69.6069V69.4983L73.388 69.4311L73.1709 69.395L72.9591 69.4106L72.7628 69.4983L72.8815 69.1265L73.1139 68.8785L73.4341 68.7287L73.8267 68.6563L73.708 68.5117L73.4704 68.393L73.207 68.3104L73.0004 68.2846L72.7472 68.3207L72.5974 68.3931L72.2824 68.6565L72.0707 68.5015L71.8332 68.4394L71.6111 68.4859L71.4407 68.6563L71.4252 68.8681L71.5543 69.7928L71.3993 70.1285L71.0739 70.33L70.7433 70.4694L70.5935 70.6296L70.5057 70.888L70.3146 70.9604L70.1443 70.8519L70.1133 70.573H69.9843L69.9482 70.7485L69.8861 70.857L69.7828 70.9087L69.6226 70.9344L69.788 70.5935L69.85 70.4076L69.8757 70.2165L69.7259 70.2889L69.5348 70.5522L69.385 70.6813L69.4057 70.2269L69.3593 70.0409L69.2094 69.9635L69.1217 70.072L69.1009 70.32L69.1474 70.8159H69.0285L68.7341 70.4493L68.2796 70.1239L68.0472 69.8398L68.4243 69.6074L68.2693 69.5765L68.1711 69.53L67.9491 69.375L68.1867 69.2459L67.82 69.1374L67.6806 69.0444L67.5876 68.8894H67.9078L68.0472 68.9256L68.1867 69.0081L68.3572 68.9307L68.6206 68.9463L68.9046 69.0289L69.1474 69.1374L69.0285 69.1839L68.9148 69.2459L69.2506 69.3698L69.4778 69.1426L69.483 68.843L69.1472 68.7656L69.2454 68.5176L69.0439 68.4194L68.7391 68.3109L68.548 68.0474L68.7959 67.9389L68.5635 67.8356L68.3207 67.8613L67.8248 68.0472L67.9489 68.0989L68.0109 68.1661L68.0419 68.2694L68.0676 68.4193L67.7939 68.2437L67.4943 68.1248L67.1793 68.0939L66.8693 68.1663L66.9726 68.032L67.0398 67.8822L67.0554 67.7272L66.9881 67.567L66.3322 67.8046L66.1411 67.9389L66.0069 67.412L66.2806 67.283L66.6937 67.2365L66.9881 66.968L66.9261 66.8956L66.7919 66.813L66.7041 66.7096L67.0967 66.0122L67.3963 65.6093L67.3239 65.5007L66.9881 65.3922L66.7402 65.7744L66.6317 66.105L66.1565 66.4356L65.6657 66.3994L65.5315 65.6402L65.3713 65.7487L64.8083 66.0122L64.9581 66.3841L64.705 66.6165L64.2659 66.6939L63.8528 66.6009L63.9509 66.9883L64.2506 67.1226L64.6224 67.1483L65.1131 67.2569L65.2474 67.262L65.3146 67.3344L65.2991 67.5668L65.2009 67.6598L64.8135 67.8922L64.7515 67.9387L64.4261 68.0161L63.8785 68.3415L63.5583 68.4189L63.2639 68.5635L63.207 68.8941L63.3104 69.2607L63.5015 69.4983L63.3052 69.6533L63.2122 69.705L63.078 69.7257L63.0006 69.7722L63.0109 69.8807L63.0367 70.0046L63.0109 70.0976L62.9437 70.17L62.7835 70.3043L62.6182 70.3507L62.5457 70.1544L62.7317 69.9065L62.7369 69.7774L62.2978 69.6948L61.988 69.545L61.8124 69.4985V69.607H61.9467V69.7259L61.802 69.788L61.3217 70.098L61.8228 70.1909L62.4117 70.2167L62.1793 70.8468L62.0554 71.0639L61.9263 71.1981L60.7072 72.1331L60.325 72.3398L59.1732 72.7478L58.8322 72.7633L58.6876 72.5567L58.6928 72.2726L58.6824 72.2313H58.5998L58.3932 72.0815L58.3106 71.8852L58.4191 71.7198L58.6154 71.6009L58.7961 71.5337L58.5894 71.4356L58.5637 71.2857L58.6515 71.105L58.7961 70.9346L58.7393 70.9294L58.5585 70.9346L58.605 70.8056L58.6359 70.7539L58.6876 70.6815L58.4191 70.7693L58.1815 71.1515L58.0937 70.9346H57.9594L57.9904 71.2496L58.0265 71.3943L58.0937 71.5337L57.8509 71.4511L57.6237 71.4872H57.4482L57.3604 71.2806H57.2415L57.1124 71.4769L57.04 71.6783L57.0091 71.9211L56.9987 72.2517L56.5596 72.0037L56.2859 71.9004L56.162 71.9572L56.0743 72.0813L55.8676 72.1743L55.6456 72.2311L55.4957 72.2519L55.382 72.3191L55.2117 72.4533L54.9896 72.5515L54.7159 72.505L54.623 72.3861L54.6126 72.0091L54.4783 71.7715L54.6437 71.7819L54.7832 71.7406L54.9639 71.6528L55.0517 71.6372L55.3719 71.6528L55.4957 71.5754L55.8006 71.1931L56.033 71.0641L55.9348 70.8885L55.847 70.6717L55.7385 70.5011L55.563 70.4546L55.4287 70.8163L55.2893 71.0591L55.1343 71.1778L54.623 71.1004L54.5557 70.8989L54.9639 70.217L54.8348 69.9639L54.5404 70.217L54.3906 70.062L54.3854 69.7676L54.6591 69.4939L54.7211 69.2563L54.6487 69.0444L54.3439 69.0083L54.158 69.3183L54.0133 69.902L53.8274 70.4031L53.5174 70.4548L53.4554 70.6718L53.3367 70.6511L53.1765 70.5787L52.9854 70.6304L52.8976 70.7854L53.1146 71.0487L53.0474 71.2811L53.3624 71.4826L53.5174 71.5343V71.6531L53.3831 71.6687L53.0474 71.772L53.3367 72.2215L53.1611 72.268L52.8357 72.1285L52.6807 72.0252L52.562 72.3196L53.0217 73.0531L52.7996 73.3424L52.6189 72.9602L52.4898 72.8L52.3193 72.7431L52.2107 72.8156L52.1074 73.1204L51.9576 73.2133L51.8026 72.6968L51.72 72.6143L51.5857 72.6504L51.5133 72.7794L51.472 72.9241L51.2965 73.1256L51.1415 73.3891L50.9504 73.5854L50.6972 73.5233L50.4235 73.26L50.3822 73.1463L50.7593 72.8622L50.9143 72.6815L51.0537 72.4439L51.0744 72.2063L50.873 72.0256L50.7232 72.3717L50.4082 72.6609L50.0569 72.7487L49.7933 72.5059L49.4319 72.6144L49.597 73.167L49.4885 74.1794L49.6693 74.5409L49.5607 74.5565L49.1941 74.5409L49.1993 73.9468L48.7085 73.642L48.037 73.4561L47.505 73.2133L47.3759 73.3424L47.9235 73.7815L48.1354 74.0811L48.1044 74.422L47.743 74.6235L47.2522 74.4893L46.7976 74.1743L46.5341 73.823L46.6219 73.7352L46.6476 73.6578V73.57L46.6683 73.4615L46.4513 73.7972L46.4152 73.8746L46.4565 74.0709L46.6219 74.3911L46.6683 74.5409L46.6374 74.8507L46.5341 75.1244L46.3222 75.3156L46.002 75.388L45.3357 75.2226L44.8502 74.9126L44.3646 74.7524L43.6724 75.0313L43.5639 74.9693L43.3004 74.8968L43.4709 75.2946L44.1011 75.4444L44.2457 75.8576L43.9256 75.7802L43.2282 75.7389L42.9285 75.62L41.9626 76.3018L41.6113 76.4672L41.8696 76.555L41.9678 76.5757L41.8852 76.8391L41.7302 77.5467L42.3396 77.3348L42.5152 77.3193L42.6754 77.4381L42.6702 77.7069L42.572 78.1563L42.6598 78.3319L42.7424 78.3991L42.8457 78.4043L42.9956 78.3991L43.1246 78.4404L43.1711 78.5541L43.1919 78.6935L43.2435 78.8072L43.383 79.0035L43.538 79.2824L43.6465 79.5768L43.6722 79.83H43.538L43.352 79.4839L42.9802 79.6337L42.6237 80.047L42.4635 80.4913L42.3396 80.7444L41.725 81.5244L41.4926 81.762L40.7074 82.1287L40.3304 82.387L40.1754 82.7796L40.1185 83.038L39.9946 83.2859L39.447 84.0402L39.385 84.2209L39.2404 84.9287L39.2559 85.0941L39.4574 85.4298L39.4782 85.5641L39.4213 85.683L39.2715 85.7243L39.1372 85.8585L38.7241 86.685L38.0681 87.3978L38.063 87.532L37.8615 87.718L37.7376 88.1415L37.7015 88.5806L37.7687 88.8441L38.0735 88.9165L38.4713 88.9009L38.8174 88.9681L38.9672 89.273L38.9156 90.2596L38.9828 91.0396L39.0241 91.1946L39.272 91.3187L39.2978 91.4633L39.2461 91.6389L39.2063 91.7074H36.4444H33.2317H30.3933H30.0189H26.807H23.5933H22.4598L22.1806 91.5696L21.5604 91.4137L20.9002 91.7583L20.2346 91.9687L19.9807 92.1011L19.3531 92.765L19.13 92.95L18.7074 92.8176L18.3248 92.7759L17.4398 92.8576L17.1133 92.9337L16.902 92.95L16.8031 92.9046L16.7124 92.8067L16.5819 92.7196L16.3643 92.6996L16.2228 92.8139L16.2022 92.8324ZM40.1782 91.7046H39.94L39.943 91.6876L39.9326 91.3776L40.098 91.455L40.1652 91.5739L40.1782 91.7046ZM74.07 72.7404L73.9976 72.3426L74.3593 72.0793L74.8189 72.0896L75.0359 72.503L75.3717 72.4306L75.7746 72.5235L76.0535 72.7302L75.9967 72.9937L75.7178 72.8181L75.5215 72.8285L75.3561 72.9215L75.1546 72.9939L74.9531 72.9731L74.2713 72.8337L74.07 72.7404ZM67.3552 69.7031L67.2622 69.8943L67.2106 70.1163L67.0969 70.323L66.9935 70.2661L66.8696 70.297L66.7457 70.4107L66.6167 70.5709L66.4669 70.2972L66.2654 70.2663L66.1517 70.4109L66.2602 70.6794L66.1259 70.8809L66.1415 71.103L66.2706 71.2993L66.4978 71.413L66.2706 71.6248L66.1672 72.0226L66.2602 72.41L66.6167 72.6115L66.5702 72.6787L66.5185 72.7096L66.3998 72.7406L66.1157 72.6217L66.0072 72.3531L66.0176 71.6507H65.8987L65.9091 71.8678L65.8522 72.0485L65.7232 72.1828L65.532 72.25L65.4648 71.8317L65.2065 71.4235L64.8965 71.2169L64.6898 71.4131H64.5709L64.2094 70.8139L64.7002 70.9224L64.8757 70.9328L65.0617 70.8759L65.165 70.752L65.1857 70.6281L65.1133 70.5713L65.0409 70.4628L64.452 69.8533L64.23 69.7294L64.1628 69.6209L64.2713 69.435L64.6587 68.9494L64.7517 68.8874L65.4439 68.7687L65.8004 68.7583L66.1413 68.8874L65.8985 69.0528L65.723 69.3007L65.7591 69.4919L66.1413 69.497V69.6056L66.0844 69.7606L66.1774 69.8948L66.3428 69.9156L66.4978 69.7244L66.5598 69.7761L66.5907 69.7963L66.7406 69.8531L66.658 69.6465L66.7044 69.4244L66.8283 69.2954L66.9885 69.3728H67.097L67.0609 69.223L66.9835 69.1093L66.875 69.042L66.7407 69.0059V68.887H67.0765L67.252 69.0678L67.3811 69.3311L67.5878 69.6048L67.3552 69.7031ZM63.7963 71.4802L63.7394 72.0535L63.6104 72.2498L63.445 71.9089L63.4759 71.5319L63.667 71.2787H63.982L63.7963 71.4802ZM73.3056 76.3872L73.1196 77.0639L72.882 76.8211L72.7633 76.9554L72.66 76.6918L72.5257 76.5628L72.3346 76.537L72.0402 76.5731V76.4646L72.345 76.3356L72.9339 75.9378L73.1819 75.8552L73.3522 76.0204L73.3056 76.3872ZM65.7591 73.572L65.5576 73.727L65.0617 73.9285L64.9119 73.4894L64.9583 73.2415L65.2011 73.102L65.6607 72.9935L65.6194 73.0659L65.5626 73.257L65.5317 73.3396H65.8983L65.7591 73.572ZM52.4635 80.9585L52.4428 81.1031L52.4376 81.2787L52.3187 81.0411H52.1998L52.205 81.2994L52.1637 81.4906L51.8022 82.1568L51.668 82.2859L51.4717 82.3583L51.5543 82.565L51.4613 82.7457L51.2806 82.88L51.1204 82.9678L50.9861 82.9522L50.888 82.9213L50.8106 82.8489L50.7589 82.7146L51.0172 82.5183L51.3169 82.1981L51.3893 81.8624L50.9863 81.63L51.2652 81.4906L51.6113 81.4544L51.8282 81.2789L51.8385 81.2272L51.8282 80.9741L51.8643 80.8502L51.9469 80.8398L52.0759 80.907L52.2102 80.8037L52.3083 80.7468L52.5563 80.6694L52.4635 80.9585ZM49.8344 80.5659L49.3489 80.7002L49.2765 80.6898L49.23 80.6072L49.1939 80.4317L49.3076 80.473L49.5556 80.5143L49.6693 80.5504L49.5659 80.3748L49.4885 80.1528L49.4989 79.9772L49.6693 79.9359L49.8604 80.0546L49.943 80.2252L50.0411 80.375L50.2735 80.4318V80.5507L50.0463 80.5352L49.8344 80.5659ZM49.0339 78.7013L48.9719 78.6239L48.9409 78.5L48.8841 78.5361H48.8635L48.8326 78.6291L48.6828 78.4948L48.6207 78.3606L48.662 78.2417L48.8324 78.1539L48.7033 77.968L48.5483 77.8233L48.3831 77.7252L48.223 77.6735L48.5019 77.5857L48.7756 77.6943L48.977 77.9009L49.0596 78.0972L49.1939 78.3504L49.4263 78.6396L49.5089 78.8463L49.1939 78.872L49.1113 78.7739L49.0339 78.7013ZM57.1228 75.9791L56.818 76.2424L56.4565 76.4078L56.033 76.4646V76.3457L56.2757 76.2268L56.0174 76.1287L55.63 76.3146L55.3148 76.2268L55.0513 76.232L54.8446 76.1804L54.6948 76.0615L54.5915 75.8548L54.8343 75.9839L55.0202 75.7619L55.1544 75.8239L55.2783 75.9685L55.4333 75.9841L55.552 75.8291L55.5417 75.6585L55.4693 75.4622L55.4331 75.2556L55.5881 75.3641L55.7224 75.3796L55.8309 75.297L55.9083 75.1369L55.9291 75.328L55.9859 75.4726L56.0996 75.5707L56.2752 75.6172V75.5087L56.048 75.1678L55.955 74.9767L55.9085 74.7752L56.1204 74.9146L56.3322 75.1626L56.4561 75.4622L56.4044 75.7463L56.5904 75.8135L56.7609 75.8548L56.797 75.6328L56.9365 75.5191L57.1328 75.5139L57.36 75.6172L57.1228 75.9791ZM56.2446 74.4346L56.5235 74.4191L56.4461 74.1763L56.477 73.9078L56.5907 73.7476L56.7613 73.82H56.8698V73.4585L57.2469 73.7735L57.1126 74.2694L56.7459 74.755L56.405 75.0287L56.2396 74.8119L56.1724 74.5898L56.2446 74.4346ZM47.9802 80.3076L47.7683 80.8965L47.8407 81.7074L47.9854 82.3583L47.7891 82.3996L47.6857 82.5287L47.6341 82.6578L47.5617 82.7146L47.355 82.6837L47.2052 82.5959L47.1639 82.4822L47.262 82.3583V82.2498L46.9728 82.2291L46.3065 82.3581L46.3478 82.5028L46.3581 82.8385L46.415 83.0761L46.3376 83.0452L46.1465 82.9987L46.0639 82.9678L45.9502 83.2931L45.9244 83.4326L45.9348 83.5565H45.4441L45.3407 83.3293L45.4028 83.1537L45.6972 82.8385L45.9606 82.3839L46.0174 82.1515L45.9348 81.9965V81.8674L46.0122 81.7537L46.1207 81.6763L46.2757 81.6402L46.4772 81.6298V81.5059L46.6322 81.2683L46.8181 81.1081L46.968 81.2889L47.1126 81.3613L47.2676 81.3665L47.3761 81.2787L47.3709 81.072L47.252 80.8861L47.0765 80.7467L46.9061 80.6693L47.025 80.4369L46.8443 80.2561L46.5706 80.1011L46.4156 79.9357H46.307L46.0437 80.0907L45.5478 80.0443L45.0622 79.8996L44.8504 79.7654L44.8761 79.662L44.9794 79.538V79.4707L44.8917 79.3726L44.8143 79.3417L44.7626 79.3004L44.7369 79.1661L44.6283 79.0318L44.3752 78.9028L43.9 78.7426V78.6289L44.1532 78.5772L44.1687 78.4068L44.148 78.2363L44.3133 78.1537L44.5302 78.1744L44.9796 78.2726L45.7802 78.2261L46.0437 78.3191L46.0644 78.6291L45.7596 79.2283L45.7028 79.5796L45.9352 79.8276L46.307 79.8585L46.7513 79.75L47.5054 79.4711L47.3763 79.6983L47.5106 79.8481L47.6552 79.9154L47.8154 79.905L47.9857 79.8276L47.898 79.6726L47.8824 79.5331L47.9444 79.4298L48.1046 79.3524L48.2337 79.6261L48.6159 80.0343L48.7037 80.3235L47.9802 80.3076Z" stroke="white" stroke-width="6" mask="url(#path-1-inside-1_479_955)"/>
</svg>
