<svg width="39" height="39" viewBox="0 0 39 39" fill="none" xmlns="http://www.w3.org/2000/svg">
<path d="M35.4588 19.3669C35.4583 27.516 29.3645 34.3776 21.2726 35.3406V24.4531H24.1326C24.5335 24.4553 24.8708 24.1532 24.9126 23.7544L25.2213 21.3981C25.2427 21.1744 25.1724 20.9515 25.0263 20.7806C24.8768 20.6039 24.6565 20.5027 24.4251 20.5044H21.2726V17.7419C21.2726 16.8444 22.0001 16.1169 22.8976 16.1169H24.5226C24.7322 16.1213 24.9348 16.041 25.0846 15.8943C25.2344 15.7475 25.3189 15.5466 25.3188 15.3369V12.7206C25.3136 12.3136 25.008 11.9732 24.6038 11.9244C24.6038 11.9244 23.4338 11.8269 22.0363 11.8269C18.5588 11.8269 16.6413 13.8906 16.6413 17.6444V20.5044H13.3913C12.9516 20.5044 12.5951 20.8609 12.5951 21.3006V23.6569C12.5951 24.0966 12.9516 24.4531 13.3913 24.4531H16.5438V35.2106C8.14495 33.7216 2.36409 25.9417 3.36187 17.4704C4.35965 8.99915 11.7899 2.77535 20.3049 3.27846C28.8199 3.78157 35.4655 10.8371 35.4588 19.3669Z" fill="white"/>
</svg>
