<svg width="132" height="100" viewBox="0 0 132 100" fill="none" xmlns="http://www.w3.org/2000/svg">
<mask id="path-1-inside-1_479_961" fill="white">
<path d="M125.87 18.4915L126.274 19.8296L126.437 20.6904L126.391 21.4628L126.316 22.7383L126.527 23.8424L127.807 26.8852L128.354 30.6835L128.323 32.8517L127.8 33.9669L127.547 34.2441L126.967 35.7241L126.532 36.0678L125.296 36.775L124.996 37.0809L125.223 38.0489L126.04 39.2022L126.232 39.4L127.743 40.9494L130.71 42.3968L131.288 42.6787L131.08 45.5702L130.846 46.4031L130.268 47.2611L128.716 48.3781L128.023 49.003L126.652 50.9296L124.667 53.1374L124.066 53.5104L121.716 54.1459L120.925 54.6815L121.06 55.5209L121.881 55.392L123.02 55.0017L124.092 55.038L124.511 55.3783L125.159 56.7494L125.578 57.2435L126.626 58.2065L126.967 58.6443L127.22 59.5396L127.267 61.5013L127.637 63.4024L127.568 64.3109L127.343 65.2044L127.031 66.0217L126.482 66.9224L125.84 67.4509L124.612 68.2139L124.297 68.4096L124.179 68.4826L123.554 69.1844L122.612 70.7967L122.016 71.4398L120.243 72.0478L116.8 71.4098L115.099 71.7707L114.311 72.3663L114.718 73.1565L118.859 77.4159L119.155 77.8739L119.268 78.5987L119.025 78.8631L118.681 79.0602L118.509 79.5904L118.783 80.4835L119.469 80.8626L121.256 81.3128L121.642 81.6557L122.337 82.687L122.709 83.1172L124.437 84.273L126.898 85.203L127.551 85.6356L127.972 86.0131L128.072 86.1528L127.532 87.0826L127.505 87.1298L125.471 90.6374L125.109 91.543L124.981 92.492L125.049 92.9478L125.542 94.3287L125.651 94.8678L125.62 95.6696L125.722 97.0689L125.556 97.9028L125.008 99.3593L124.259 98.8478L121.06 94.6722L119.662 93.4074L118.054 92.3954L114.452 91.1576L112.961 90.3768L111.474 89.8039L109.691 89.8L106.035 90.4161L101.272 90.3709L94.5975 90.4593L91.003 91.1144L90.0825 90.628L89.531 90.42L89.2851 90.6083L89.5943 92.4639L89.1621 92.9365L88.6273 92.9481L87.3769 92.4637L86.6764 92.3363L81.2912 92.8326L80.1862 92.762L80.2775 92.9837L80.4097 93.5268L80.4991 93.7485L79.819 93.6994L79.5469 93.625L79.2227 93.3896L77.9556 94.2093L75.4288 93.9602L74.1916 94.4367L72.9878 93.7385L71.3704 93.1031L69.6375 92.6422L64.8077 92.1028L63.5965 92.1617L63.2164 92.1028L61.884 91.2515L61.4834 91.1141L55.4014 90.1293L52.6697 90.4117L52.2467 90.2939L52.4871 89.6661L53.0945 89.4267L54.7491 89.4404V89.1402L51.6895 88.8106L47.9814 88.84L46.9025 89.1402L45.4286 90.0152L44.8695 90.1291L44.5043 89.9368L44.1093 89.052L43.774 88.7813L43.1628 89.1522L42.8312 90.0939L42.4921 90.8002L41.8715 90.4589H41.5865L41.0462 90.8043L40.5916 90.557L40.3903 89.9331L40.6195 89.1406L39.9691 89.3348L39.4008 90.5963L38.743 91.1143L38.7747 90.465L38.9256 89.8863L39.3691 88.7817L39.0095 89.0741L38.4934 89.7569L38.1206 90.1296L38.0834 90.0119L37.8151 89.9059L37.3232 89.8L37.1593 89.8824L37.178 90.0746L37.2321 90.2904L37.1817 90.4591L35.1804 92.0598L31.9047 93.5817L31.0736 94.4072L30.276 95.7248L32.2027 97.7852L32.4916 98.5359L32.7245 99.4826L32.6145 99.853L32.009 100L28.9754 99.9883L28.5319 99.9139L28.0866 99.7004L27.753 99.3652L27.5778 98.6557L24.6486 94.437L24.5032 94.3272L24.1566 94.1743L23.9945 94.0781L23.8325 93.8957L23.7953 93.7487L23.7728 93.5957L23.6499 93.3898L22.7964 92.5896L18.3616 89.3176L17.5658 88.9291L16.1682 88.6937L15.5812 88.4504L15.0817 88.0854L14.8693 87.6302L14.7725 87.1161L14.5134 86.9591L14.124 86.9335L13.6469 86.8059L12.4654 86.3446L12.0816 86.1189L11.7723 86.4761L10.9077 86.1659L9.99081 86.5546L9.02377 87.1552L8.01748 87.4652L7.1734 87.2885L6.12803 86.8646L5.23914 86.3681L4.8647 85.9678L4.4734 85.428L2.75174 84.5544L2.36229 83.665L2.25989 82.7226L1.95988 82.055L0.770996 80.5487L2.36229 78.213L2.22433 78.0204L2.02303 77.5528L2.86155 76.9554L3.40007 74.7189L4.08211 74.2235L4.20692 73.9718L4.12859 73.4057L3.94785 72.8002L3.76896 72.4246L3.65155 71.9115L4.00563 71.4631L5.55785 70.5546L7.59266 69.7287L8.45914 69.5754L9.51562 69.835L9.9834 69.8193L10.1773 69.4259L10.4047 69.0915L10.9134 68.9439L11.4519 68.9104L14.0234 69.0559L15.8458 69.4493L21.8384 72.1276L24.4751 72.2456L24.5701 72.3183L24.8682 72.6544L24.9316 72.7546L25.0358 73.1302L25.2912 73.1026L25.6099 72.9374L25.8969 72.9059L27.2273 73.6037L27.818 73.8159L29.8771 73.8926L30.3653 73.987L30.9019 74.223L31.8877 75.072L32.1784 75.243L32.6499 75.2783L32.8773 75.1428L33.0301 74.9718L33.2741 74.8833L33.7306 74.958L34.2971 75.237L34.7071 75.243L34.9866 75.1131L35.5717 74.6787L35.7617 74.5824L35.8177 74.4665L36.399 73.745L36.7064 73.5896L37.0697 73.5739L37.4462 73.6054L37.8077 73.5917L39.8834 72.9881L40.4797 72.9056L42.1121 73.3144L42.1382 74.1439L41.2103 74.7709L39.9953 74.5822V74.883L39.0077 74.5489L38.1264 74.4291L37.2412 74.5293L36.2425 74.883L36.5443 75.0893L37.3045 75.4961L38.0591 75.6809L38.1095 75.9639L38.0908 76.3333L38.2921 76.7106L39.099 77.072L40.5543 76.8598L41.2736 77.2213L42.8799 76.2506L44.8477 76.003L52.0906 76.5611L53.0167 76.7694L54.841 77.7007L55.8584 77.9091L59.5275 77.7756L61.3201 77.9328L62.9356 78.538L63.7853 79.033L64.4784 79.2981L65.2499 79.3511L66.4053 79.1448L69.6271 78.5672L73.5923 79.5278L73.3556 80.3174L74.2295 80.1465L75.4556 79.7124L76.2643 79.7085L76.9332 79.9954L80.1867 80.5472L81.9514 80.1446L83.1943 79.0859L84.1093 77.5987L84.8771 75.903L85.9895 74.5233L87.4428 74.1991L95.0808 74.8831L95.3584 74.7809L95.4758 74.553L95.5503 74.325L95.7067 74.2228L95.9938 74.2817L96.1278 74.4035L96.2173 74.5254L96.3626 74.5824L97.3149 75.6556L97.7528 75.9031L98.5578 75.685L98.9306 74.8752L99.0349 73.7509L98.9584 70.8096L99.0349 70.2648L99.3554 69.61L99.7095 69.2206L99.8754 68.8587L99.6295 68.2824L99.2177 67.9854L97.1269 66.9624L96.5641 66.8641L95.4499 66.8287L94.9114 66.6635L93.9834 65.8628L93.1578 64.8593L92.2727 64.1626L91.1603 64.2924L89.5951 63.3339L89.2038 62.8989L88.818 61.9796L86.4703 58.3154L85.8217 57.6517L84.9049 56.8993L83.9415 56.2846L83.159 56.0324L82.3056 55.595L77.5056 50.3943L77.2858 49.1522L79.2238 48.3656L80.981 48.2472L81.9517 47.9219L82.3766 47.21L82.1045 46.2987L81.4375 45.8254L80.6064 45.5059L79.8462 45.0561L79.3617 44.4406L78.2623 42.4893L77.9715 41.7176L78.2845 41.4926L78.3199 41.4057L78.2695 41.3111L78.3104 41.0546L78.7577 40.6322L79.2608 39.515L79.5627 39.0669L80.064 38.8181L80.7906 38.6741L81.5286 38.6424L82.0653 38.7352L81.4075 37.4261L80.9341 37.1596L80.0173 37.0767L79.4732 36.66L79.2943 35.712L79.3651 34.7048L79.5627 34.0965L79.8515 34.3987L80.2336 34.6615L80.6734 34.8017L81.1262 34.7306L81.6312 34.3631L81.6573 34.0076L81.4953 33.6065L81.4188 32.4902L81.3032 32.2787L81.4077 32.3181L82.0654 32.4367L82.2947 32.5828L82.6153 32.8574L83.0551 33.0885L83.629 33.1004L82.7456 31.3339L82.2836 31.073L79.9171 30.9228L79.3171 30.4841L78.9147 29.8357L78.311 29.0926L77.4501 28.47L74.5319 27.1317L72.1021 25.6209L71.2338 25.4113L70.4828 25.0593L68.8673 23.6767L68.5617 23.6035L68.1034 23.8093L65.2673 22.7568L64.7977 22.7035L63.8958 22.478L63.4356 22.4306L63.3741 22.4246L63.143 22.5354L62.9306 22.7728L62.6288 23.0122L62.1406 23.1191L61.4604 22.9509L60.4486 22.5276L59.461 21.9776L58.8423 21.4315L57.918 22.3356L55.9503 22.5948L51.5862 22.3731L50.7216 22.1456L50.2147 22.0961L49.8904 21.8844L49.0817 20.9722L48.6364 20.7665L48.001 20.3352L47.7477 19.3656L47.6619 18.3463L47.5297 17.7763L49.164 15.1411L49.4062 14.5906L49.8553 14.5787L52.2478 13.4578V13.0954H49.7186L50.4584 12.5348L51.3304 12.4417L52.264 12.5189L53.1864 12.4594L58.7653 9.88389L60.3977 8.69093L61.3145 7.41259L61.8623 8.08056L62.3858 8.25889L63.6864 8.10833L64.3553 8.20741L65.5627 8.64741L66.2017 8.74444L66.7477 8.73259L67.0514 8.68704L67.9664 8.4413L68.6428 8.35204L69.3434 8.41148L69.9788 8.64926L70.4651 9.10704L70.793 8.35204L71.6558 7.88241L72.7067 7.77926L73.5917 8.10833L74.8141 7.60296L76.2732 7.22037L77.7993 7.02611L79.223 7.10944L83.8964 8.20759L85.0478 8.925L86.0001 9.38074L88.7169 10.2289L88.879 10.4309L89.833 11.6217L91.0591 12.4557L92.3338 12.9172L93.0343 12.4596L93.8691 12.9072L95.2554 13.4459L96.5541 13.7787L97.1262 13.6083L97.4169 14.3767L99.6288 16.448V16.7528L99.4108 16.6537L98.6915 16.4478L99.271 17.8652L99.4723 18.0789L100.283 18.2609L100.454 18.1976L100.283 17.7759L100.881 17.0811L100.73 17.0731L100.432 17.0969L100.283 17.0809L100.294 17.0215L100.389 16.8156L100.501 16.6572L100.568 16.7522V16.4474L100.462 16.297L100.283 15.7863H100.568L101.248 16.1585L102.183 16.2456L103.018 15.9722L103.383 15.2554L103.844 14.7761L104.747 14.7524L105.362 15.2752L104.973 16.4474L105.75 16.9146L106.499 16.9939L108.31 16.6731L108.467 16.685L108.724 16.7524L109.04 16.9663L109.7 17.6354L110.144 17.7759H111.724L112.095 17.8807L112.298 18.1083L112.443 18.3359L112.872 18.5457L113.494 19.0009L113.911 19.1057L114.265 18.9394L114.498 18.5772L114.791 18.2248L115.317 18.0783L116.187 17.4093L117.485 17.4191L119.725 18.0783L120.955 18.2485L121.283 18.4939L121.005 19.1056L120.609 19.3648L120.065 19.4559L118.786 19.4381L119.267 20.3287L120.061 20.4217L120.922 20.1802L121.6 20.0694L122.427 20.768L122.938 21.0885L123.163 20.9343L123.409 20.2674L123.311 19.9191L122.301 19.6539L121.976 19.355L121.812 18.9274L121.887 18.4406L122.237 18.1378L122.761 18.1733L123.946 18.4406L125.87 18.4915ZM40.1669 96.7111L40.9384 96.7581L41.844 96.9463L42.498 97.3422V98.0244L41.9278 98.3891L40.9943 98.4772L39.213 98.3852L38.4117 98.2087L37.7112 97.7815L36.5597 96.7111L36.7069 96.2307L36.9138 96.0328L37.1747 96.1015L37.4673 96.4093L37.9928 96.0426L38.2443 96.1739L38.4269 96.5013L38.7438 96.7111H40.1669ZM32.4917 70.9246L33.5817 70.4074L35.0799 70.5274L36.2258 71.1743L36.2427 72.2459L35.188 72.8791L33.7271 72.8711L32.5867 72.2183L32.4917 70.9246ZM75.8097 0.0614816L77.1327 0L78.016 0.125L78.806 0.476111L79.8458 1.09315L84.1801 2.80296L86.023 3.975L85.5032 5.11519L84.7597 4.79593L80.8801 4.25852L79.0801 3.54852L76.8553 3.04481L76.0969 2.69574L75.5715 2.79685L75.0275 3.00111L74.5317 3.08833L73.574 2.89389L72.4523 2.51704L71.4349 1.99926L70.7827 1.39222L70.984 1.39426L71.1106 1.33074L71.3771 1.09278L73.4958 0.378518L75.8097 0.0614816ZM57.1219 58.842L56.2665 58.2315L56.0262 58.0187L55.6908 57.5972L55.3871 57.0989L55.2454 56.565L55.4019 56.0331L55.9684 55.3948L56.7697 54.855L57.7032 54.4885L58.6871 54.3506L59.7715 54.4746L66.1314 57.1559L69.2693 58.1859L72.7577 59.9563L76.0149 61.3285L77.3453 62.9722L77.6919 64.0193L77.8558 65.2669L77.7254 66.4887L77.1888 67.4428L76.7006 67.6474L76.3764 67.3504L75.9664 66.4828L75.5751 66.1365L75.2247 66.042L74.1925 65.9752L70.1117 65.0622L68.718 64.9539L67.2534 64.5937L63.2173 61.9798L59.1403 60.8674L58.0445 60.1468L57.1219 58.842Z"/>
</mask>
<path d="M125.87 18.4915L126.274 19.8296L126.437 20.6904L126.391 21.4628L126.316 22.7383L126.527 23.8424L127.807 26.8852L128.354 30.6835L128.323 32.8517L127.8 33.9669L127.547 34.2441L126.967 35.7241L126.532 36.0678L125.296 36.775L124.996 37.0809L125.223 38.0489L126.04 39.2022L126.232 39.4L127.743 40.9494L130.71 42.3968L131.288 42.6787L131.08 45.5702L130.846 46.4031L130.268 47.2611L128.716 48.3781L128.023 49.003L126.652 50.9296L124.667 53.1374L124.066 53.5104L121.716 54.1459L120.925 54.6815L121.06 55.5209L121.881 55.392L123.02 55.0017L124.092 55.038L124.511 55.3783L125.159 56.7494L125.578 57.2435L126.626 58.2065L126.967 58.6443L127.22 59.5396L127.267 61.5013L127.637 63.4024L127.568 64.3109L127.343 65.2044L127.031 66.0217L126.482 66.9224L125.84 67.4509L124.612 68.2139L124.297 68.4096L124.179 68.4826L123.554 69.1844L122.612 70.7967L122.016 71.4398L120.243 72.0478L116.8 71.4098L115.099 71.7707L114.311 72.3663L114.718 73.1565L118.859 77.4159L119.155 77.8739L119.268 78.5987L119.025 78.8631L118.681 79.0602L118.509 79.5904L118.783 80.4835L119.469 80.8626L121.256 81.3128L121.642 81.6557L122.337 82.687L122.709 83.1172L124.437 84.273L126.898 85.203L127.551 85.6356L127.972 86.0131L128.072 86.1528L127.532 87.0826L127.505 87.1298L125.471 90.6374L125.109 91.543L124.981 92.492L125.049 92.9478L125.542 94.3287L125.651 94.8678L125.62 95.6696L125.722 97.0689L125.556 97.9028L125.008 99.3593L124.259 98.8478L121.06 94.6722L119.662 93.4074L118.054 92.3954L114.452 91.1576L112.961 90.3768L111.474 89.8039L109.691 89.8L106.035 90.4161L101.272 90.3709L94.5975 90.4593L91.003 91.1144L90.0825 90.628L89.531 90.42L89.2851 90.6083L89.5943 92.4639L89.1621 92.9365L88.6273 92.9481L87.3769 92.4637L86.6764 92.3363L81.2912 92.8326L80.1862 92.762L80.2775 92.9837L80.4097 93.5268L80.4991 93.7485L79.819 93.6994L79.5469 93.625L79.2227 93.3896L77.9556 94.2093L75.4288 93.9602L74.1916 94.4367L72.9878 93.7385L71.3704 93.1031L69.6375 92.6422L64.8077 92.1028L63.5965 92.1617L63.2164 92.1028L61.884 91.2515L61.4834 91.1141L55.4014 90.1293L52.6697 90.4117L52.2467 90.2939L52.4871 89.6661L53.0945 89.4267L54.7491 89.4404V89.1402L51.6895 88.8106L47.9814 88.84L46.9025 89.1402L45.4286 90.0152L44.8695 90.1291L44.5043 89.9368L44.1093 89.052L43.774 88.7813L43.1628 89.1522L42.8312 90.0939L42.4921 90.8002L41.8715 90.4589H41.5865L41.0462 90.8043L40.5916 90.557L40.3903 89.9331L40.6195 89.1406L39.9691 89.3348L39.4008 90.5963L38.743 91.1143L38.7747 90.465L38.9256 89.8863L39.3691 88.7817L39.0095 89.0741L38.4934 89.7569L38.1206 90.1296L38.0834 90.0119L37.8151 89.9059L37.3232 89.8L37.1593 89.8824L37.178 90.0746L37.2321 90.2904L37.1817 90.4591L35.1804 92.0598L31.9047 93.5817L31.0736 94.4072L30.276 95.7248L32.2027 97.7852L32.4916 98.5359L32.7245 99.4826L32.6145 99.853L32.009 100L28.9754 99.9883L28.5319 99.9139L28.0866 99.7004L27.753 99.3652L27.5778 98.6557L24.6486 94.437L24.5032 94.3272L24.1566 94.1743L23.9945 94.0781L23.8325 93.8957L23.7953 93.7487L23.7728 93.5957L23.6499 93.3898L22.7964 92.5896L18.3616 89.3176L17.5658 88.9291L16.1682 88.6937L15.5812 88.4504L15.0817 88.0854L14.8693 87.6302L14.7725 87.1161L14.5134 86.9591L14.124 86.9335L13.6469 86.8059L12.4654 86.3446L12.0816 86.1189L11.7723 86.4761L10.9077 86.1659L9.99081 86.5546L9.02377 87.1552L8.01748 87.4652L7.1734 87.2885L6.12803 86.8646L5.23914 86.3681L4.8647 85.9678L4.4734 85.428L2.75174 84.5544L2.36229 83.665L2.25989 82.7226L1.95988 82.055L0.770996 80.5487L2.36229 78.213L2.22433 78.0204L2.02303 77.5528L2.86155 76.9554L3.40007 74.7189L4.08211 74.2235L4.20692 73.9718L4.12859 73.4057L3.94785 72.8002L3.76896 72.4246L3.65155 71.9115L4.00563 71.4631L5.55785 70.5546L7.59266 69.7287L8.45914 69.5754L9.51562 69.835L9.9834 69.8193L10.1773 69.4259L10.4047 69.0915L10.9134 68.9439L11.4519 68.9104L14.0234 69.0559L15.8458 69.4493L21.8384 72.1276L24.4751 72.2456L24.5701 72.3183L24.8682 72.6544L24.9316 72.7546L25.0358 73.1302L25.2912 73.1026L25.6099 72.9374L25.8969 72.9059L27.2273 73.6037L27.818 73.8159L29.8771 73.8926L30.3653 73.987L30.9019 74.223L31.8877 75.072L32.1784 75.243L32.6499 75.2783L32.8773 75.1428L33.0301 74.9718L33.2741 74.8833L33.7306 74.958L34.2971 75.237L34.7071 75.243L34.9866 75.1131L35.5717 74.6787L35.7617 74.5824L35.8177 74.4665L36.399 73.745L36.7064 73.5896L37.0697 73.5739L37.4462 73.6054L37.8077 73.5917L39.8834 72.9881L40.4797 72.9056L42.1121 73.3144L42.1382 74.1439L41.2103 74.7709L39.9953 74.5822V74.883L39.0077 74.5489L38.1264 74.4291L37.2412 74.5293L36.2425 74.883L36.5443 75.0893L37.3045 75.4961L38.0591 75.6809L38.1095 75.9639L38.0908 76.3333L38.2921 76.7106L39.099 77.072L40.5543 76.8598L41.2736 77.2213L42.8799 76.2506L44.8477 76.003L52.0906 76.5611L53.0167 76.7694L54.841 77.7007L55.8584 77.9091L59.5275 77.7756L61.3201 77.9328L62.9356 78.538L63.7853 79.033L64.4784 79.2981L65.2499 79.3511L66.4053 79.1448L69.6271 78.5672L73.5923 79.5278L73.3556 80.3174L74.2295 80.1465L75.4556 79.7124L76.2643 79.7085L76.9332 79.9954L80.1867 80.5472L81.9514 80.1446L83.1943 79.0859L84.1093 77.5987L84.8771 75.903L85.9895 74.5233L87.4428 74.1991L95.0808 74.8831L95.3584 74.7809L95.4758 74.553L95.5503 74.325L95.7067 74.2228L95.9938 74.2817L96.1278 74.4035L96.2173 74.5254L96.3626 74.5824L97.3149 75.6556L97.7528 75.9031L98.5578 75.685L98.9306 74.8752L99.0349 73.7509L98.9584 70.8096L99.0349 70.2648L99.3554 69.61L99.7095 69.2206L99.8754 68.8587L99.6295 68.2824L99.2177 67.9854L97.1269 66.9624L96.5641 66.8641L95.4499 66.8287L94.9114 66.6635L93.9834 65.8628L93.1578 64.8593L92.2727 64.1626L91.1603 64.2924L89.5951 63.3339L89.2038 62.8989L88.818 61.9796L86.4703 58.3154L85.8217 57.6517L84.9049 56.8993L83.9415 56.2846L83.159 56.0324L82.3056 55.595L77.5056 50.3943L77.2858 49.1522L79.2238 48.3656L80.981 48.2472L81.9517 47.9219L82.3766 47.21L82.1045 46.2987L81.4375 45.8254L80.6064 45.5059L79.8462 45.0561L79.3617 44.4406L78.2623 42.4893L77.9715 41.7176L78.2845 41.4926L78.3199 41.4057L78.2695 41.3111L78.3104 41.0546L78.7577 40.6322L79.2608 39.515L79.5627 39.0669L80.064 38.8181L80.7906 38.6741L81.5286 38.6424L82.0653 38.7352L81.4075 37.4261L80.9341 37.1596L80.0173 37.0767L79.4732 36.66L79.2943 35.712L79.3651 34.7048L79.5627 34.0965L79.8515 34.3987L80.2336 34.6615L80.6734 34.8017L81.1262 34.7306L81.6312 34.3631L81.6573 34.0076L81.4953 33.6065L81.4188 32.4902L81.3032 32.2787L81.4077 32.3181L82.0654 32.4367L82.2947 32.5828L82.6153 32.8574L83.0551 33.0885L83.629 33.1004L82.7456 31.3339L82.2836 31.073L79.9171 30.9228L79.3171 30.4841L78.9147 29.8357L78.311 29.0926L77.4501 28.47L74.5319 27.1317L72.1021 25.6209L71.2338 25.4113L70.4828 25.0593L68.8673 23.6767L68.5617 23.6035L68.1034 23.8093L65.2673 22.7568L64.7977 22.7035L63.8958 22.478L63.4356 22.4306L63.3741 22.4246L63.143 22.5354L62.9306 22.7728L62.6288 23.0122L62.1406 23.1191L61.4604 22.9509L60.4486 22.5276L59.461 21.9776L58.8423 21.4315L57.918 22.3356L55.9503 22.5948L51.5862 22.3731L50.7216 22.1456L50.2147 22.0961L49.8904 21.8844L49.0817 20.9722L48.6364 20.7665L48.001 20.3352L47.7477 19.3656L47.6619 18.3463L47.5297 17.7763L49.164 15.1411L49.4062 14.5906L49.8553 14.5787L52.2478 13.4578V13.0954H49.7186L50.4584 12.5348L51.3304 12.4417L52.264 12.5189L53.1864 12.4594L58.7653 9.88389L60.3977 8.69093L61.3145 7.41259L61.8623 8.08056L62.3858 8.25889L63.6864 8.10833L64.3553 8.20741L65.5627 8.64741L66.2017 8.74444L66.7477 8.73259L67.0514 8.68704L67.9664 8.4413L68.6428 8.35204L69.3434 8.41148L69.9788 8.64926L70.4651 9.10704L70.793 8.35204L71.6558 7.88241L72.7067 7.77926L73.5917 8.10833L74.8141 7.60296L76.2732 7.22037L77.7993 7.02611L79.223 7.10944L83.8964 8.20759L85.0478 8.925L86.0001 9.38074L88.7169 10.2289L88.879 10.4309L89.833 11.6217L91.0591 12.4557L92.3338 12.9172L93.0343 12.4596L93.8691 12.9072L95.2554 13.4459L96.5541 13.7787L97.1262 13.6083L97.4169 14.3767L99.6288 16.448V16.7528L99.4108 16.6537L98.6915 16.4478L99.271 17.8652L99.4723 18.0789L100.283 18.2609L100.454 18.1976L100.283 17.7759L100.881 17.0811L100.73 17.0731L100.432 17.0969L100.283 17.0809L100.294 17.0215L100.389 16.8156L100.501 16.6572L100.568 16.7522V16.4474L100.462 16.297L100.283 15.7863H100.568L101.248 16.1585L102.183 16.2456L103.018 15.9722L103.383 15.2554L103.844 14.7761L104.747 14.7524L105.362 15.2752L104.973 16.4474L105.75 16.9146L106.499 16.9939L108.31 16.6731L108.467 16.685L108.724 16.7524L109.04 16.9663L109.7 17.6354L110.144 17.7759H111.724L112.095 17.8807L112.298 18.1083L112.443 18.3359L112.872 18.5457L113.494 19.0009L113.911 19.1057L114.265 18.9394L114.498 18.5772L114.791 18.2248L115.317 18.0783L116.187 17.4093L117.485 17.4191L119.725 18.0783L120.955 18.2485L121.283 18.4939L121.005 19.1056L120.609 19.3648L120.065 19.4559L118.786 19.4381L119.267 20.3287L120.061 20.4217L120.922 20.1802L121.6 20.0694L122.427 20.768L122.938 21.0885L123.163 20.9343L123.409 20.2674L123.311 19.9191L122.301 19.6539L121.976 19.355L121.812 18.9274L121.887 18.4406L122.237 18.1378L122.761 18.1733L123.946 18.4406L125.87 18.4915ZM40.1669 96.7111L40.9384 96.7581L41.844 96.9463L42.498 97.3422V98.0244L41.9278 98.3891L40.9943 98.4772L39.213 98.3852L38.4117 98.2087L37.7112 97.7815L36.5597 96.7111L36.7069 96.2307L36.9138 96.0328L37.1747 96.1015L37.4673 96.4093L37.9928 96.0426L38.2443 96.1739L38.4269 96.5013L38.7438 96.7111H40.1669ZM32.4917 70.9246L33.5817 70.4074L35.0799 70.5274L36.2258 71.1743L36.2427 72.2459L35.188 72.8791L33.7271 72.8711L32.5867 72.2183L32.4917 70.9246ZM75.8097 0.0614816L77.1327 0L78.016 0.125L78.806 0.476111L79.8458 1.09315L84.1801 2.80296L86.023 3.975L85.5032 5.11519L84.7597 4.79593L80.8801 4.25852L79.0801 3.54852L76.8553 3.04481L76.0969 2.69574L75.5715 2.79685L75.0275 3.00111L74.5317 3.08833L73.574 2.89389L72.4523 2.51704L71.4349 1.99926L70.7827 1.39222L70.984 1.39426L71.1106 1.33074L71.3771 1.09278L73.4958 0.378518L75.8097 0.0614816ZM57.1219 58.842L56.2665 58.2315L56.0262 58.0187L55.6908 57.5972L55.3871 57.0989L55.2454 56.565L55.4019 56.0331L55.9684 55.3948L56.7697 54.855L57.7032 54.4885L58.6871 54.3506L59.7715 54.4746L66.1314 57.1559L69.2693 58.1859L72.7577 59.9563L76.0149 61.3285L77.3453 62.9722L77.6919 64.0193L77.8558 65.2669L77.7254 66.4887L77.1888 67.4428L76.7006 67.6474L76.3764 67.3504L75.9664 66.4828L75.5751 66.1365L75.2247 66.042L74.1925 65.9752L70.1117 65.0622L68.718 64.9539L67.2534 64.5937L63.2173 61.9798L59.1403 60.8674L58.0445 60.1468L57.1219 58.842Z" stroke="white" stroke-width="6" mask="url(#path-1-inside-1_479_961)"/>
</svg>
