<svg width="82" height="100" viewBox="0 0 82 100" fill="none" xmlns="http://www.w3.org/2000/svg">
<mask id="path-1-inside-1_479_951" fill="white">
<path d="M0.32352 8.36815L1.36352 7.33481L2.40241 6.30222L3.4413 5.2687L4.4813 4.23556L5.28889 3.81796L6.0037 3.44833L6.7137 3.09222L7.41463 2.74056L8.41574 2.37519L9.25074 2.06L10.0335 1.76444L10.8761 1.4463L11.8183 1.09056L12.6609 0.772408L13.3763 0.502223L13.5583 0.844815L14.28 0.444815L15.0826 0L15.3102 0.274074L14.9233 1.07352H15.9472L16.7209 1.30185L16.2204 2.58074L16.6363 3.33778L17.1306 4.23704L17.1459 4.24241L18.0537 4.55611L18.1102 4.24296L18.1111 4.23759L18.1685 3.80778L18.4554 3.6063L18.857 3.63519L18.8857 4.23815L19.6606 4.24148L20.322 4.24426L20.3422 4.42241L20.4783 4.66537L20.4889 4.86426L20.458 5.0713L20.4548 5.24704L20.5239 5.39296L20.7078 5.50852L21.1065 5.85833L21.3256 6.00093L21.5617 6.05722L21.6026 6.05685L23.1046 6.04444L23.4587 5.99611L23.5672 5.99556L23.6683 6.02296L23.8556 6.11352L23.9885 6.13167L25.9004 6.09333L27.5104 6.06018L27.5996 6.08L27.7517 6.17148L27.8122 6.18611L27.8378 6.19222L29.8209 6.17519L30.4344 6.345L31.1661 6.71481L31.5861 6.8113L31.6861 6.88667L31.8478 7.15963L31.9233 7.20981L32.1296 7.19426L32.2061 7.2187L32.2741 7.31074L32.3144 7.41074L32.3676 7.64L32.4006 7.69537L32.4537 7.70759L32.5154 7.70593L32.5759 7.72185L33.1331 8.08037L34.1359 8.72685L35.1387 9.37352L36.3126 10.1289L37.1463 10.6661L38.0894 11.2748L39.1517 11.9591L40.1309 12.59L41.157 13.2509L41.4739 13.455L41.6654 13.6459L41.927 14.0661L42.0856 14.2543L42.2174 14.3272L42.5246 14.4219L42.7619 14.6283L42.8872 14.6494L43.2115 14.5687L43.5337 14.5431L44.6257 14.667L45.7252 14.7909L46.3015 14.7417L46.8257 14.512L46.8385 14.453L46.83 14.3611L46.8513 14.2754L46.9502 14.2352L47.0044 14.2589L47.1991 14.4206L47.282 14.5189L47.3022 14.6004L47.3426 14.6607L47.4861 14.697L47.6202 14.7119L47.6765 14.7041L47.8222 14.647L47.8413 14.6815L47.8518 14.7369L47.9061 14.7726L48.5069 14.8159L48.5046 14.7454L48.5185 14.6007L48.5143 14.5326L48.7928 14.9002L48.9533 15.0637L49.1415 15.167L50.157 15.4419L50.9237 15.6496L51.1917 15.6454L51.6233 15.562L51.7956 15.5854L51.9498 15.6426L52.1093 15.6404L52.7006 15.5156L52.7994 15.5396L52.9322 15.6007L53.8587 16.0269L54.2596 16.1124L54.652 16.1022L55.0507 15.8724L55.1167 15.8344L55.2517 15.8424L55.2994 15.9493L55.2048 16.1394L56.4893 16.1778L56.8061 16.2846L56.8954 16.4002L56.9496 16.5398L57.0272 16.6774L57.1909 16.7863L57.5194 16.7691L57.6928 16.498L57.9172 15.8117L58.1831 15.492L58.8583 14.8754L59.6676 14.1346L59.8643 13.8752L60.0344 13.5574L60.3215 12.7974L60.5235 12.2581L60.7309 12.0033L61.6124 11.5763L62.4981 11.1491L63.4956 10.6665L63.9613 10.4346L64.0081 10.3741L64.0007 10.3098L64.0104 10.2687L64.1093 10.2783L64.1402 10.2959L64.1711 10.3044L64.1998 10.3028L65.2418 9.9387L66.0531 9.65593L66.1085 9.6037L66.1691 9.43704L66.2276 9.38241L67.5568 8.86982L68.6435 8.45167L69.4994 8.12241L70.1481 7.69519L70.3746 7.99537L70.9946 8.41685L71.2478 8.70574L71.42 9.02481L71.5263 9.12926L71.7135 9.225L72.2048 9.39296L72.3707 9.49204L72.6398 9.74037L73.3002 10.6661L73.7574 11.0226L74.2561 11.2254L74.7941 11.288L75.8446 11.228L76.9983 11.1613L77.5152 11.0163L77.7874 11.0013L78.6115 10.7974L78.7752 10.8085L79.0474 10.9219L79.1941 10.9491L79.343 10.9156L79.7789 10.6659L80.268 10.8257L80.7209 11.0656L81.1793 11.1554L81.6844 10.8689L80.8231 12.1069L79.9596 13.3444L79.0972 14.5824L78.2337 15.8202L77.702 16.5824L77.1693 17.3454L76.6376 18.1069L76.1048 18.8694L75.2606 19.7076L74.4141 20.5463L73.5676 21.3843L72.7222 22.2217L72.3702 22.5709L72.2224 22.8569L72.2278 23.4083L72.2406 24.7357L72.2544 26.1222V26.8859V27.982V29.0781V30.1739V31.2698V32.5569V33.8431V35.13V36.4167V37.7026V38.9887V39.1628V40.275V41.5613V42.847V44.1333V45.4185V46.7052V47.9907V49.2774V50.563V51.8496L72.2661 52.6928L72.2746 53.3872L72.282 54.0817L72.2968 55.1993L72.3117 56.3148L72.3265 57.4313L72.3413 58.5489L72.3509 59.2741L72.3605 59.9993L72.3702 60.7809L72.6328 61.1202L72.8933 61.4594L73.1559 61.7976L73.4174 62.1369L73.9267 62.7941L74.453 63.4757L75.0196 64.2085L75.4896 64.8148L75.9957 65.4689L76.5263 66.155L77.0452 66.8241L77.563 67.4943L77.9574 68.0048L78.0818 68.2315L78.1191 68.4261L78.0919 69.0706L78.083 69.2763L78.077 69.2822L77.2933 70.0846L76.9233 70.65L76.8748 70.8302L76.652 70.9676L76.0669 71.5004L75.7002 71.9511L75.4867 72.0785L75.3285 71.8843L75.1368 71.963L74.9594 71.9444L74.8413 71.8263L74.8313 71.6043L74.6254 71.817L74.5852 72.0633L74.4898 72.3013L74.1926 72.2737L73.7907 72.1791L73.7011 72.1724L73.5746 72.2511L73.3704 72.4756L73.0924 72.5928L72.9852 72.7319L72.873 72.8474L72.7113 72.8391L72.5756 72.7687L72.4776 72.7L72.4098 72.6011L72.367 72.4537L72.3746 72.3013L72.4759 72.0165L72.4693 71.8909L72.4441 71.7485L72.4859 71.6211L72.6407 71.3915L72.2765 71.6713L72.2346 72.8819L72.0152 73.1557L71.8243 73.0124L71.6333 72.3791L71.4457 72.2357L71.3385 72.1737L71.2439 72.0648L71.1476 72.0263L71.0254 72.172L71.0924 72.3261L71.1226 72.4619L71.0957 72.5926L71.2631 72.5196L71.3954 72.5548L71.485 72.6704L71.5159 72.8387L71.4941 72.9074L71.3987 72.9628L71.3752 73.0215L71.4094 73.1204L71.4848 73.1439L71.5602 73.1606L71.5928 73.2293L71.6104 73.98L71.6715 74.3789L71.8037 74.6387L71.8957 74.6639L72.008 74.6506L72.1335 74.6565L72.2633 74.747L72.3639 74.8954L72.3789 75.0076L72.2633 75.275L72.0096 75.5876L71.7811 75.6328L71.7485 75.5163L72.0852 75.3478L71.9078 75.2841L71.7654 75.1885L71.5159 74.9254L71.4774 74.8433L71.4907 74.7913L71.4841 74.7519L71.3752 74.7091L71.3885 74.7326L71.3191 74.7569L71.1683 74.7844L70.9113 74.9252L70.6811 75.2017L70.465 75.3928L70.2515 75.277L70.2581 75.365L70.285 75.458L70.3402 75.535L70.4248 75.5652L70.4743 75.5937L70.455 75.6607L70.3856 75.7722L70.4526 75.9231L70.7439 76.1167L70.8143 76.2607L70.6937 76.4987L70.4098 76.7778L70.0891 77.0091L69.6119 77.2059L68.9822 77.9552L68.6256 78.0909L68.31 78.0222L68.0035 77.8839L67.6761 77.8085L67.3394 77.8437L66.2996 78.1715L65.8726 78.4781L65.613 78.5604L65.3107 78.7489L64.7983 79.1639L64.6768 79.2913L64.5865 79.4356L64.3965 79.8665L64.0893 80.2554L64.0448 80.4289L64.065 80.5085L64.2181 80.713L64.2298 80.78L64.1904 80.9376L64.1794 81.0272L63.9852 81.6854L63.9617 82.0231L64.1794 82.1883L64.1259 82.4583L64.2507 82.5774L64.4626 82.5565L64.6768 82.398L64.6852 82.5137L64.6048 82.6361L64.2448 82.9791L64.0296 83.2667L63.9744 83.3907L63.93 83.9139L63.8646 84.0933L63.5146 84.5915L63.507 84.7298L63.6183 85.1046L63.6167 85.2959L63.553 85.4554L63.4617 85.603L63.342 85.732L63.1956 85.8293L62.6981 86.0557L62.5626 86.1463L62.3156 86.4356L62.1767 86.5463L61.995 86.5757L62.0754 86.4004L62.1867 86.007L62.2059 85.8644L62.0209 85.9098L61.9396 86.0104L61.922 86.1446L61.9246 86.2898L61.9146 86.3854L61.8543 86.6394L61.8735 86.6965L61.912 86.7526L61.9306 86.8139L61.7496 87.1107L61.5404 87.6609L61.2657 88.1022L61.1585 88.6954L61.0406 88.9361L60.91 89.0535L60.8204 89.072L60.5976 88.9748L60.5481 88.9446L60.4133 88.7885L60.3648 88.7785L60.0911 88.7559L60.1337 88.6661L60.1413 88.625L60.035 88.5394L59.9546 88.7281L59.9831 88.8859L60.107 88.9781L60.3146 88.9748L60.1907 89.1207L60.2326 89.2415L60.3774 89.2893L60.735 89.1433L60.8496 89.2265L60.915 89.3843L60.9409 89.537L60.9209 89.8626L60.0911 92.1543L59.8274 92.4085L59.5328 92.4556L59.3252 92.3004L59.3268 91.9504L59.0991 92.0763L59.0354 92.1543L59.0722 92.2574L59.1417 92.3615L59.1768 92.4589L59.223 92.553L59.3268 92.6478L59.5546 92.6302L59.6685 92.6856L59.6393 92.8635L59.4224 93.1035L59.3906 93.1765L59.362 93.268L59.2883 93.3956L59.197 93.508L59.1074 93.5567L59.0085 93.503L58.9398 93.2663L58.8594 93.2117L58.7891 93.0867L58.8107 92.85L58.7957 92.7074L58.6165 92.8593L58.3519 92.7141L58.232 92.6956L58.1191 92.7887L58.2213 92.8868L58.3428 92.9346L58.6167 93L58.5396 93.1839L58.4426 93.2711L58.1194 93.345L58.0139 93.3476L57.8983 93.3367L57.8054 93.3476L57.7678 93.4189L57.7754 93.6372L57.7956 93.7396L57.8383 93.8454L57.9874 93.6439L58.3291 93.6204L58.6891 93.7261L58.8909 93.9157L58.8517 94.1643L58.3376 95.0491L58.0078 95.8904L57.6711 97.1567L57.5572 97.4489L57.4652 97.3144L57.3765 97.322L57.2894 97.4118L57.2074 97.5278L57.1907 97.5841L57.2007 97.7126L57.1681 97.7706L57.0217 97.9041L56.9898 97.9494L56.6381 99.0128L56.5728 98.8213L56.6046 98.5205L56.5678 98.3728L56.4356 98.4761L56.3619 98.6198L56.2998 98.7811L56.2161 98.9357L56.1659 98.9298L56.0931 98.8904L56.0278 98.9004L56.0002 99.0457L56.0202 99.1315L56.1809 99.3557L56.077 99.4985L55.7304 99.5498L55.3385 99.4531L55.0924 99.1474L55.0841 99.207L55.023 99.3591L54.7207 99.2676L54.498 99.4819L54.3096 99.7759L54.1087 99.923L54.0661 99.9372L54.0293 99.9406L53.9957 99.9557L53.963 100L53.09 99.3683L52.2117 98.7346L51.3333 98.1L50.455 97.4654L49.5767 96.8319L48.6972 96.1974L47.82 95.563L46.9428 94.9296L46.0633 94.2963L45.9952 94.247L45.1861 93.662L44.3067 93.0289L43.4294 92.3946L42.5522 91.7615L41.6728 91.1274L40.7956 90.4933L39.9172 89.8593L39.3569 89.4565L39.2154 89.2711L39.1122 89.0602L38.9335 88.4252L38.8559 88.2665L38.7124 88.1344L38.5178 88.0407L38.3009 87.9831L38.0807 87.9639L37.5883 87.9926L37.5585 87.8509L37.6404 87.6496L37.6818 87.4791L37.6298 87.3981L37.4607 87.3768L37.3863 87.3013L37.3704 87.1926L37.3968 87.0722L37.4457 86.9572L37.4978 86.8656L37.6478 86.6994L37.8774 86.5172L38.122 86.3863L38.3167 86.3713L38.3019 86.187L38.338 86.0431L38.44 85.9548L38.6272 85.9409L38.4209 84.6815L38.3987 84.5457L38.2169 83.4287L38.0594 83.1752L37.2098 82.7004L35.7893 81.9059L35.0013 81.4652L32.7917 80.2302L30.5832 78.9963L28.3746 77.7615L26.1661 76.528L23.9565 75.2944L21.7489 74.06L19.5404 72.8257L17.3319 71.5915L15.1243 70.3574L13.3826 69.385L12.9157 69.1243L10.7061 67.8902L8.49759 66.6574L7.95574 66.3548L6.28889 65.4237L4.07926 64.1909L1.87074 62.9572L1.32185 62.6506L1.33574 62.6089L1.30537 62.5846L1.25389 62.5633L1.22667 62.4756L1.30537 62.3696L1.45685 62.3454L1.56593 62.3059L1.50833 62.1483L1.37815 62.2331L1.21148 62.2726L1.05407 62.2331L0.944999 62.0848L1.16 62.1333L1.23871 62.0696L1.29926 61.8031L1.76871 62.103L1.93222 62.1483V62.0848L1.8413 61.8818L1.87463 61.6335L1.99889 61.2033L2.10481 61.0641L2.30463 60.943L2.44389 60.7856L2.35907 60.5341L2.26222 60.4826L1.78982 60.322L1.36574 60.0283L1.29907 60.0041L1.29296 59.8072L1.25352 59.5256L1.15056 59.3135L0.944629 59.3378L1.05056 58.42L1.12019 58.2776L1.19889 58.2472L1.30482 58.1685L1.39574 58.0746L1.43815 57.9898L1.41093 57.8535L1.33222 57.7567L1.23537 57.6719L1.15056 57.5689L1.21407 57.5385L1.35945 57.5265L1.43815 57.4993L1.60167 57.3235L1.6137 57.2963L1.96796 57.3267L2.10426 57.2904L2.2163 57.148L2.35259 56.4606L2.50407 56.1667L2.84926 56.0941L2.82204 56.1304L2.77963 56.2304L3.07333 56.2394L3.48833 56.615L3.76093 56.727L3.72463 56.6543L3.6913 56.5604L3.69426 56.4756L3.76093 56.4452L3.83371 56.4876L3.91852 56.6663L3.96704 56.7269L4.13667 56.7541L4.27 56.6844L4.32148 56.5452L4.25481 56.3694L4.41222 56.3633L4.53037 56.3967L4.62722 56.4604L4.715 56.5543L4.77259 56.642L4.86648 56.8541L4.88463 56.9389L4.83611 57.0117L4.75741 57.1056L4.7513 57.1904L4.92093 57.2237L5.04815 57.1813L5.29945 56.9815L5.41759 56.9391L5.44482 56.9028L5.73556 56.727L5.75981 56.6361L5.75685 56.4937L5.70241 56.3635L5.26018 56.1848L5.18148 55.9061L5.19667 55.6002L5.17537 55.3852L5.37222 55.2943L5.68111 55.2094L5.98093 55.1609L6.15667 55.173L6.26259 55.1033L6.34445 55.0972L6.41407 55.1367L6.48371 55.2063L6.59574 55.2759L6.68963 55.273L6.78056 55.2457L6.86537 55.2367L7.33185 55.37L7.53778 55.3852L8.17685 55.3217L8.31315 55.2763L8.31926 55.1189L8.2587 54.9159L8.27074 54.7767L8.48889 54.8191L8.61315 54.7737L8.88574 54.9735L9.08871 55.0341L9.17963 55.0007L9.23407 54.925L9.26741 54.8522L9.29759 54.8189L9.35204 54.7794L9.27333 54.6978L9.16741 54.625L9.12796 54.613L8.77667 53.9437L8.74037 53.8346L8.60111 53.7831L8.46185 53.665L8.34685 53.5257L8.27722 53.4106L8.20759 53.4893L8.08333 53.2409L8.08037 53.0956L8.12574 52.9502L8.13778 52.7048L7.99537 52.7593L7.49871 52.7441L7.45019 52.838L7.33815 52.9409L7.21093 53.0257L6.97778 53.0924L6.73556 53.2348L6.36296 53.2893L6.20241 53.3589L6.05407 53.4619L5.91778 53.5891L5.76037 53.683L5.615 53.6709L5.30908 53.5528H5.15463L4.74574 53.7011L4.44296 53.6587L4.2613 53.6678L4.11296 53.7646L4.07352 53.9191L4.12204 54.0826L4.23722 54.1765L4.39463 54.1189L4.50056 54.3339L4.555 54.552L4.53981 54.7519L4.43074 54.9276L3.90685 55.3333L3.83408 55.4939L3.7887 55.6665L3.67667 55.8391L3.52222 55.8996L3.34648 55.7422L3.35852 55.6969L3.40093 55.612L3.42815 55.5061L3.41 55.385L3.35852 55.3244L3.26167 55.2607L3.15259 55.2031L3.06167 55.1728L3.17074 55.0607L3.20111 54.9607L3.14352 54.8972L2.99204 54.8943L3.16463 54.543L3.12222 54.4157L2.91926 54.2613L2.57408 54.0978L2.46204 53.9706L2.49222 53.7646L2.1863 53.7889L1.81685 53.7283L1.52611 53.5587L1.43833 53.265L1.49593 53.2165L1.74722 53.0863L1.82907 53.062L1.97741 53.0287L1.98352 52.9681L1.88352 52.9167L1.72 52.9196L1.90482 52.6409L1.94722 52.4894L1.82907 52.4228L1.53222 52.4318L1.35056 52.4743L1.2263 52.5681H1.29907L1.26278 52.6559L1.23852 52.7346L1.22648 52.8165V52.9194L1.14778 52.868L1.12648 52.8165L1.12037 52.7589L1.08704 52.7044L1.12648 52.7256L1.00833 52.5681L0.959815 52.5894L0.838705 52.5924L0.772038 52.547L0.868889 52.4228V52.3593L0.811296 52.3168L0.744632 52.2926L0.556853 52.2806L0.517409 52.2381V51.9322L0.45389 51.6354L0.447778 51.5444L0.414446 51.4294L0.329629 51.3598L0.238704 51.3022L0.165928 51.2296L0.129629 51.1387L0.108335 51.0448L0.0962971 50.8418L0.126481 50.7328H0.202224L0.29315 50.7631L0.377963 50.7298L0.438521 50.5965L0.459631 50.433L0.447594 50.1302L0.471853 49.9576L0.571851 49.6306L0.596113 49.5004L0.577963 49.4246L0.514444 49.2913L0.977037 48.6744L1.34704 48.3874L1.43537 48.2513L1.46408 48.0418L1.34815 47.6665L1.33759 47.4772L1.38333 47.3837L1.56093 47.1731L1.63333 47.0657L1.66519 46.9785L1.91296 45.963L1.92148 45.928L2.09796 45.6111L2.40204 45.4026L2.82 45.2517L3.15278 45.0826L3.40056 44.8167L3.56648 44.3754L3.60704 44.1385L3.62926 44.0094L3.71426 43.9191L4.37463 43.5883L4.55111 43.4278L4.69889 43.0135L4.99556 42.628L5.26241 41.9685L5.32296 41.758L5.32945 41.2965L5.38259 41.0774L5.4687 40.868L5.56982 40.6841L5.78037 40.4778L5.95056 40.5176L6.11852 40.6128L6.3213 40.5741L6.33333 40.5719L6.39148 40.4726L6.44389 40.3831L6.46093 40.1513L6.53111 39.9631L7.02981 39.8493L7.38074 39.512L7.59445 39.3813L8.44093 39.2946L8.76852 39.1463L8.89833 38.7283L8.79093 38.3189L8.61222 37.9004L8.59204 37.707L8.57407 37.5346L9.18556 37.0343L9.40241 36.2031L9.63963 35.85L9.74278 35.7981L9.9587 35.7541L10.0607 35.7072L10.1661 35.6085L10.2406 35.4919L10.567 34.8002L10.6287 34.5769L10.6393 32.5763L10.6839 32.4511L10.8763 32.2074L10.9146 32.097L10.8626 31.9824L10.6213 31.7569L10.5309 31.65L10.4576 31.4696L10.415 31.2635L10.4022 31.0507L10.4181 30.8504L10.515 30.3913L10.5139 30.192L10.0493 29.0719L9.86352 28.6235L9.46555 27.6633L9.39852 27.2589L9.48889 27.0046L9.675 26.8609L9.88241 26.7428L10.0344 26.5602L10.062 26.3265L9.96741 26.1509L9.68667 25.8624L9.62704 25.6659L9.56852 25.1533L9.46537 25.0128L9.37185 25.0272L9.3037 25.113L9.22074 25.1891L9.07926 25.1785L8.98241 25.0837L8.54852 24.1811L8.39222 23.2863L8.18278 22.6369L8.1413 22.5457L8.07111 22.4585L8.01685 22.4452L7.72556 22.3052L7.70648 22.2776L7.6863 22.2589L7.66926 22.2231L7.64685 22.1874L7.60759 22.1687L7.58204 22.1852L7.5363 22.2656L7.51074 22.2837L7.46815 22.3044L7.35333 22.3987L7.28963 22.4206L7.14926 22.3833L7.05574 22.2865L6.90148 22.0406L6.575 21.677L6.47185 21.4976L6.17296 19.9393L6.17222 19.938L6.05167 19.7219L5.83574 19.5787L5.35093 19.4398L5.13611 19.303L5.02444 19.067L4.92241 17.8017L4.78945 17.3906L4.71389 17.2804L4.61722 17.1746L4.53648 17.0641L4.50981 16.9407L4.54074 16.8241L4.64389 16.5717L4.65982 16.4739L4.61722 16.3607L4.49074 16.14L4.48222 16.0283L4.53963 15.938L4.63315 15.897L4.73833 15.8693L4.83407 15.8206L5.02982 15.5196L5.12648 15.1065L5.15204 14.2776L5.08296 14.0607L4.93204 13.9631L4.73963 13.9041L4.54593 13.8026L4.21204 13.4456L4.02704 13.3713L3.74741 13.4526L3.64 13.5533L3.59537 13.6522L3.54759 13.6954L3.42852 13.6278L3.27334 13.2119L3.04463 12.9161L3.03833 12.8657L2.92981 12.8748L2.72574 12.9326L2.5237 12.9459L2.34611 12.9917L2.25889 12.9976L2.12815 12.948L2.1963 12.8683L2.40148 12.737L2.27278 12.5802L2.11111 12.5194L2.09204 12.463L2.58333 12.2083L2.695 12.0693L2.66833 11.9283L2.44074 11.8093L2.24093 11.8081L1.83259 11.9541L1.67093 11.9861L1.43167 11.8994L1.44648 11.7207L1.57722 11.483L1.68685 11.2187L1.6613 11.0522L1.54222 10.9337L1.3913 10.8328L1.26907 10.7185L1.18833 10.5546L1.19259 10.4498L1.23722 10.3517L1.27759 10.208L1.30741 9.96759L1.30426 9.8463L1.27241 9.72667L1.1863 9.61074L1.07148 9.50537L0.981112 9.39241L0.968334 9.25204L0.982222 8.93463L0.85352 8.69537L0.621668 8.51278L0.32352 8.36815ZM73.1343 72.9133L73.2548 72.7768L73.5337 72.7944L73.8418 72.895L74.0537 73.0156L74.2539 73.3389L74.1769 73.5567L73.9876 73.5918L73.8485 73.3674L73.8578 73.4806L73.8428 73.5961L73.8026 73.6824L73.7372 73.7176L73.707 73.7309L73.6878 73.7568L73.6576 73.7828L73.5965 73.7961L73.5254 73.7719L73.4685 73.7241L73.4317 73.6763L73.4207 73.6537L73.2852 73.6739L73.1019 73.7359L72.7183 73.9354L72.6246 73.8667L72.5343 73.8833L72.4656 73.9706L72.437 74.1113L72.4922 74.1917L72.6028 74.257L72.6815 74.33L72.642 74.4348L72.5139 74.4331L72.4335 74.3728L72.3883 74.2722L72.3681 74.1465L72.1396 74.1943L72.1406 73.9606L72.2628 73.6363L72.4035 73.405L72.5911 73.3002L72.8331 73.2281L73.0441 73.1209L73.1343 72.9133ZM2.06537 55.9911L2.14111 55.9487L2.18963 55.8761L2.28056 55.5974L2.43204 55.8063L2.52593 55.882L2.63796 55.885L2.69241 55.8213L2.76204 55.6122L2.84982 55.5274L2.79537 55.8243L2.65908 56.012L2.21685 56.3057L2.10185 56.2724L1.92611 56.2633L1.78982 56.2239V56.0937L2.06537 55.9911ZM0.00907615 56.5967L0.0544456 56.5028L0.0968537 56.4452L0.190741 56.3998L0.517779 56.3694L0.872223 56.2694L1.0237 56.3209L1.08722 56.5541L1.11445 56.6298L1.16889 56.6631L1.19611 56.7026L1.15074 56.7904L1.06296 56.8631L0.835741 56.9418L0.735742 57.0144L0.545002 56.9448L0.269445 56.7631L0.0635189 56.7269L0 56.6874L0.00907615 56.5967Z"/>
</mask>
<path d="M0.32352 8.36815L1.36352 7.33481L2.40241 6.30222L3.4413 5.2687L4.4813 4.23556L5.28889 3.81796L6.0037 3.44833L6.7137 3.09222L7.41463 2.74056L8.41574 2.37519L9.25074 2.06L10.0335 1.76444L10.8761 1.4463L11.8183 1.09056L12.6609 0.772408L13.3763 0.502223L13.5583 0.844815L14.28 0.444815L15.0826 0L15.3102 0.274074L14.9233 1.07352H15.9472L16.7209 1.30185L16.2204 2.58074L16.6363 3.33778L17.1306 4.23704L17.1459 4.24241L18.0537 4.55611L18.1102 4.24296L18.1111 4.23759L18.1685 3.80778L18.4554 3.6063L18.857 3.63519L18.8857 4.23815L19.6606 4.24148L20.322 4.24426L20.3422 4.42241L20.4783 4.66537L20.4889 4.86426L20.458 5.0713L20.4548 5.24704L20.5239 5.39296L20.7078 5.50852L21.1065 5.85833L21.3256 6.00093L21.5617 6.05722L21.6026 6.05685L23.1046 6.04444L23.4587 5.99611L23.5672 5.99556L23.6683 6.02296L23.8556 6.11352L23.9885 6.13167L25.9004 6.09333L27.5104 6.06018L27.5996 6.08L27.7517 6.17148L27.8122 6.18611L27.8378 6.19222L29.8209 6.17519L30.4344 6.345L31.1661 6.71481L31.5861 6.8113L31.6861 6.88667L31.8478 7.15963L31.9233 7.20981L32.1296 7.19426L32.2061 7.2187L32.2741 7.31074L32.3144 7.41074L32.3676 7.64L32.4006 7.69537L32.4537 7.70759L32.5154 7.70593L32.5759 7.72185L33.1331 8.08037L34.1359 8.72685L35.1387 9.37352L36.3126 10.1289L37.1463 10.6661L38.0894 11.2748L39.1517 11.9591L40.1309 12.59L41.157 13.2509L41.4739 13.455L41.6654 13.6459L41.927 14.0661L42.0856 14.2543L42.2174 14.3272L42.5246 14.4219L42.7619 14.6283L42.8872 14.6494L43.2115 14.5687L43.5337 14.5431L44.6257 14.667L45.7252 14.7909L46.3015 14.7417L46.8257 14.512L46.8385 14.453L46.83 14.3611L46.8513 14.2754L46.9502 14.2352L47.0044 14.2589L47.1991 14.4206L47.282 14.5189L47.3022 14.6004L47.3426 14.6607L47.4861 14.697L47.6202 14.7119L47.6765 14.7041L47.8222 14.647L47.8413 14.6815L47.8518 14.7369L47.9061 14.7726L48.5069 14.8159L48.5046 14.7454L48.5185 14.6007L48.5143 14.5326L48.7928 14.9002L48.9533 15.0637L49.1415 15.167L50.157 15.4419L50.9237 15.6496L51.1917 15.6454L51.6233 15.562L51.7956 15.5854L51.9498 15.6426L52.1093 15.6404L52.7006 15.5156L52.7994 15.5396L52.9322 15.6007L53.8587 16.0269L54.2596 16.1124L54.652 16.1022L55.0507 15.8724L55.1167 15.8344L55.2517 15.8424L55.2994 15.9493L55.2048 16.1394L56.4893 16.1778L56.8061 16.2846L56.8954 16.4002L56.9496 16.5398L57.0272 16.6774L57.1909 16.7863L57.5194 16.7691L57.6928 16.498L57.9172 15.8117L58.1831 15.492L58.8583 14.8754L59.6676 14.1346L59.8643 13.8752L60.0344 13.5574L60.3215 12.7974L60.5235 12.2581L60.7309 12.0033L61.6124 11.5763L62.4981 11.1491L63.4956 10.6665L63.9613 10.4346L64.0081 10.3741L64.0007 10.3098L64.0104 10.2687L64.1093 10.2783L64.1402 10.2959L64.1711 10.3044L64.1998 10.3028L65.2418 9.9387L66.0531 9.65593L66.1085 9.6037L66.1691 9.43704L66.2276 9.38241L67.5568 8.86982L68.6435 8.45167L69.4994 8.12241L70.1481 7.69519L70.3746 7.99537L70.9946 8.41685L71.2478 8.70574L71.42 9.02481L71.5263 9.12926L71.7135 9.225L72.2048 9.39296L72.3707 9.49204L72.6398 9.74037L73.3002 10.6661L73.7574 11.0226L74.2561 11.2254L74.7941 11.288L75.8446 11.228L76.9983 11.1613L77.5152 11.0163L77.7874 11.0013L78.6115 10.7974L78.7752 10.8085L79.0474 10.9219L79.1941 10.9491L79.343 10.9156L79.7789 10.6659L80.268 10.8257L80.7209 11.0656L81.1793 11.1554L81.6844 10.8689L80.8231 12.1069L79.9596 13.3444L79.0972 14.5824L78.2337 15.8202L77.702 16.5824L77.1693 17.3454L76.6376 18.1069L76.1048 18.8694L75.2606 19.7076L74.4141 20.5463L73.5676 21.3843L72.7222 22.2217L72.3702 22.5709L72.2224 22.8569L72.2278 23.4083L72.2406 24.7357L72.2544 26.1222V26.8859V27.982V29.0781V30.1739V31.2698V32.5569V33.8431V35.13V36.4167V37.7026V38.9887V39.1628V40.275V41.5613V42.847V44.1333V45.4185V46.7052V47.9907V49.2774V50.563V51.8496L72.2661 52.6928L72.2746 53.3872L72.282 54.0817L72.2968 55.1993L72.3117 56.3148L72.3265 57.4313L72.3413 58.5489L72.3509 59.2741L72.3605 59.9993L72.3702 60.7809L72.6328 61.1202L72.8933 61.4594L73.1559 61.7976L73.4174 62.1369L73.9267 62.7941L74.453 63.4757L75.0196 64.2085L75.4896 64.8148L75.9957 65.4689L76.5263 66.155L77.0452 66.8241L77.563 67.4943L77.9574 68.0048L78.0818 68.2315L78.1191 68.4261L78.0919 69.0706L78.083 69.2763L78.077 69.2822L77.2933 70.0846L76.9233 70.65L76.8748 70.8302L76.652 70.9676L76.0669 71.5004L75.7002 71.9511L75.4867 72.0785L75.3285 71.8843L75.1368 71.963L74.9594 71.9444L74.8413 71.8263L74.8313 71.6043L74.6254 71.817L74.5852 72.0633L74.4898 72.3013L74.1926 72.2737L73.7907 72.1791L73.7011 72.1724L73.5746 72.2511L73.3704 72.4756L73.0924 72.5928L72.9852 72.7319L72.873 72.8474L72.7113 72.8391L72.5756 72.7687L72.4776 72.7L72.4098 72.6011L72.367 72.4537L72.3746 72.3013L72.4759 72.0165L72.4693 71.8909L72.4441 71.7485L72.4859 71.6211L72.6407 71.3915L72.2765 71.6713L72.2346 72.8819L72.0152 73.1557L71.8243 73.0124L71.6333 72.3791L71.4457 72.2357L71.3385 72.1737L71.2439 72.0648L71.1476 72.0263L71.0254 72.172L71.0924 72.3261L71.1226 72.4619L71.0957 72.5926L71.2631 72.5196L71.3954 72.5548L71.485 72.6704L71.5159 72.8387L71.4941 72.9074L71.3987 72.9628L71.3752 73.0215L71.4094 73.1204L71.4848 73.1439L71.5602 73.1606L71.5928 73.2293L71.6104 73.98L71.6715 74.3789L71.8037 74.6387L71.8957 74.6639L72.008 74.6506L72.1335 74.6565L72.2633 74.747L72.3639 74.8954L72.3789 75.0076L72.2633 75.275L72.0096 75.5876L71.7811 75.6328L71.7485 75.5163L72.0852 75.3478L71.9078 75.2841L71.7654 75.1885L71.5159 74.9254L71.4774 74.8433L71.4907 74.7913L71.4841 74.7519L71.3752 74.7091L71.3885 74.7326L71.3191 74.7569L71.1683 74.7844L70.9113 74.9252L70.6811 75.2017L70.465 75.3928L70.2515 75.277L70.2581 75.365L70.285 75.458L70.3402 75.535L70.4248 75.5652L70.4743 75.5937L70.455 75.6607L70.3856 75.7722L70.4526 75.9231L70.7439 76.1167L70.8143 76.2607L70.6937 76.4987L70.4098 76.7778L70.0891 77.0091L69.6119 77.2059L68.9822 77.9552L68.6256 78.0909L68.31 78.0222L68.0035 77.8839L67.6761 77.8085L67.3394 77.8437L66.2996 78.1715L65.8726 78.4781L65.613 78.5604L65.3107 78.7489L64.7983 79.1639L64.6768 79.2913L64.5865 79.4356L64.3965 79.8665L64.0893 80.2554L64.0448 80.4289L64.065 80.5085L64.2181 80.713L64.2298 80.78L64.1904 80.9376L64.1794 81.0272L63.9852 81.6854L63.9617 82.0231L64.1794 82.1883L64.1259 82.4583L64.2507 82.5774L64.4626 82.5565L64.6768 82.398L64.6852 82.5137L64.6048 82.6361L64.2448 82.9791L64.0296 83.2667L63.9744 83.3907L63.93 83.9139L63.8646 84.0933L63.5146 84.5915L63.507 84.7298L63.6183 85.1046L63.6167 85.2959L63.553 85.4554L63.4617 85.603L63.342 85.732L63.1956 85.8293L62.6981 86.0557L62.5626 86.1463L62.3156 86.4356L62.1767 86.5463L61.995 86.5757L62.0754 86.4004L62.1867 86.007L62.2059 85.8644L62.0209 85.9098L61.9396 86.0104L61.922 86.1446L61.9246 86.2898L61.9146 86.3854L61.8543 86.6394L61.8735 86.6965L61.912 86.7526L61.9306 86.8139L61.7496 87.1107L61.5404 87.6609L61.2657 88.1022L61.1585 88.6954L61.0406 88.9361L60.91 89.0535L60.8204 89.072L60.5976 88.9748L60.5481 88.9446L60.4133 88.7885L60.3648 88.7785L60.0911 88.7559L60.1337 88.6661L60.1413 88.625L60.035 88.5394L59.9546 88.7281L59.9831 88.8859L60.107 88.9781L60.3146 88.9748L60.1907 89.1207L60.2326 89.2415L60.3774 89.2893L60.735 89.1433L60.8496 89.2265L60.915 89.3843L60.9409 89.537L60.9209 89.8626L60.0911 92.1543L59.8274 92.4085L59.5328 92.4556L59.3252 92.3004L59.3268 91.9504L59.0991 92.0763L59.0354 92.1543L59.0722 92.2574L59.1417 92.3615L59.1768 92.4589L59.223 92.553L59.3268 92.6478L59.5546 92.6302L59.6685 92.6856L59.6393 92.8635L59.4224 93.1035L59.3906 93.1765L59.362 93.268L59.2883 93.3956L59.197 93.508L59.1074 93.5567L59.0085 93.503L58.9398 93.2663L58.8594 93.2117L58.7891 93.0867L58.8107 92.85L58.7957 92.7074L58.6165 92.8593L58.3519 92.7141L58.232 92.6956L58.1191 92.7887L58.2213 92.8868L58.3428 92.9346L58.6167 93L58.5396 93.1839L58.4426 93.2711L58.1194 93.345L58.0139 93.3476L57.8983 93.3367L57.8054 93.3476L57.7678 93.4189L57.7754 93.6372L57.7956 93.7396L57.8383 93.8454L57.9874 93.6439L58.3291 93.6204L58.6891 93.7261L58.8909 93.9157L58.8517 94.1643L58.3376 95.0491L58.0078 95.8904L57.6711 97.1567L57.5572 97.4489L57.4652 97.3144L57.3765 97.322L57.2894 97.4118L57.2074 97.5278L57.1907 97.5841L57.2007 97.7126L57.1681 97.7706L57.0217 97.9041L56.9898 97.9494L56.6381 99.0128L56.5728 98.8213L56.6046 98.5205L56.5678 98.3728L56.4356 98.4761L56.3619 98.6198L56.2998 98.7811L56.2161 98.9357L56.1659 98.9298L56.0931 98.8904L56.0278 98.9004L56.0002 99.0457L56.0202 99.1315L56.1809 99.3557L56.077 99.4985L55.7304 99.5498L55.3385 99.4531L55.0924 99.1474L55.0841 99.207L55.023 99.3591L54.7207 99.2676L54.498 99.4819L54.3096 99.7759L54.1087 99.923L54.0661 99.9372L54.0293 99.9406L53.9957 99.9557L53.963 100L53.09 99.3683L52.2117 98.7346L51.3333 98.1L50.455 97.4654L49.5767 96.8319L48.6972 96.1974L47.82 95.563L46.9428 94.9296L46.0633 94.2963L45.9952 94.247L45.1861 93.662L44.3067 93.0289L43.4294 92.3946L42.5522 91.7615L41.6728 91.1274L40.7956 90.4933L39.9172 89.8593L39.3569 89.4565L39.2154 89.2711L39.1122 89.0602L38.9335 88.4252L38.8559 88.2665L38.7124 88.1344L38.5178 88.0407L38.3009 87.9831L38.0807 87.9639L37.5883 87.9926L37.5585 87.8509L37.6404 87.6496L37.6818 87.4791L37.6298 87.3981L37.4607 87.3768L37.3863 87.3013L37.3704 87.1926L37.3968 87.0722L37.4457 86.9572L37.4978 86.8656L37.6478 86.6994L37.8774 86.5172L38.122 86.3863L38.3167 86.3713L38.3019 86.187L38.338 86.0431L38.44 85.9548L38.6272 85.9409L38.4209 84.6815L38.3987 84.5457L38.2169 83.4287L38.0594 83.1752L37.2098 82.7004L35.7893 81.9059L35.0013 81.4652L32.7917 80.2302L30.5832 78.9963L28.3746 77.7615L26.1661 76.528L23.9565 75.2944L21.7489 74.06L19.5404 72.8257L17.3319 71.5915L15.1243 70.3574L13.3826 69.385L12.9157 69.1243L10.7061 67.8902L8.49759 66.6574L7.95574 66.3548L6.28889 65.4237L4.07926 64.1909L1.87074 62.9572L1.32185 62.6506L1.33574 62.6089L1.30537 62.5846L1.25389 62.5633L1.22667 62.4756L1.30537 62.3696L1.45685 62.3454L1.56593 62.3059L1.50833 62.1483L1.37815 62.2331L1.21148 62.2726L1.05407 62.2331L0.944999 62.0848L1.16 62.1333L1.23871 62.0696L1.29926 61.8031L1.76871 62.103L1.93222 62.1483V62.0848L1.8413 61.8818L1.87463 61.6335L1.99889 61.2033L2.10481 61.0641L2.30463 60.943L2.44389 60.7856L2.35907 60.5341L2.26222 60.4826L1.78982 60.322L1.36574 60.0283L1.29907 60.0041L1.29296 59.8072L1.25352 59.5256L1.15056 59.3135L0.944629 59.3378L1.05056 58.42L1.12019 58.2776L1.19889 58.2472L1.30482 58.1685L1.39574 58.0746L1.43815 57.9898L1.41093 57.8535L1.33222 57.7567L1.23537 57.6719L1.15056 57.5689L1.21407 57.5385L1.35945 57.5265L1.43815 57.4993L1.60167 57.3235L1.6137 57.2963L1.96796 57.3267L2.10426 57.2904L2.2163 57.148L2.35259 56.4606L2.50407 56.1667L2.84926 56.0941L2.82204 56.1304L2.77963 56.2304L3.07333 56.2394L3.48833 56.615L3.76093 56.727L3.72463 56.6543L3.6913 56.5604L3.69426 56.4756L3.76093 56.4452L3.83371 56.4876L3.91852 56.6663L3.96704 56.7269L4.13667 56.7541L4.27 56.6844L4.32148 56.5452L4.25481 56.3694L4.41222 56.3633L4.53037 56.3967L4.62722 56.4604L4.715 56.5543L4.77259 56.642L4.86648 56.8541L4.88463 56.9389L4.83611 57.0117L4.75741 57.1056L4.7513 57.1904L4.92093 57.2237L5.04815 57.1813L5.29945 56.9815L5.41759 56.9391L5.44482 56.9028L5.73556 56.727L5.75981 56.6361L5.75685 56.4937L5.70241 56.3635L5.26018 56.1848L5.18148 55.9061L5.19667 55.6002L5.17537 55.3852L5.37222 55.2943L5.68111 55.2094L5.98093 55.1609L6.15667 55.173L6.26259 55.1033L6.34445 55.0972L6.41407 55.1367L6.48371 55.2063L6.59574 55.2759L6.68963 55.273L6.78056 55.2457L6.86537 55.2367L7.33185 55.37L7.53778 55.3852L8.17685 55.3217L8.31315 55.2763L8.31926 55.1189L8.2587 54.9159L8.27074 54.7767L8.48889 54.8191L8.61315 54.7737L8.88574 54.9735L9.08871 55.0341L9.17963 55.0007L9.23407 54.925L9.26741 54.8522L9.29759 54.8189L9.35204 54.7794L9.27333 54.6978L9.16741 54.625L9.12796 54.613L8.77667 53.9437L8.74037 53.8346L8.60111 53.7831L8.46185 53.665L8.34685 53.5257L8.27722 53.4106L8.20759 53.4893L8.08333 53.2409L8.08037 53.0956L8.12574 52.9502L8.13778 52.7048L7.99537 52.7593L7.49871 52.7441L7.45019 52.838L7.33815 52.9409L7.21093 53.0257L6.97778 53.0924L6.73556 53.2348L6.36296 53.2893L6.20241 53.3589L6.05407 53.4619L5.91778 53.5891L5.76037 53.683L5.615 53.6709L5.30908 53.5528H5.15463L4.74574 53.7011L4.44296 53.6587L4.2613 53.6678L4.11296 53.7646L4.07352 53.9191L4.12204 54.0826L4.23722 54.1765L4.39463 54.1189L4.50056 54.3339L4.555 54.552L4.53981 54.7519L4.43074 54.9276L3.90685 55.3333L3.83408 55.4939L3.7887 55.6665L3.67667 55.8391L3.52222 55.8996L3.34648 55.7422L3.35852 55.6969L3.40093 55.612L3.42815 55.5061L3.41 55.385L3.35852 55.3244L3.26167 55.2607L3.15259 55.2031L3.06167 55.1728L3.17074 55.0607L3.20111 54.9607L3.14352 54.8972L2.99204 54.8943L3.16463 54.543L3.12222 54.4157L2.91926 54.2613L2.57408 54.0978L2.46204 53.9706L2.49222 53.7646L2.1863 53.7889L1.81685 53.7283L1.52611 53.5587L1.43833 53.265L1.49593 53.2165L1.74722 53.0863L1.82907 53.062L1.97741 53.0287L1.98352 52.9681L1.88352 52.9167L1.72 52.9196L1.90482 52.6409L1.94722 52.4894L1.82907 52.4228L1.53222 52.4318L1.35056 52.4743L1.2263 52.5681H1.29907L1.26278 52.6559L1.23852 52.7346L1.22648 52.8165V52.9194L1.14778 52.868L1.12648 52.8165L1.12037 52.7589L1.08704 52.7044L1.12648 52.7256L1.00833 52.5681L0.959815 52.5894L0.838705 52.5924L0.772038 52.547L0.868889 52.4228V52.3593L0.811296 52.3168L0.744632 52.2926L0.556853 52.2806L0.517409 52.2381V51.9322L0.45389 51.6354L0.447778 51.5444L0.414446 51.4294L0.329629 51.3598L0.238704 51.3022L0.165928 51.2296L0.129629 51.1387L0.108335 51.0448L0.0962971 50.8418L0.126481 50.7328H0.202224L0.29315 50.7631L0.377963 50.7298L0.438521 50.5965L0.459631 50.433L0.447594 50.1302L0.471853 49.9576L0.571851 49.6306L0.596113 49.5004L0.577963 49.4246L0.514444 49.2913L0.977037 48.6744L1.34704 48.3874L1.43537 48.2513L1.46408 48.0418L1.34815 47.6665L1.33759 47.4772L1.38333 47.3837L1.56093 47.1731L1.63333 47.0657L1.66519 46.9785L1.91296 45.963L1.92148 45.928L2.09796 45.6111L2.40204 45.4026L2.82 45.2517L3.15278 45.0826L3.40056 44.8167L3.56648 44.3754L3.60704 44.1385L3.62926 44.0094L3.71426 43.9191L4.37463 43.5883L4.55111 43.4278L4.69889 43.0135L4.99556 42.628L5.26241 41.9685L5.32296 41.758L5.32945 41.2965L5.38259 41.0774L5.4687 40.868L5.56982 40.6841L5.78037 40.4778L5.95056 40.5176L6.11852 40.6128L6.3213 40.5741L6.33333 40.5719L6.39148 40.4726L6.44389 40.3831L6.46093 40.1513L6.53111 39.9631L7.02981 39.8493L7.38074 39.512L7.59445 39.3813L8.44093 39.2946L8.76852 39.1463L8.89833 38.7283L8.79093 38.3189L8.61222 37.9004L8.59204 37.707L8.57407 37.5346L9.18556 37.0343L9.40241 36.2031L9.63963 35.85L9.74278 35.7981L9.9587 35.7541L10.0607 35.7072L10.1661 35.6085L10.2406 35.4919L10.567 34.8002L10.6287 34.5769L10.6393 32.5763L10.6839 32.4511L10.8763 32.2074L10.9146 32.097L10.8626 31.9824L10.6213 31.7569L10.5309 31.65L10.4576 31.4696L10.415 31.2635L10.4022 31.0507L10.4181 30.8504L10.515 30.3913L10.5139 30.192L10.0493 29.0719L9.86352 28.6235L9.46555 27.6633L9.39852 27.2589L9.48889 27.0046L9.675 26.8609L9.88241 26.7428L10.0344 26.5602L10.062 26.3265L9.96741 26.1509L9.68667 25.8624L9.62704 25.6659L9.56852 25.1533L9.46537 25.0128L9.37185 25.0272L9.3037 25.113L9.22074 25.1891L9.07926 25.1785L8.98241 25.0837L8.54852 24.1811L8.39222 23.2863L8.18278 22.6369L8.1413 22.5457L8.07111 22.4585L8.01685 22.4452L7.72556 22.3052L7.70648 22.2776L7.6863 22.2589L7.66926 22.2231L7.64685 22.1874L7.60759 22.1687L7.58204 22.1852L7.5363 22.2656L7.51074 22.2837L7.46815 22.3044L7.35333 22.3987L7.28963 22.4206L7.14926 22.3833L7.05574 22.2865L6.90148 22.0406L6.575 21.677L6.47185 21.4976L6.17296 19.9393L6.17222 19.938L6.05167 19.7219L5.83574 19.5787L5.35093 19.4398L5.13611 19.303L5.02444 19.067L4.92241 17.8017L4.78945 17.3906L4.71389 17.2804L4.61722 17.1746L4.53648 17.0641L4.50981 16.9407L4.54074 16.8241L4.64389 16.5717L4.65982 16.4739L4.61722 16.3607L4.49074 16.14L4.48222 16.0283L4.53963 15.938L4.63315 15.897L4.73833 15.8693L4.83407 15.8206L5.02982 15.5196L5.12648 15.1065L5.15204 14.2776L5.08296 14.0607L4.93204 13.9631L4.73963 13.9041L4.54593 13.8026L4.21204 13.4456L4.02704 13.3713L3.74741 13.4526L3.64 13.5533L3.59537 13.6522L3.54759 13.6954L3.42852 13.6278L3.27334 13.2119L3.04463 12.9161L3.03833 12.8657L2.92981 12.8748L2.72574 12.9326L2.5237 12.9459L2.34611 12.9917L2.25889 12.9976L2.12815 12.948L2.1963 12.8683L2.40148 12.737L2.27278 12.5802L2.11111 12.5194L2.09204 12.463L2.58333 12.2083L2.695 12.0693L2.66833 11.9283L2.44074 11.8093L2.24093 11.8081L1.83259 11.9541L1.67093 11.9861L1.43167 11.8994L1.44648 11.7207L1.57722 11.483L1.68685 11.2187L1.6613 11.0522L1.54222 10.9337L1.3913 10.8328L1.26907 10.7185L1.18833 10.5546L1.19259 10.4498L1.23722 10.3517L1.27759 10.208L1.30741 9.96759L1.30426 9.8463L1.27241 9.72667L1.1863 9.61074L1.07148 9.50537L0.981112 9.39241L0.968334 9.25204L0.982222 8.93463L0.85352 8.69537L0.621668 8.51278L0.32352 8.36815ZM73.1343 72.9133L73.2548 72.7768L73.5337 72.7944L73.8418 72.895L74.0537 73.0156L74.2539 73.3389L74.1769 73.5567L73.9876 73.5918L73.8485 73.3674L73.8578 73.4806L73.8428 73.5961L73.8026 73.6824L73.7372 73.7176L73.707 73.7309L73.6878 73.7568L73.6576 73.7828L73.5965 73.7961L73.5254 73.7719L73.4685 73.7241L73.4317 73.6763L73.4207 73.6537L73.2852 73.6739L73.1019 73.7359L72.7183 73.9354L72.6246 73.8667L72.5343 73.8833L72.4656 73.9706L72.437 74.1113L72.4922 74.1917L72.6028 74.257L72.6815 74.33L72.642 74.4348L72.5139 74.4331L72.4335 74.3728L72.3883 74.2722L72.3681 74.1465L72.1396 74.1943L72.1406 73.9606L72.2628 73.6363L72.4035 73.405L72.5911 73.3002L72.8331 73.2281L73.0441 73.1209L73.1343 72.9133ZM2.06537 55.9911L2.14111 55.9487L2.18963 55.8761L2.28056 55.5974L2.43204 55.8063L2.52593 55.882L2.63796 55.885L2.69241 55.8213L2.76204 55.6122L2.84982 55.5274L2.79537 55.8243L2.65908 56.012L2.21685 56.3057L2.10185 56.2724L1.92611 56.2633L1.78982 56.2239V56.0937L2.06537 55.9911ZM0.00907615 56.5967L0.0544456 56.5028L0.0968537 56.4452L0.190741 56.3998L0.517779 56.3694L0.872223 56.2694L1.0237 56.3209L1.08722 56.5541L1.11445 56.6298L1.16889 56.6631L1.19611 56.7026L1.15074 56.7904L1.06296 56.8631L0.835741 56.9418L0.735742 57.0144L0.545002 56.9448L0.269445 56.7631L0.0635189 56.7269L0 56.6874L0.00907615 56.5967Z" stroke="white" stroke-width="6" mask="url(#path-1-inside-1_479_951)"/>
</svg>
