<svg width="115" height="100" viewBox="0 0 115 100" fill="none" xmlns="http://www.w3.org/2000/svg">
<mask id="path-1-inside-1_479_957" fill="white">
<path d="M8.93815 93.9935L8.07648 93.0285L6.91685 92.4554L5.22852 92.2741L4.475 91.9757L2.36611 90.5956L1.92796 90.1452L2.30759 85.8237L1.92796 84.508L1.34667 83.9174L0.712779 83.6133L0.210371 83.2683L0 82.5433L0.204445 81.8007L1.18574 80.9237L0.987037 80.2337L0.414631 79.2106L0.20426 78.088L0.0903716 76.8776L0.513889 75.3926L1.30833 74.7085L2.82722 74.1824L4.00722 73.8374L4.98574 73.2585L5.78889 72.44L6.44315 71.4168L6.86963 70.575L7.06241 69.967L7.12963 69.4759L7.71093 68.9322L8.19 68.7628L9.81685 68.8154L12.3317 68.1489L14.2769 66.6113L15.6906 64.4074L16.5785 61.73L16.9056 59.3683L16.7887 57.3341L15.2874 48.4552L15.1648 46.3861L15.4452 44.3639L16.5083 41.8741L18.6181 38.498L20.0657 36.1817L21.2574 33.92L21.9409 32.9207L24.6689 30.6591L25.2413 29.9168L26.7893 26.7261L27.4435 25.8846L28.3315 25.5106L32.6513 25.3352L32.7915 25.3002L32.917 25.2183L33.0339 25.0956L33.2243 24.7956L34.3131 23.0796L36.2583 21.052L38.5132 19.4276L40.733 18.6387L43.0054 18.7615L44.1913 18.6739L45.2428 18.3876L46.4082 17.7331L47.2815 17.102L48.2278 16.6111L49.6006 16.3657L50.2724 16.5176L51.4757 17.248L51.867 17.3881L52.3343 17.1135L52.6732 15.9974L53.1843 15.3896L53.707 15.0624L54.1978 14.9163L54.6998 14.9913L54.7061 14.9922L55.3254 15.3078L56.9143 17.6159L57.1656 18.8022L57.2998 21.128L57.8489 22.3259L58.8185 23.2317L59.9226 23.5472L61.1113 23.4187L62.3526 22.957L66.1906 20.83L66.7746 20.7072L67.2887 19.4743L68.0248 18.7146L68.3191 18.557L69.9876 17.663L72.295 16.7631L72.9083 16.1906L73.2004 15.3317L73.545 13.1406L73.9482 12.3693L74.392 12.1063L74.8419 12.0304L75.2917 11.9954L75.7093 11.8726L76.5826 11.3526L79.0974 8.96278L79.8363 8.0163L80.4439 6.9937L80.552 6.61981L80.6776 5.80759L80.8411 5.4687L81.0341 5.30981L81.2383 5.14148L82.1846 4.715L82.5293 4.4287L82.8213 3.56981L83.1863 1.23278L83.6624 0.426482L84.527 0.116852L85.4617 0.257037L86.4256 0.537407L87.3778 0.660185L88.2657 0.438148L89.0076 0.105185L89.7776 0L90.6376 0.267593L91.2569 0.46037L90.8087 0.929074L90.3735 1.54833L90.1954 2.18518L90.3822 2.79278L91.2059 3.35944L91.3928 4.13074L91.273 4.4637L91.0598 4.785L90.908 5.12389L91.0015 5.46278L91.498 5.79574L91.9478 5.72556L92.3157 5.52685L92.5494 5.46259L93.2446 5.965L93.4841 6.31555L93.7061 7.7763L94.0507 8.60019L95.0789 10.3063L95.4119 11.4574L95.9376 12.1411L96.0515 12.6028L95.9959 12.7781L95.8674 13.0235L95.733 13.3567L95.6746 13.7774L95.9783 14.6831L96.7085 15.2324L98.3733 15.9219L98.9693 16.3426L99.8163 17.1489L100.336 17.4644L104.069 18.8493L105.179 19.007L106.277 19.6731L106.598 21.1515L106.493 22.6241L106.318 23.2902L106.017 23.6174L106.353 24.3537L107.288 25.6043L107.989 26.3522L108.24 26.7846L108.789 28.8183L109.332 30.0922L110.217 30.7876L111.561 30.2733L111.972 31.4713L111.926 32.9265L111.196 37.3856L111.178 37.9933L111.306 38.2856L111.809 39.057L111.949 39.5772L111.301 41.1319L111.499 41.728L111.949 43.9957L111.64 44.9543L111.064 45.8017L110.746 46.6726L111.178 47.6837L110.261 48.4026L109.916 48.7707L109.636 49.2267L111.33 49.4956L111.499 50.9918L110.755 54.2826L111.812 54.0546L112.831 54.5631L113.693 55.4283L114.298 56.2467L114.771 57.8893L112.826 64.185L112.335 66.6754L112.574 70.5456L112.335 71.6972L111.751 72.7554L111.015 73.2874L110.065 73.7083L109.192 74.2111L108.404 74.4041L107.995 74.638L107.481 74.7783L107.019 74.6672L104.069 73.2115L103.461 73.0185L102.731 73.118L102.083 73.6267L101.277 75.1468L100.643 75.6789L99.46 75.7431L98.2333 75.3924L97.03 75.2404L95.9376 75.8835L94.08 75.8133L92.1991 74.9306L89.1293 72.4107L88.805 71.9665L88.513 71.1713L88.2443 70.8615L88.0515 70.9317L86.2639 70.5048L85.9893 70.3644L85.0809 70.6333L84.5289 71.1478L84.2948 71.4556L84.0354 71.7967L83.3082 72.4691L82.4961 72.8843L81.433 73.2293L80.3522 73.4515L79.4409 73.4924L78.74 73.3346L76.9757 72.4752L76.3185 72.4109L76.117 72.7909L76.0878 73.323L75.9709 73.7206L73.4182 76.9246L72.4543 77.5911L71.1924 77.632L69.8956 77.1293L68.7156 76.3457L67.7867 75.533L66.0343 73.4574L65.345 72.9254L64.6994 72.6974L64.1561 72.6798L63.68 72.7267L63.2419 72.6624L62.2463 71.8056L62.148 71.7209L61.7609 71.3878L61.3082 71.1306L60.7298 71.1481L60.5663 71.4639L60.5722 71.99L60.2043 74.8841L60.6102 79.2341L59.3863 83.5083L59.1493 89.3104L59.1235 89.9407L58.8198 91.1863L58.2824 92.4202L57.5931 93.5898L56.8396 94.6133L55.683 95.7889L54.6198 96.4146L53.4778 96.6309L52.0728 96.59L50.8109 96.2098L50.1626 96.2156L49.742 96.7418L49.5552 97.9291L49.3098 98.4554L48.7607 98.7887L47.4961 98.9467L46.43 98.783L44.0789 98.0061L43.4741 97.8063L43.0709 97.783L41.3885 98.3911L40.968 98.6485L40.5182 98.8239L39.9341 98.8006L38.6956 98.9643L37.6382 99.6368L36.5633 100L35.2489 99.2572L33.2033 98.8757L32.112 98.6722L31.0985 98.7893L28.6596 99.8478L27.2693 99.9765L26.7698 98.9004L26.7026 98.1928L26.1769 97.0172L26.0483 96.3622L26.2411 95.7715L27.0239 94.8124L27.1465 94.1691L26.8019 93.4672L25.5752 92.3152L25.562 92.263L25.3678 91.4965L25.4407 90.8298L25.3998 90.5667L24.7106 90.052L23.6765 89.4615L22.4819 89.175L20.0956 88.8767L18.8337 88.4907L15.4017 86.9937L14.4817 86.8593L11.1928 87.0756L9.91056 88.3328L8.93815 93.9935Z"/>
</mask>
<path d="M8.93815 93.9935L8.07648 93.0285L6.91685 92.4554L5.22852 92.2741L4.475 91.9757L2.36611 90.5956L1.92796 90.1452L2.30759 85.8237L1.92796 84.508L1.34667 83.9174L0.712779 83.6133L0.210371 83.2683L0 82.5433L0.204445 81.8007L1.18574 80.9237L0.987037 80.2337L0.414631 79.2106L0.20426 78.088L0.0903716 76.8776L0.513889 75.3926L1.30833 74.7085L2.82722 74.1824L4.00722 73.8374L4.98574 73.2585L5.78889 72.44L6.44315 71.4168L6.86963 70.575L7.06241 69.967L7.12963 69.4759L7.71093 68.9322L8.19 68.7628L9.81685 68.8154L12.3317 68.1489L14.2769 66.6113L15.6906 64.4074L16.5785 61.73L16.9056 59.3683L16.7887 57.3341L15.2874 48.4552L15.1648 46.3861L15.4452 44.3639L16.5083 41.8741L18.6181 38.498L20.0657 36.1817L21.2574 33.92L21.9409 32.9207L24.6689 30.6591L25.2413 29.9168L26.7893 26.7261L27.4435 25.8846L28.3315 25.5106L32.6513 25.3352L32.7915 25.3002L32.917 25.2183L33.0339 25.0956L33.2243 24.7956L34.3131 23.0796L36.2583 21.052L38.5132 19.4276L40.733 18.6387L43.0054 18.7615L44.1913 18.6739L45.2428 18.3876L46.4082 17.7331L47.2815 17.102L48.2278 16.6111L49.6006 16.3657L50.2724 16.5176L51.4757 17.248L51.867 17.3881L52.3343 17.1135L52.6732 15.9974L53.1843 15.3896L53.707 15.0624L54.1978 14.9163L54.6998 14.9913L54.7061 14.9922L55.3254 15.3078L56.9143 17.6159L57.1656 18.8022L57.2998 21.128L57.8489 22.3259L58.8185 23.2317L59.9226 23.5472L61.1113 23.4187L62.3526 22.957L66.1906 20.83L66.7746 20.7072L67.2887 19.4743L68.0248 18.7146L68.3191 18.557L69.9876 17.663L72.295 16.7631L72.9083 16.1906L73.2004 15.3317L73.545 13.1406L73.9482 12.3693L74.392 12.1063L74.8419 12.0304L75.2917 11.9954L75.7093 11.8726L76.5826 11.3526L79.0974 8.96278L79.8363 8.0163L80.4439 6.9937L80.552 6.61981L80.6776 5.80759L80.8411 5.4687L81.0341 5.30981L81.2383 5.14148L82.1846 4.715L82.5293 4.4287L82.8213 3.56981L83.1863 1.23278L83.6624 0.426482L84.527 0.116852L85.4617 0.257037L86.4256 0.537407L87.3778 0.660185L88.2657 0.438148L89.0076 0.105185L89.7776 0L90.6376 0.267593L91.2569 0.46037L90.8087 0.929074L90.3735 1.54833L90.1954 2.18518L90.3822 2.79278L91.2059 3.35944L91.3928 4.13074L91.273 4.4637L91.0598 4.785L90.908 5.12389L91.0015 5.46278L91.498 5.79574L91.9478 5.72556L92.3157 5.52685L92.5494 5.46259L93.2446 5.965L93.4841 6.31555L93.7061 7.7763L94.0507 8.60019L95.0789 10.3063L95.4119 11.4574L95.9376 12.1411L96.0515 12.6028L95.9959 12.7781L95.8674 13.0235L95.733 13.3567L95.6746 13.7774L95.9783 14.6831L96.7085 15.2324L98.3733 15.9219L98.9693 16.3426L99.8163 17.1489L100.336 17.4644L104.069 18.8493L105.179 19.007L106.277 19.6731L106.598 21.1515L106.493 22.6241L106.318 23.2902L106.017 23.6174L106.353 24.3537L107.288 25.6043L107.989 26.3522L108.24 26.7846L108.789 28.8183L109.332 30.0922L110.217 30.7876L111.561 30.2733L111.972 31.4713L111.926 32.9265L111.196 37.3856L111.178 37.9933L111.306 38.2856L111.809 39.057L111.949 39.5772L111.301 41.1319L111.499 41.728L111.949 43.9957L111.64 44.9543L111.064 45.8017L110.746 46.6726L111.178 47.6837L110.261 48.4026L109.916 48.7707L109.636 49.2267L111.33 49.4956L111.499 50.9918L110.755 54.2826L111.812 54.0546L112.831 54.5631L113.693 55.4283L114.298 56.2467L114.771 57.8893L112.826 64.185L112.335 66.6754L112.574 70.5456L112.335 71.6972L111.751 72.7554L111.015 73.2874L110.065 73.7083L109.192 74.2111L108.404 74.4041L107.995 74.638L107.481 74.7783L107.019 74.6672L104.069 73.2115L103.461 73.0185L102.731 73.118L102.083 73.6267L101.277 75.1468L100.643 75.6789L99.46 75.7431L98.2333 75.3924L97.03 75.2404L95.9376 75.8835L94.08 75.8133L92.1991 74.9306L89.1293 72.4107L88.805 71.9665L88.513 71.1713L88.2443 70.8615L88.0515 70.9317L86.2639 70.5048L85.9893 70.3644L85.0809 70.6333L84.5289 71.1478L84.2948 71.4556L84.0354 71.7967L83.3082 72.4691L82.4961 72.8843L81.433 73.2293L80.3522 73.4515L79.4409 73.4924L78.74 73.3346L76.9757 72.4752L76.3185 72.4109L76.117 72.7909L76.0878 73.323L75.9709 73.7206L73.4182 76.9246L72.4543 77.5911L71.1924 77.632L69.8956 77.1293L68.7156 76.3457L67.7867 75.533L66.0343 73.4574L65.345 72.9254L64.6994 72.6974L64.1561 72.6798L63.68 72.7267L63.2419 72.6624L62.2463 71.8056L62.148 71.7209L61.7609 71.3878L61.3082 71.1306L60.7298 71.1481L60.5663 71.4639L60.5722 71.99L60.2043 74.8841L60.6102 79.2341L59.3863 83.5083L59.1493 89.3104L59.1235 89.9407L58.8198 91.1863L58.2824 92.4202L57.5931 93.5898L56.8396 94.6133L55.683 95.7889L54.6198 96.4146L53.4778 96.6309L52.0728 96.59L50.8109 96.2098L50.1626 96.2156L49.742 96.7418L49.5552 97.9291L49.3098 98.4554L48.7607 98.7887L47.4961 98.9467L46.43 98.783L44.0789 98.0061L43.4741 97.8063L43.0709 97.783L41.3885 98.3911L40.968 98.6485L40.5182 98.8239L39.9341 98.8006L38.6956 98.9643L37.6382 99.6368L36.5633 100L35.2489 99.2572L33.2033 98.8757L32.112 98.6722L31.0985 98.7893L28.6596 99.8478L27.2693 99.9765L26.7698 98.9004L26.7026 98.1928L26.1769 97.0172L26.0483 96.3622L26.2411 95.7715L27.0239 94.8124L27.1465 94.1691L26.8019 93.4672L25.5752 92.3152L25.562 92.263L25.3678 91.4965L25.4407 90.8298L25.3998 90.5667L24.7106 90.052L23.6765 89.4615L22.4819 89.175L20.0956 88.8767L18.8337 88.4907L15.4017 86.9937L14.4817 86.8593L11.1928 87.0756L9.91056 88.3328L8.93815 93.9935Z" stroke="white" stroke-width="6" mask="url(#path-1-inside-1_479_957)"/>
</svg>
